<?xml version="1.0" standalone="no"?>
<!DOCTYPE svg PUBLIC "-//W3C//DTD SVG 1.1//EN" "http://www.w3.org/Graphics/SVG/1.1/DTD/svg11.dtd" >
<svg>
<metadata>
Created by FontForge 20090914 at Sat Jul 18 19:49:43 2015
 By www-data
Copyright (c) 2013 by Alessio Laiso (alessio.laiso@gmail.com). Licensed under the SIL Open Font License, Version 1.1. 
</metadata>
<defs>
<font id="." horiz-adv-x="1509" >
  <font-face 
    font-family="."
    font-weight="300"
    font-stretch="normal"
    units-per-em="2000"
    panose-1="2 15 3 2 2 2 4 3 2 3"
    ascent="1610"
    descent="-390"
    x-height="994.002"
    cap-height="1415"
    bbox="0 -371 2172 1789"
    underline-thickness="68"
    underline-position="-132"
    unicode-range="U+000D-U+FB02"
  />
<missing-glyph horiz-adv-x="728" 
d="M66 0v1333h530v-1333h-530zM132 66h398v1201h-398v-1201z" />
    <glyph glyph-name="uniFB01" unicode="fi" horiz-adv-x="1264" 
d="M8 -323c0 21.333 12.002 32.0029 36.002 32.0029c87.333 2 154.666 29.333 201.999 82s76.666 124 87.999 214l108 886l-138 9c-19.333 1.33301 -28 9.66602 -26 24.999l4 39h169l11 85c7.33301 62 23 117.667 47 167s55.333 91 94 125s83.667 60 135 78
c52 18.667 109.667 28 173 28c126 0 219.333 -37.333 280 -112l-1 -1c10 -12.667 15.5 -26.667 16.5 -42s-1.83301 -29.833 -8.5 -43.5s-15.834 -25.834 -27.501 -36.501s-24.167 -18.334 -37.5 -23.001s-27.666 -5.16699 -42.999 -1.5s-29 12.167 -41 25.5
c-14 18.667 -19.5 39.334 -16.5 62.001s11.5 41.667 25.5 57c-62 36.667 -136.333 48 -223 34c-164 -28.667 -257.333 -135.334 -280 -320.001l-11 -82h584l-109 -885c12 0 32.833 -0.5 62.5 -1.5s51.5 -1.83301 65.5 -2.5c13.333 -0.666992 23 -4 29 -10
s8.33301 -14.333 7 -25l-5 -40h-264l61 498l49 395h-486l-109 -891c-30.667 -248.667 -171 -373 -421 -373v48z" />
    <glyph glyph-name="uniFB02" unicode="fl" horiz-adv-x="1371" 
d="M8 -323c0 21.333 12.0068 32.001 36.0068 32.001c87.333 2 154.666 29.333 201.999 82s76.666 124 87.999 214l108 885l-139 9c-18.667 1.33301 -27.334 9.66602 -26.001 24.999l5 39h169l8 65c11.333 92.667 40.666 171.834 87.999 237.501s109 113.5 185 143.5
c52.667 20.667 110.667 31 174 31c29.333 0 72.166 -2.5 128.499 -7.5s98.5 -7.5 126.5 -7.5h72l-147 -1201c-7.33301 -54.667 0.666992 -96.334 24 -125.001s61.333 -43 114 -43c9.33301 0 20.666 1.33301 33.999 4s23 4 29 4c8.66699 0 12.667 -4 12 -12v-48
c-30 -14 -63.333 -21 -100 -21c-52.667 0 -98.667 13 -138 39c-56.667 42.667 -80.334 109.667 -71.001 201l140 1134c-14.667 0.666992 -48.5 2.66699 -101.5 6s-92.167 5 -117.5 5c-78.667 0 -144.5 -17.833 -197.5 -53.5s-93.833 -84.167 -122.5 -145.5
c-19.333 -42 -32.333 -89 -39 -141l-8 -65h287l-9 -73h-285l-108 -888c-30.667 -248.667 -171 -373 -421 -373v48z" />
    <glyph glyph-name=".notdef" horiz-adv-x="728" 
d="M66 0v1333h530v-1333h-530zM132 66h398v1201h-398v-1201z" />
    <glyph glyph-name="glyph3" horiz-adv-x="376" 
 />
    <glyph glyph-name="glyph3" horiz-adv-x="376" 
 />
    <glyph glyph-name="uni000D" unicode="&#xd;" horiz-adv-x="376" 
 />
    <glyph glyph-name="space" unicode=" " horiz-adv-x="436" 
 />
    <glyph glyph-name="exclam" unicode="!" horiz-adv-x="432" 
d="M87 143c20.667 18 43.6641 27 68.9971 27c32.667 0 56.834 -14 72.501 -42s14.834 -57 -2.49902 -87c-21.333 -37.333 -52 -56 -92 -56c-27.333 0 -48.166 9.5 -62.499 28.5s-20 41 -17 66s13.833 46.167 32.5 63.5zM165.997 487c12 174.667 22 293.333 30 356l70 572h93
l-70 -572c-8 -63.333 -27.333 -182 -58 -356h-65z" />
    <glyph glyph-name="quotedbl" unicode="&#x22;" horiz-adv-x="646" 
d="M132 970l9.99805 153l36 292h83l-36 -292l-28 -153c-2 -7.33301 -4.16699 -13.5 -6.5 -18.5s-6.16602 -9.16699 -11.499 -12.5s-11.666 -5 -18.999 -5c-18.667 0 -28 12 -28 36zM421.998 970l9.99805 153l36 292h83l-36 -292l-28 -153
c-2 -7.33301 -4.16699 -13.5 -6.5 -18.5s-6.16602 -9.16699 -11.499 -12.5s-11.666 -5 -18.999 -5c-18.667 0 -28 12 -28 36z" />
    <glyph glyph-name="numbersign" unicode="#" horiz-adv-x="1154" 
d="M58 513h218.001l130 389h-253l11 38c5.33301 22 21.333 33 48 33h213l136 404c8.66699 25.333 25.667 38 51 38h42l-149 -442h298l149 442h42c12.667 0 21.167 -4.16699 25.5 -12.5s4.16602 -18.166 -0.500977 -29.499l-136 -400h225l-11 -38c-6 -22 -22.333 -33 -49 -33
h-184l-130 -389h225c20 0 29 -8.66699 27 -26l-9 -44h-261l-149 -443h-41c-11.333 0 -19.5 4.33301 -24.5 13s-5.16699 19 -0.5 31l135 399h-298l-136 -403c-9.33301 -26.667 -26.333 -40 -51 -40h-42l149 443h-183c-9.33301 0 -16.166 2 -20.499 6s-6.33301 10 -6 18
s1.16602 14.667 2.49902 20s3.33301 12.666 6 21.999c0.666992 2 1 3.33301 1 4zM356.001 513h298l130 389h-298z" />
    <glyph glyph-name="dollar" unicode="$" horiz-adv-x="1050" 
d="M26 169l31.998 39.001c9.33301 10 19.333 15 30 15c4 0 8.5 -1.5 13.5 -4.5s9.16699 -6.16699 12.5 -9.5l13 -13.5l11 -11.5c76 -74 165.667 -113.667 269 -119l110 636c-41.333 13.333 -75.166 25.166 -101.499 35.499s-56 25.666 -89 45.999s-58.333 42.166 -76 65.499
s-31.667 53.666 -42 90.999s-12.5 79 -6.5 125c9.33301 78.667 38.333 146.167 87 202.5s108.667 98.833 180 127.5c52 20.667 110 32 174 34l29 168c4 21.333 15.333 32 34 32h36l-36 -201c66.667 -4.66699 123.667 -19.167 171 -43.5s90 -58.166 128 -101.499l-27 -34
c-8 -11.333 -17.333 -17 -28 -17c-8 0 -17.667 5.33301 -29 16c-62 59.333 -138 92.333 -228 99l-100 -572c5.33301 -1.33301 13 -3.66602 23 -6.99902c44.667 -14.667 78.667 -26.5 102 -35.5s53 -23.667 89 -44s62.667 -41.5 80 -63.5s31.5 -51.167 42.5 -87.5
s13.833 -77.5 8.5 -123.5c-11.333 -92.667 -43.166 -172.167 -95.499 -238.5s-118.5 -116.166 -198.5 -149.499c-56 -23.333 -118.333 -36.666 -187 -39.999l-37 -211c-1.33301 -8.66699 -4.83301 -16 -10.5 -22s-12.834 -9 -21.501 -9h-36l41 242
c-155.333 7.33301 -277.666 68.666 -366.999 183.999zM300.998 966.001c8.66699 -22.667 20.832 -43.166 36.499 -61.499s34.834 -34.166 57.501 -47.499s44 -24.333 64 -33s44.667 -18.334 74 -29.001l96 552c-72.667 -4 -135.167 -21.333 -187.5 -52
s-91.833 -71.667 -118.5 -123c-10 -19.333 -18 -40.333 -24 -63s-9.33301 -46.834 -10 -72.501s3.33301 -49.167 12 -70.5zM470.996 65.002c54 3.33301 103.17 14.1699 147.503 32.5029s82.166 42.166 113.499 71.499s57 63.666 77 102.999c10.667 22.667 19.667 47 27 73
s11.666 54.167 12.999 84.5s-3.33398 57.166 -14.001 80.499c-6 14 -13.5 27.167 -22.5 39.5s-18.167 23 -27.5 32s-21.166 18 -35.499 27s-27 16.333 -38 22s-25.333 12 -43 19s-32.334 12.5 -44.001 16.5l-46.5 16z" />
    <glyph glyph-name="percent" unicode="%" horiz-adv-x="1460" 
d="M87 0l1187 1397c10 12 23 18 39 18h67l-1188 -1397c-10 -12 -22.333 -18 -37 -18h-68zM102 1075c10 82 33.833 152 71.5 210s87.5 99 149.5 123c38.667 15.333 78.667 23 120 23c68 0 123 -18 165 -54s70.333 -85 85 -147c10 -54.667 10.833 -109.667 2.5 -165
s-22.166 -103.333 -41.499 -144c-18.667 -38 -40.834 -71.167 -66.501 -99.5s-58.667 -52 -99 -71s-84.5 -28.5 -132.5 -28.5c-94 0 -163.167 32.167 -207.5 96.5s-59.833 149.833 -46.5 256.5zM180 944c10 -49.333 30 -87.999 60 -115.999s71.333 -42 124 -42
c102 0 176.333 52.667 223 158c14.667 32 25.667 74 33 126s7.33301 97.667 0 137c-10 50 -30.167 89 -60.5 117s-71.833 42 -124.5 42c-101.333 0 -175.333 -53 -222 -159c-14.667 -32.667 -25.667 -74.834 -33 -126.501s-7.33301 -97.167 0 -136.5zM776 336.001
c10 82 33.8311 152.001 71.498 210.001s87.834 99.333 150.501 124c38 14.667 77.667 22 119 22c34.667 0 66.334 -4.83301 95.001 -14.5s53.167 -23.5 73.5 -41.5s37.166 -39.167 50.499 -63.5s23.333 -51.5 30 -81.5c10 -54.667 10.833 -109.834 2.5 -165.501
s-22.166 -103.167 -41.499 -142.5c-28.667 -60 -67.5 -108.333 -116.5 -145s-109.167 -55 -180.5 -55c-94 0 -163 32.167 -207 96.5s-59.667 149.833 -47 256.5zM853.998 205.002c20.667 -104.667 82 -157 184 -157s176.333 52.333 223 157c14 32 24.833 74 32.5 126
s7.5 98 -0.5 138c-20.667 106 -82 159 -184 159s-176.333 -53 -223 -159c-14.667 -33.333 -25.667 -75.833 -33 -127.5s-7 -97.167 1 -136.5z" />
    <glyph glyph-name="ampersand" unicode="&#x26;" horiz-adv-x="1324" 
d="M74 202c-12 31.333 -18.667 63.9971 -20 97.9971s1.66699 65.667 9 95s17.666 58.5 30.999 87.5s27.833 54.5 43.5 76.5s32.167 42.333 49.5 61c70.667 74 157.667 129.667 261 167c-40.667 53.333 -69.667 105 -87 155c-19.333 54 -24.833 106.833 -16.5 158.5
s23.666 97.334 45.999 137.001s49.5 72.834 81.5 99.501c74.667 62.667 164.667 94 270 94c68.667 0 127.667 -16.167 177 -48.5s84 -74.5 104 -126.5c14 -34.667 19.333 -70.667 16 -108c-35.333 -7.33301 -56.333 -11 -63 -11c-12 0 -19.333 7.66699 -22 23
c-8 58 -31.167 105.167 -69.5 141.5s-88.833 54.5 -151.5 54.5c-62 0 -115.5 -13.667 -160.5 -41s-80.167 -63.666 -105.5 -108.999c-69.333 -127.333 -35.666 -267 101.001 -419l392 -440c70.667 94.667 118.334 195 143.001 301c5.33301 18.667 15.333 28 30 28h55
c-19.333 -132 -78.666 -260 -177.999 -384l262 -292h-89c-14 0 -24.333 1.5 -31 4.5s-14.334 8.83301 -23.001 17.5l-180 201c-112 -113.333 -237.667 -187 -377 -221c-49.333 -12 -100.333 -18 -153 -18c-84.667 0 -157 19.667 -217 59s-102.667 92.333 -128 159z
M169 233.997c20.667 -52 54.8301 -93.667 102.497 -125s104.5 -47 170.5 -47c51.333 0 100 5.66699 146 17s87.833 27.5 125.5 48.5s71.334 43.333 101.001 67s58.834 50.834 87.501 81.501l-404 451c-3.33301 3.33301 -6.66602 7 -9.99902 11
c-94.667 -38 -170.667 -89 -228 -153c-14 -16 -27.333 -33.333 -40 -52s-24.5 -40.334 -35.5 -65.001s-19.5 -49.334 -25.5 -74.001s-8.33301 -51.167 -7 -79.5s7 -55.166 17 -80.499z" />
    <glyph glyph-name="quotesingle" unicode="'" horiz-adv-x="356" 
d="M132 970l10.002 153l36 292h83l-36 -292l-28 -153c-2.66699 -12 -6.83398 -21 -12.501 -27s-13.834 -9 -24.501 -9c-18.667 0 -28 12 -28 36z" />
    <glyph glyph-name="parenleft" unicode="(" horiz-adv-x="564" 
d="M81 403c-0.666992 81.333 3.49902 159.999 12.499 235.999s22.333 147.333 40 214s38.167 130.167 61.5 190.5s50.666 119 81.999 176s63 109.667 95 158s67.667 97.833 107 148.5l39 -26c8 -6 11.667 -12.5 11 -19.5s-4 -14.5 -10 -22.5
c-94.667 -128 -170.667 -260.667 -228 -398c-26 -61.333 -48 -124.833 -66 -190.5s-32.667 -135 -44 -208s-16.833 -149 -16.5 -228s7.16602 -156.833 20.499 -233.5c23.333 -136.667 67.333 -268.667 132 -396c4.66699 -9.33301 5.83398 -17.833 3.50098 -25.5
s-7.5 -13.5 -15.5 -17.5l-45 -26c-57.333 107.333 -101.166 213.333 -131.499 318s-46.166 221.334 -47.499 350.001z" />
    <glyph glyph-name="parenright" unicode=")" horiz-adv-x="576" 
d="M45 -196c95.333 127.333 171.673 259.334 229.006 396.001c25.333 62 47.166 125.833 65.499 191.5s33.166 135 44.499 208s16.666 149 15.999 228s-7.33398 156.833 -20.001 233.5c-24 136.667 -67.667 269 -131 397c-4.66699 8.66699 -6 16.834 -4 24.501
s7 13.5 15 17.5l45 26c57.333 -109.333 101.166 -216 131.499 -320s46.166 -220 47.499 -348c0.666992 -97.333 -5.83301 -191.333 -19.5 -282s-32 -172.834 -55 -246.501s-52.333 -146.834 -88 -219.501s-72 -137.667 -109 -195s-79.5 -117.333 -127.5 -180l-38 26
c-8.66699 5.33301 -12.667 11.833 -12 19.5s4 15.5 10 23.5z" />
    <glyph glyph-name="asterisk" unicode="*" horiz-adv-x="744" 
d="M91 1065l201.998 110c16 8.66699 36 15 60 19c-19.333 3.33301 -38 10.333 -56 21l-176 110l31 45l176 -110c5.33301 -3.33301 9.83301 -6.5 13.5 -9.5s7.33398 -6.66699 11.001 -11s6.5 -7.83301 8.5 -10.5s5.33301 -7.66699 10 -15c-6.66699 24 -9 45.667 -7 65l27 214
h52l-27 -213c-2.66699 -24 -9.66699 -45.667 -21 -65c16.667 20 34.667 35 54 45l201 109l21 -45l-202 -109c-20.667 -12 -40.667 -19 -60 -21c21.333 -4 40 -10.333 56 -19l175 -110l-31 -45l-176 110c-11.333 7.33301 -19.666 13.5 -24.999 18.5s-11.333 12.833 -18 23.5
c5.33301 -26 7.33301 -46.333 6 -61l-27 -214h-52l27 213c2 21.333 8.66699 41.333 20 60c-12 -14 -29.333 -27.333 -52 -40l-201 -109z" />
    <glyph glyph-name="plus" unicode="+" horiz-adv-x="1102" 
d="M80 634l9 73h430l55 451h78l-55 -451h431l-9 -73h-431l-56 -453h-78l56 453h-430z" />
    <glyph glyph-name="comma" unicode="," horiz-adv-x="453" 
d="M118 -202c29.333 26 55.5 56.498 78.5 91.498s38.833 71.833 47.5 110.5c-8 -2.66699 -18 -4 -30 -4c-26 0 -45.5 9.16699 -58.5 27.5s-17.667 39.333 -14 63s13.834 43.167 30.501 58.5c18 16.667 40 25 66 25c23.333 0 41.5 -6.33301 54.5 -19
s20.167 -29.167 21.5 -49.5s0.166016 -40.666 -3.50098 -60.999s-9.16699 -40.833 -16.5 -61.5c-32 -86.667 -88.333 -164 -169 -232c-6 7.33301 -10.333 12.833 -13 16.5s-4 8.83398 -4 15.501s3.33301 13 10 19z" />
    <glyph glyph-name="hyphen" unicode="-" horiz-adv-x="726" 
d="M128 553l10 81h465l-10 -81h-465z" />
    <glyph glyph-name="period" unicode="." horiz-adv-x="440" 
d="M149 142c20.667 18.667 43.6641 28 68.9971 28c32.667 0 56.834 -14 72.501 -42s14.834 -57.333 -2.49902 -88c-21.333 -36.667 -52 -55 -92 -55c-27.333 0 -48.166 9.5 -62.499 28.5s-20 41 -17 66s13.833 45.833 32.5 62.5z" />
    <glyph glyph-name="slash" unicode="/" horiz-adv-x="987" 
d="M39 -84l806 1502c13.333 24.667 33 37 59 37h41l-805 -1500c-14 -26 -34.667 -39 -62 -39h-39z" />
    <glyph glyph-name="zero" unicode="0" horiz-adv-x="1213" 
d="M98 386c-16 98 -15.168 209.5 2.49902 334.5s43.167 228.167 76.5 309.5c74 178 178.667 297.333 314 358c64.667 28.667 132 43 202 43c62.667 0 118.667 -10 168 -30s90.5 -48.5 123.5 -85.5s60 -79.167 81 -126.5s36.5 -100.333 46.5 -159
c16.667 -98 16.167 -209.5 -1.5 -334.5s-43.5 -228.167 -77.5 -309.5c-35.333 -85.333 -78.833 -158.333 -130.5 -219s-113.167 -107 -184.5 -139c-64.667 -28.667 -132 -43 -202 -43c-62 0 -117.667 10.167 -167 30.5s-90.666 48.833 -123.999 85.5s-60.333 78.667 -81 126
s-36 100.333 -46 159zM196.499 708c-26.333 -216.667 -5.83105 -381.332 61.502 -493.999c59.333 -98.667 148.666 -148 267.999 -148c120 0 221.333 49.333 304 148c43.333 52 81 118.667 113 200c28.667 72 51.167 166.333 67.5 283s18.166 218.334 5.49902 305.001
c-24 159.333 -84.333 263.666 -181 312.999c-46.667 24 -97.334 36 -152.001 36c-118.667 0 -220 -49.667 -304 -149c-95.333 -112.667 -156.166 -277.334 -182.499 -494.001z" />
    <glyph glyph-name="one" unicode="1" horiz-adv-x="829" 
d="M44 0l3.99707 32.998c2 18 14 27.667 36 29c18 0.666992 65.333 2.83398 142 6.50098s127.334 5.83398 152.001 6.50098l141 1147c2.66699 22.667 6.66699 46.667 12 72l-346 -277c-7.33301 -6 -15.666 -9 -24.999 -9c-11.333 0 -19.666 4 -24.999 12l-24 40l453 361h74
l-165 -1346c170 -8 261.667 -12.333 275 -13c21.333 -1.33301 31 -11 29 -29l-4 -33h-729z" />
    <glyph glyph-name="two" unicode="2" horiz-adv-x="1127" 
d="M44 0l4.00098 33.999c2 15.333 10 29.333 24 42l543 489l71.5 64.5l63 61c29.667 29 52 53 67 72s32.167 42.5 51.5 70.5s35.666 56 48.999 84c12 24.667 21.5 51.5 28.5 80.5s11.167 60 12.5 93s-3 63.5 -13 91.5c-17.333 54 -49 95.5 -95 124.5
s-103.333 43.5 -172 43.5c-70.667 0 -132.5 -15 -185.5 -45s-96.5 -70 -130.5 -120c-23.333 -33.333 -41 -70 -53 -110c-9.33301 -23.333 -24 -35 -44 -35c-0.666992 0 -1.66699 0.166992 -3 0.5s-2.66602 0.5 -3.99902 0.5h-3l-47 8c22 88 60.5 162.833 115.5 224.5
s123.167 105.5 204.5 131.5c52 17.333 107 26 165 26c88 0 162 -18.667 222 -56s101.667 -90 125 -158c11.333 -33.333 16.5 -69.5 15.5 -108.5s-5.5 -76.167 -13.5 -111.5s-19 -67.333 -33 -96c-7.33301 -14.667 -15.5 -29.667 -24.5 -45l-25 -41.5
c-7.66699 -12.333 -18 -26.333 -31 -42s-23 -28.167 -30 -37.5s-18.667 -22.166 -35 -38.499l-33.5 -34c-6 -6.33301 -18.5 -18.333 -37.5 -36l-35 -32.5l-38.5 -35c-21.333 -19.333 -33.333 -30.333 -36 -33l-499 -452c44 10.667 90 16 138 16h543
c3.33301 16.667 8.16602 39.167 14.499 67.5s10.5 49.5 12.5 63.5c6 32 22.333 48 49 48h49l-28 -227l-5 -42h-913z" />
    <glyph glyph-name="three" unicode="3" horiz-adv-x="1097" 
d="M43 346l39.9971 16.002c8.66699 3.33301 16.667 5 24 5c18 0 29 -8 33 -24l4 -20c36 -172 144.333 -258 325 -258c85.333 0 159.5 19.5 222.5 58.5s110.5 89.5 142.5 151.5c39.333 77.333 49.333 155 30 233c-29.333 122.667 -151.333 184 -366 184l9 69
c88.667 2 164.834 18.167 228.501 48.5s111.5 73.833 143.5 130.5c18.667 33.333 31.334 72.333 38.001 117s4 88.667 -8 132c-17.333 52 -48.5 91.833 -93.5 119.5s-101.5 41.5 -169.5 41.5c-48.667 0 -93.5 -7.16699 -134.5 -21.5s-76.5 -34.333 -106.5 -60
s-55.667 -54.667 -77 -87s-38.666 -67.833 -51.999 -106.5c-8.66699 -23.333 -22.667 -35 -42 -35c-4.66699 0 -8.33398 0.333008 -11.001 1l-48 8c24 88.667 63 163.667 117 225s121.667 105 203 131c52 17.333 107 26 165 26c57.333 0 109 -7.83301 155 -23.5
s84.833 -38.667 116.5 -69s54.834 -66.833 69.501 -109.5c17.333 -48 22.166 -96.833 14.499 -146.5s-21.167 -94 -40.5 -133s-42.333 -71.5 -69 -97.5c-56 -55.333 -127.333 -93.333 -214 -114c94.667 -18 166.834 -56 216.501 -114s68.5 -136.333 56.5 -235
c-5.33301 -46.667 -17.5 -90.334 -36.5 -131.001s-43 -76.334 -72 -107.001s-61.333 -57.5 -97 -80.5s-74.167 -41.833 -115.5 -56.5c-57.333 -20 -118.333 -30 -183 -30c-206.667 0 -335.667 77.667 -387 233c-14 43.333 -24.333 86.333 -31 129z" />
    <glyph glyph-name="four" unicode="4" horiz-adv-x="1159" 
d="M51 477l826 940h85l-114 -935h259l-7 -52c-2 -16 -12 -24 -30 -24h-232l-50 -406h-86l50 406h-667c-18 0 -28.333 8 -31 24zM156 482h606l91 741c3.33301 28 8 53 14 75z" />
    <glyph glyph-name="five" unicode="5" horiz-adv-x="1076" 
d="M41 110l33 39.002c8 10 18.333 15 31 15c8.66699 0 20.334 -5 35.001 -15c82 -54 171 -81 267 -81c46 0 89.5 5.66699 130.5 17s77.333 27.333 109 48s59.667 44.5 84 71.5s45.166 56.833 62.499 89.5c14 27.333 25.667 57.166 35 89.499s15.5 67.666 18.5 105.999
s0.166992 75.5 -8.5 111.5c-10.667 45.333 -30.334 83.5 -59.001 114.5s-65 54 -109 69s-95 22.5 -153 22.5c-80.667 0 -168 -12.667 -262 -38l-60 19l188 627h636l-5 -41c-2 -14.667 -8.33301 -26.167 -19 -34.5s-25 -12.5 -43 -12.5h-512l-143 -472
c87.333 21.333 169.333 32 246 32c53.333 0 102 -5.66699 146 -17s83.167 -28.5 117.5 -51.5s62.666 -51.167 84.999 -84.5s37.833 -73 46.5 -119s9.33398 -96.667 2.00098 -152c-13.333 -109.333 -51.666 -202.5 -114.999 -279.5s-143 -132.5 -239 -166.5
c-62 -22 -126.333 -33 -193 -33c-140 0 -257.333 42 -352 126z" />
    <glyph glyph-name="six" unicode="6" horiz-adv-x="1054" 
d="M68 450c6.66699 55.333 28.3311 117.832 64.998 187.499s92.334 147.834 167.001 234.501l450 520c13.333 15.333 31.333 23 54 23h84l-490 -551c-57.333 -64.667 -98 -114 -122 -148c94.667 86.667 205.667 130 333 130c93.333 0 170.666 -21.833 231.999 -65.5
s103 -104.167 125 -181.5c12 -40 16.833 -81.667 14.5 -125s-8.66602 -83.833 -18.999 -121.5s-24.166 -72.167 -41.499 -103.5c-44 -80 -105.5 -144.167 -184.5 -192.5s-172.5 -72.5 -280.5 -72.5c-136 0 -239 41.5 -309 124.5s-96 196.833 -78 341.5zM164.997 280.999
c16.667 -68 50.3291 -121.334 100.996 -160.001s116.667 -58 198 -58c88 0 163.667 19.5 227 58.5s112 91.167 146 156.5c20.667 40 34.834 84.833 42.501 134.5s5.5 101.167 -6.5 154.5c-17.333 64.667 -51.666 115 -102.999 151s-116.666 54 -195.999 54
c-111.333 0 -207.666 -36.667 -288.999 -110c-48.667 -43.333 -85.5 -98.666 -110.5 -165.999s-28.167 -139 -9.5 -215z" />
    <glyph glyph-name="seven" unicode="7" horiz-adv-x="1114" 
d="M88 1146l33.001 269h103h838l-5 -43c-2.66699 -19.333 -9 -36.333 -19 -51l-806 -1285c-15.333 -24 -36 -36 -62 -36h-65l810 1280c11.333 17.333 23.666 33 36.999 47h-743c-13.333 -76 -21 -120.333 -23 -133c-6 -32 -22.333 -48 -49 -48h-49z" />
    <glyph glyph-name="eight" unicode="8" horiz-adv-x="1102" 
d="M74 212c-14.667 51.333 -19.167 103.835 -13.5 157.502s18.834 101.5 39.501 143.5c58 118 162.333 193.333 313 226c-35.333 10.667 -66.833 25 -94.5 43s-52 40.167 -73 66.5s-35.833 58.5 -44.5 96.5s-10 79.667 -4 125c10 81.333 40.167 150.5 90.5 207.5
s113.166 98.833 188.499 125.5c52.667 18.667 110.667 28 174 28c90.667 0 166.834 -19.333 228.501 -58s103.5 -92.667 125.5 -162c9.33301 -35.333 14 -69.333 14 -102s-4.83301 -64.667 -14.5 -96s-21.334 -59.5 -35.001 -84.5s-29.167 -47.167 -46.5 -66.5
c-51.333 -58 -120 -99 -206 -123c43.333 -10 81.833 -24.333 115.5 -43s63.167 -42.5 88.5 -71.5s43.333 -64.833 54 -107.5s12.667 -90.334 6 -143.001c-11.333 -92 -45.333 -168.833 -102 -230.5s-128.667 -105.834 -216 -132.501c-58.667 -18 -122 -27 -190 -27
c-101.333 0 -186.5 19.5 -255.5 58.5s-116.5 95.5 -142.5 169.5zM169 246.002c12.667 -40 33.502 -73.833 62.502 -101.5s64.667 -48.667 107 -63s90.166 -21.5 143.499 -21.5c56 0 107.667 7.83301 155 23.5s87.666 37.167 120.999 64.5s61 60 83 98
c21.333 38 35.166 83.5 41.499 136.5s1.5 102.167 -14.5 147.5c-16 36 -38.5 66.5 -67.5 91.5s-63.667 43.833 -104 56.5s-85.833 19 -136.5 19c-52.667 0 -101.667 -7 -147 -21s-84.5 -33.167 -117.5 -57.5s-60.833 -53.833 -83.5 -88.5
c-11.333 -16 -21.166 -35.167 -29.499 -57.5s-15 -46 -20 -71s-7.16699 -51.333 -6.5 -79s5 -53.167 13 -76.5zM295.002 959.002c13.333 -59.333 43.833 -105.001 91.5 -137.001s108.5 -48 182.5 -48c99.333 0 180 26.667 242 80s98.667 125 110 215
c8 66.667 -1.66699 122.5 -29 167.5s-67.333 77.833 -120 98.5c-37.333 14.667 -81 22 -131 22c-75.333 0 -139.833 -15.667 -193.5 -47s-94.5 -73.666 -122.5 -126.999c-38 -72 -48 -146.667 -30 -224z" />
    <glyph glyph-name="nine" unicode="9" horiz-adv-x="1034" 
d="M99 839c-11.333 38.667 -16 78.666 -14 119.999s8 80.166 18 116.499s23.333 69.5 40 99.5c58.667 104.667 146.667 179 264 223c57.333 22 118.666 33 183.999 33c48.667 0 93.334 -6.16699 134.001 -18.5s76.167 -30.166 106.5 -53.499s55.833 -51 76.5 -83
s36 -68 46 -108c40.667 -153.333 -2 -316 -128 -488l-87 -113l-438 -544c-12 -15.333 -29.333 -23 -52 -23h-86l490 584c52.667 62.667 93 113.334 121 152.001c-41.333 -40 -90.5 -72.333 -147.5 -97s-119.167 -37 -186.5 -37c-60 0 -113.5 9.83301 -160.5 29.5
s-85.5 47.167 -115.5 82.5s-51.667 77 -65 125zM191 871.999c16.667 -62.667 49.3311 -111 97.998 -145s111 -51 187 -51c108 0 200.333 35 277 105c22 20 41.5 42.333 58.5 67s31.833 53.167 44.5 85.5s19.834 66 21.501 101s-2.16602 72.167 -11.499 111.5
c-10.667 41.333 -28.5 77.333 -53.5 108s-57.333 54.667 -97 72s-84.834 26 -135.501 26c-82 0 -153 -18.5 -213 -55.5s-106.333 -85.833 -139 -146.5c-20.667 -38 -34.667 -81.167 -42 -129.5s-5.66602 -97.833 5.00098 -148.5z" />
    <glyph glyph-name="colon" unicode=":" horiz-adv-x="471" 
d="M125 142c20.667 18.667 43.6641 28 68.9971 28c32.667 0 56.834 -14 72.501 -42s14.834 -57.333 -2.49902 -88c-21.333 -36.667 -52 -55 -92 -55c-27.333 0 -48.166 9.5 -62.499 28.5s-20 41 -17 66s13.833 45.833 32.5 62.5zM222.997 940c20.667 18 43.668 27 69.001 27
c32.667 0 56.667 -14 72 -42s14.666 -57 -2.00098 -87c-21.333 -37.333 -52.333 -56 -93 -56c-26.667 0 -47.167 9.5 -61.5 28.5s-20 41 -17 66s13.833 46.167 32.5 63.5z" />
    <glyph glyph-name="semicolon" unicode=";" horiz-adv-x="486" 
d="M92 -202c29.333 26 55.5 56.498 78.5 91.498s38.833 71.833 47.5 110.5c-8 -2.66699 -18 -4 -30 -4c-26 0 -45.5 9.16699 -58.5 27.5s-17.667 39.333 -14 63s13.834 43.167 30.501 58.5c18 16.667 40 25 66 25c23.333 0 41.5 -6.33301 54.5 -19
s20.167 -29.167 21.5 -49.5s0.166016 -40.666 -3.50098 -60.999s-9.16699 -40.5 -16.5 -60.5c-32 -87.333 -88.333 -165 -169 -233c-6 7.33301 -10.333 12.833 -13 16.5s-4 8.83398 -4 15.501s3.33301 13 10 19zM241 939.998c20.667 18 43.6699 27 69.0029 27
c32.667 0 56.667 -14 72 -42s14.666 -57 -2.00098 -87c-21.333 -37.333 -52.333 -56 -93 -56c-26.667 0 -47.334 9.5 -62.001 28.5s-20.334 41 -17.001 66s14.333 46.167 33 63.5z" />
    <glyph glyph-name="less" unicode="&#x3c;" horiz-adv-x="964" 
d="M84 651l4.99805 41l797 385l-8 -65c-0.666992 -8.66699 -3.5 -15.5 -8.5 -20.5s-12.5 -9.83301 -22.5 -14.5l-587 -280c-23.333 -11.333 -48.666 -20 -75.999 -26c27.333 -6 50.333 -14.333 69 -25l519 -281c8.66699 -4.66699 14.834 -9.5 18.501 -14.5
s5.16699 -11.833 4.5 -20.5l-8 -65z" />
    <glyph glyph-name="equal" unicode="=" horiz-adv-x="1105" 
d="M120 482l9 74h827l-9 -74h-827zM158 795l10 74h827l-10 -74h-827z" />
    <glyph glyph-name="greater" unicode="&#x3e;" horiz-adv-x="945" 
d="M67 265l8 64.999c2 14.667 12 26.334 30 35.001l589 281c22 10.667 46.667 19 74 25c-22 5.33301 -44.667 14 -68 26l-520 280c-16 9.33301 -23 21 -21 35l8 65l702 -385l-5 -41z" />
    <glyph glyph-name="question" unicode="?" horiz-adv-x="784" 
d="M70 1292c104 92.667 219 139.001 345 139.001c73.333 0 135.5 -15.667 186.5 -47s86.5 -74.333 106.5 -129c10 -28 14.667 -58.167 14 -90.5s-4.83398 -62.833 -12.501 -91.5s-17.5 -54 -29.5 -76c-35.333 -65.333 -88 -121.666 -158 -168.999
c-6 -4.66699 -19.167 -13.834 -39.5 -27.501l-43.5 -29.5c-8.66699 -6 -20.167 -14.667 -34.5 -26s-26.833 -22 -37.5 -32c-19.333 -18.667 -31 -39.334 -35 -62.001l-32 -164h-65l16 171c2.66699 20.667 9.66699 40 21 58s22.5 32 33.5 42s26.167 22.333 45.5 37l54 38
l64.5 46c19 14 36.167 28 51.5 42c62.667 59.333 98.667 127 108 203c8.66699 70.667 -9.16602 126.5 -53.499 167.5s-103.5 61.5 -177.5 61.5c-96 0 -182.333 -32 -259 -96c-14 -11.333 -23.333 -17 -28 -17c-10 0 -17 4 -21 12zM157 143.001
c20.667 18 43.6641 27 68.9971 27c32.667 0 56.834 -14 72.501 -42s14.834 -57 -2.49902 -87c-21.333 -37.333 -52 -56 -92 -56c-27.333 0 -48.166 9.5 -62.499 28.5s-20 41 -17 66s13.833 46.167 32.5 63.5z" />
    <glyph glyph-name="at" unicode="@" horiz-adv-x="1612" 
d="M101 215c-21.333 72 -30.667 147.669 -28 227.002s13.334 154.5 32.001 225.5s43 134.833 73 191.5c50 93.333 113.167 175.333 189.5 246s163.166 126.334 260.499 167.001c95.333 39.333 194.666 59 297.999 59c98 0 186.5 -15.167 265.5 -45.5s144.667 -73 197 -128
s91.5 -120.5 117.5 -196.5c23.333 -77.333 31.333 -160.333 24 -249s-26 -166.334 -56 -233.001c-53.333 -120.667 -129.666 -205.667 -228.999 -255c-48 -24 -97.667 -36 -149 -36c-58 0 -100.167 15.167 -126.5 45.5s-36.5 75.166 -30.5 134.499
c-45.333 -62 -93.166 -106.833 -143.499 -134.5s-102.833 -41.5 -157.5 -41.5c-69.333 0 -120.333 22.667 -153 68s-44.334 106.666 -35.001 183.999c8 62.667 27 122 57 178s67 105 111 147c47.333 46 103 83.167 167 111.5s134.667 42.5 212 42.5
c71.333 0 131 -11.667 179 -35l-134 -347c-22.667 -59.333 -36.334 -108.666 -41.001 -147.999c-6 -48 0.333008 -83.667 19 -107s50.667 -35 96 -35c78.667 0 150.667 38.333 216 115c33.333 40 61.833 91.5 85.5 154.5s38.667 131 45 204s-1.16699 143.5 -22.5 211.5
c-33.333 106 -94.833 187.333 -184.5 244s-202.167 85 -337.5 85c-98 0 -189.167 -18.5 -273.5 -55.5s-159.5 -85.5 -225.5 -145.5c-69.333 -63.333 -127.666 -138.833 -174.999 -226.5s-77.333 -183.834 -90 -288.501c-20.667 -171.333 1 -314.333 65 -429
s160.333 -196 289 -244c82.667 -31.333 172.667 -47 270 -47c192 0 361.667 44.333 509 133c5.33301 3.33301 11.333 5 18 5c9.33301 0 15.333 -4.66699 18 -14l10 -37c-168 -102.667 -356 -154 -564 -154c-174 0 -318.5 40 -433.5 120s-193.167 191 -234.5 333z
M527.999 446.002c-4 -36.667 -2 -69 6 -97s23.167 -50.167 45.5 -66.5s50.5 -24.5 84.5 -24.5c36 0 69.333 7 100 21s55.5 30.333 74.5 49s38.5 42.334 58.5 71.001c24.667 35.333 47.334 80.666 68.001 135.999l118 310c-30.667 9.33301 -66.334 14 -107.001 14
c-115.333 0 -217 -44 -305 -132c-36.667 -37.333 -68 -80 -94 -128s-42.333 -99 -49 -153z" />
    <glyph glyph-name="A" unicode="A" 
d="M36 0l6.00195 46.0039c2.66699 24 17 37.333 43 40l66 7l703 1322h102l379 -1322l64 -7c25.333 -2.66699 36.333 -16 33 -40l-5 -46h-345l5 46c1.33301 7.33301 3.66602 13.666 6.99902 18.999s8.16602 9.5 14.499 12.5s12.666 5.5 18.999 7.5s14.333 3.5 24 4.5
s18.167 1.66699 25.5 2s16.5 0.5 27.5 0.5s19.5 0.333008 25.5 1l-47 165l-58 206h-674l-62.5 -118.5l-71.5 -135.5l-62 -117c10 -0.666992 20.667 -1.33398 32 -2.00098s22 -1.33398 32 -2.00098s19 -1.33398 27 -2.00098c30.667 -1.33301 44.334 -15 41.001 -41l-6 -46
h-345zM491.002 540.004h613l-194 689c-5.33301 19.333 -11 47.333 -17 84c-14.667 -34.667 -27.667 -63 -39 -85z" />
    <glyph glyph-name="B" unicode="B" horiz-adv-x="1279" 
d="M34 0l4.99902 39.9941c0.666992 5.33301 2 10 4 14s4.5 7.16699 7.5 9.5s6.83301 4.5 11.5 6.5s9.16699 3.33301 13.5 4s9.83301 1.33398 16.5 2.00098s12.334 1 17.001 1h18.5h19.5c19.333 0.666992 41 1.33398 65 2.00098l154 1256
c-12.667 0.666992 -33.667 1.5 -63 2.5s-51 1.83301 -65 2.5c-26 1.33301 -37.667 13 -35 35l5 40h575c45.333 0 87 -2.5 125 -7.5s74.333 -13 109 -24s64.667 -26 90 -45s47 -41.5 65 -67.5s30.167 -57.167 36.5 -93.5s6.83301 -77.166 1.5 -122.499
c-8 -62.667 -30 -117.5 -66 -164.5s-81 -85.833 -135 -116.5c-38 -21.333 -81 -37.666 -129 -48.999c50 -7.33301 94.167 -19.166 132.5 -35.499s72 -37.833 101 -64.5s49.833 -60.167 62.5 -100.5s16 -86.166 10 -137.499c-15.333 -126 -69.5 -222 -162.5 -288
s-213.833 -99 -362.5 -99h-627zM314.999 81.9941h355c120 0 216 26 288 78s114 128.333 126 229c6 50 1.5 94 -13.5 132s-38.5 68.167 -70.5 90.5s-69.5 39 -112.5 50s-90.833 16.5 -143.5 16.5h-356zM396.999 752.994l307.001 -0.000976562c88.667 0 164.667 16 228 48
s110.333 77.333 141 136c18.667 34.667 30.334 70.334 35.001 107.001c6 52.667 2.66699 97.834 -10 135.501s-34.334 67.667 -65.001 90s-67.334 38.666 -110.001 48.999s-92.667 15.5 -150 15.5h-305z" />
    <glyph glyph-name="C" unicode="C" horiz-adv-x="1310" 
d="M87 410c-16.667 68 -23.168 138.501 -19.501 211.501s13.667 141.667 30 206s37.5 122.5 63.5 174.5c44 87.333 100.333 163 169 227s148.334 113.667 239.001 149c88.667 35.333 184.334 53 287.001 53c132.667 0 279.334 -33.667 440.001 -101l-39 -320h-49
c-27.333 0 -39.666 16.333 -36.999 49c1.33301 15.333 6.66602 87.333 15.999 216c-98.667 45.333 -212.334 68 -341.001 68c-174 0 -322 -57.333 -444 -172c-59.333 -55.333 -108.333 -122.333 -147 -201s-63.667 -166 -75 -262c-18 -146 -3.16699 -270 44.5 -372
s122.167 -175.667 223.5 -221c66 -28.667 139.333 -43 220 -43c96.667 0 179 13.167 247 39.5s133 65.5 195 117.5c8 6 15 9 21 9c6.66699 0 12 -2.33301 16 -7l35 -43c-68.667 -64.667 -145.834 -114.834 -231.501 -150.501s-185.5 -53.5 -299.5 -53.5
c-152 0 -276 38 -372 114s-160 180 -192 312z" />
    <glyph glyph-name="D" unicode="D" horiz-adv-x="1526" 
d="M33 0l5 39.9971c0.666992 5.33301 2 10 4 14s4.5 7.16699 7.5 9.5s6.83301 4.5 11.5 6.5s9.16699 3.33301 13.5 4s9.83301 1.33398 16.5 2.00098s12.334 1 17.001 1h18.5h19.5c19.333 0.666992 41 1.66699 65 3l154 1255c-11.333 0.666992 -25.333 1.33398 -42 2.00098
s-32.334 1.16699 -47.001 1.5s-27.667 0.833008 -39 1.5c-26 1.33301 -37.667 13 -35 35l5 40h659c155.333 0 282 -36.333 380 -109s163.333 -174 196 -304c16.667 -66.667 23.167 -136.5 19.5 -209.5s-13.667 -141.667 -30 -206s-37.166 -122.166 -62.499 -173.499
c-87.333 -176 -219 -297.333 -395 -364c-86.667 -32.667 -180.334 -49 -281.001 -49h-660zM315 82.9971l387.999 -0.000976562c71.333 0 137.5 9 198.5 27s114.833 43.5 161.5 76.5s87.334 70.833 122.001 113.5s64.667 90.334 90 143.001c21.333 44.667 39 96.167 53 154.5
s23 120.5 27 186.5s-1 128.667 -15 188c-17.333 75.333 -46.5 139.5 -87.5 192.5s-95.167 94.167 -162.5 123.5s-145.333 44 -234 44h-388z" />
    <glyph glyph-name="E" unicode="E" horiz-adv-x="1244" 
d="M33 0l5.00098 40.001c0.666992 5.33301 2 10 4 14s4.5 7.16699 7.5 9.5s6.83301 4.5 11.5 6.5s9.16699 3.33301 13.5 4s9.83301 1.33398 16.5 2.00098s12.334 1 17.001 1h18.5h18.5c20 0.666992 42 1.66699 66 3l154 1256c-11.333 0 -31.833 0.5 -61.5 1.5
s-51.834 1.83301 -66.501 2.5c-26 1.33301 -37.667 13 -35 35l5 40h168h848l-18 -146.5l-18 -146.5h-48c-27.333 0 -40 16 -38 48l12 160h-645l-70 -572h563l-11 -83h-563l-72 -590h645c18 105.333 27.333 158.666 28 159.999c5.33301 32 21.666 48 48.999 48h48l-11 -92.5
l-13 -108.5c-4 -32.667 -8 -63.334 -12 -92.001h-1016z" />
    <glyph glyph-name="F" unicode="F" horiz-adv-x="1258" 
d="M33 0l5.00098 40.002c0.666992 6 2.16699 11.167 4.5 15.5s5.83301 7.83301 10.5 10.5s9.16699 4.66699 13.5 6s10.166 2.33301 17.499 3s13.5 1.16699 18.5 1.5s12.167 0.5 21.5 0.5h22c20 0.666992 41.667 1.66699 65 3l154 1256
c-9.33301 0 -20.166 0.166992 -32.499 0.5s-23.333 0.666016 -33 0.999023s-20.334 0.666016 -32.001 0.999023s-21.834 0.833008 -30.501 1.5c-26 1.33301 -37.667 13 -35 35l5 39h1016h13l-36 -292h-49c-26.667 0 -39 16 -37 48c0.666992 10 4.66699 63.333 12 160h-658
l-73 -595h528l-10 -85h-529l-70 -570c12 -0.666992 32.833 -1.5 62.5 -2.5s51.834 -1.83301 66.501 -2.5c26 -1.33301 37.667 -13 35 -35l-5 -40h-440z" />
    <glyph glyph-name="G" unicode="G" horiz-adv-x="1393" 
d="M88 410c-17.333 67.333 -24.167 137.999 -20.5 211.999s13.667 143.333 30 208s37.5 123.334 63.5 176.001c90 180 227 304.333 411 373c92 34.667 192.333 52 301 52c48 0 103.833 -5 167.5 -15s124.167 -22.833 181.5 -38.5s103 -31.5 137 -47.5l-39 -320h-49
c-27.333 0 -39.666 16.333 -36.999 49c1.33301 14 6.66602 85.667 15.999 215c-92.667 46 -222.667 69 -390 69c-60.667 0 -117.834 -6.16699 -171.501 -18.5s-102.167 -29.333 -145.5 -51s-83.333 -48 -120 -79s-68.667 -64.833 -96 -101.5s-51.333 -76.667 -72 -120
c-22.667 -46 -41.167 -98.333 -55.5 -157s-23.166 -121.167 -26.499 -187.5s2.33398 -129.5 17.001 -189.5c27.333 -116.667 83.5 -207.834 168.5 -273.501s195.5 -98.5 331.5 -98.5c90.667 0 170.667 9.66699 240 29s139.333 48 210 86l47 381h-272
c-6.66699 0 -12.5 2.16699 -17.5 6.5s-6.83301 9.83301 -5.5 16.5l6 56h391l-61 -503c-78.667 -50 -162.334 -88.333 -251.001 -115s-190 -40 -304 -40c-156.667 0 -285 37.833 -385 113.5s-166.667 179.834 -200 312.501z" />
    <glyph glyph-name="H" unicode="H" horiz-adv-x="1654" 
d="M33 0l4.99414 39.999c0.666992 5.33301 2 10 4 14s4.5 7.16699 7.5 9.5s6.83301 4.5 11.5 6.5s9.16699 3.33301 13.5 4s9.83301 1.33398 16.5 2.00098s12.334 1 17.001 1h18.5h18.5c20.667 0.666992 42.667 1.66699 66 3l154 1255
c-11.333 0.666992 -31.833 1.5 -61.5 2.5s-51.834 1.83301 -66.501 2.5c-26 1.33301 -37.667 13 -35 35l5 40h439l-4 -40c-1.33301 -6 -3.16602 -11.167 -5.49902 -15.5s-5.66602 -7.83301 -9.99902 -10.5s-8.66602 -4.66699 -12.999 -6s-10.166 -2.33301 -17.499 -3
s-13.666 -1.16699 -18.999 -1.5s-12.5 -0.5 -21.5 -0.5h-21.5c-18 -0.666992 -40 -1.66699 -66 -3l-71 -580h886l71 580c-12 0.666992 -32.667 1.5 -62 2.5s-51.333 1.83301 -66 2.5c-26 1.33301 -37.667 13 -35 35l5 40h440l-5 -40
c-0.666992 -6 -2.16699 -11.167 -4.5 -15.5s-5.83301 -7.83301 -10.5 -10.5s-9.16699 -4.66699 -13.5 -6s-10.166 -2.33301 -17.499 -3s-13.666 -1.16699 -18.999 -1.5s-12.5 -0.5 -21.5 -0.5h-21.5c-19.333 -0.666992 -41.333 -1.66699 -66 -3l-154 -1255
c12 -0.666992 32.833 -1.5 62.5 -2.5s51.5 -1.83301 65.5 -2.5c26.667 -1.33301 38.667 -13 36 -35l-5 -40h-440l5 40c0.666992 6 2.16699 11.167 4.5 15.5s5.83301 7.83301 10.5 10.5s9.16699 4.66699 13.5 6s10.166 2.33301 17.499 3s13.5 1.16699 18.5 1.5
s12.167 0.5 21.5 0.5h21c20.667 0.666992 42.667 1.66699 66 3l74 598h-886l-74 -598c12 -0.666992 32.833 -1.5 62.5 -2.5s51.5 -1.83301 65.5 -2.5c26.667 -1.33301 38.667 -13 36 -35l-5 -40h-440z" />
    <glyph glyph-name="I" unicode="I" horiz-adv-x="665" 
d="M33 0l4.99902 40.001c0.666992 6 2.16699 11.167 4.5 15.5s5.83301 7.83301 10.5 10.5s9.16699 4.66699 13.5 6s10.166 2.33301 17.499 3s13.5 1.16699 18.5 1.5s12.167 0.5 21.5 0.5h21c20.667 0.666992 42.667 1.66699 66 3l154 1256c-11.333 0 -31.833 0.5 -61.5 1.5
s-51.834 1.83301 -66.501 2.5c-26 1.33301 -37.667 13 -35 35l5 40h440l-5 -40c-0.666992 -6 -2.16699 -11.167 -4.5 -15.5s-5.83301 -7.83301 -10.5 -10.5s-9.16699 -4.66699 -13.5 -6s-10.166 -2.33301 -17.499 -3s-13.666 -1.16699 -18.999 -1.5s-12.5 -0.5 -21.5 -0.5
h-21.5c-18 -0.666992 -40 -1.33398 -66 -2.00098l-154 -1256c12 -0.666992 32.833 -1.5 62.5 -2.5s51.834 -1.83301 66.501 -2.5c26 -1.33301 37.667 -13 35 -35l-5 -40h-440z" />
    <glyph glyph-name="J" unicode="J" horiz-adv-x="1006" 
d="M38 13c1.33301 4 2.66895 10.333 4.00195 19s2.66602 15.834 3.99902 21.501s3.33301 11.834 6 18.501s6.33398 11.667 11.001 15s10.667 5 18 5c4.66699 0 9.66699 -0.5 15 -1.5s11.5 -2.66699 18.5 -5s12.5 -3.83301 16.5 -4.5c31.333 -7.33301 61.666 -11 90.999 -11
c60 0 113 10.167 159 30.5s83.667 49 113 86s52.5 78.833 69.5 125.5s29.167 99.334 36.5 158.001l106 866c-14 0 -37.5 0.5 -70.5 1.5s-56.833 1.83301 -71.5 2.5c-26.667 1.33301 -38.667 13 -36 35l5 40h286h169l-5 -40c-0.666992 -5.33301 -2.16699 -10 -4.5 -14
s-4.83301 -7.16699 -7.5 -9.5s-6.5 -4.5 -11.5 -6.5s-9.5 -3.33301 -13.5 -4s-9.33301 -1.33398 -16 -2.00098s-12.334 -1 -17.001 -1h-19h-19c-20 -0.666992 -42 -1.33398 -66 -2.00098l-106 -864c-14 -114 -46.167 -210.333 -96.5 -289s-118.833 -134.334 -205.5 -167.001
c-55.333 -21.333 -115.666 -32 -180.999 -32c-60.667 0 -121.334 9.66699 -182.001 29z" />
    <glyph glyph-name="K" unicode="K" horiz-adv-x="1437" 
d="M33 0l4.99414 39.999c0.666992 5.33301 2 10 4 14s4.5 7.16699 7.5 9.5s6.83301 4.5 11.5 6.5s9.16699 3.33301 13.5 4s9.83301 1.33398 16.5 2.00098s12.334 1 17.001 1h18.5h18.5l66 2l155 1258c-12 0.666992 -32.833 1.5 -62.5 2.5s-51.834 1.83301 -66.501 2.5
c-26 1.33301 -37.667 13 -35 35l5 40h439l-5 -40c-0.666992 -6 -2.16699 -11.167 -4.5 -15.5s-5.83301 -7.83301 -10.5 -10.5s-9.16699 -4.66699 -13.5 -6s-10.166 -2.33301 -17.499 -3s-13.5 -1.16699 -18.5 -1.5s-12.167 -0.5 -21.5 -0.5h-22
c-18.667 -0.666992 -40.334 -1.66699 -65.001 -3l-71 -575h84c24.667 0 44.834 2.83301 60.501 8.5s30.834 15.167 45.501 28.5l590 539c-8 0 -30.167 0.166992 -66.5 0.5s-61.833 0.833008 -76.5 1.5c-26.667 1.33301 -38.667 13 -36 35l5 40h415l-5 -40
c-0.666992 -6.66699 -3.16699 -12.5 -7.5 -17.5s-9 -8.83301 -14 -11.5s-12.167 -4.66699 -21.5 -6s-17.166 -2 -23.499 -2h-27c-11.667 0 -20.167 -0.333008 -25.5 -1l-611 -557c-10 -9.33301 -17.833 -16.333 -23.5 -21s-12.667 -9.5 -21 -14.5s-17.5 -9.5 -27.5 -13.5
c23.333 -6.66699 45 -23.667 65 -51l503 -602c10 -0.666992 20.333 -0.833984 31 -0.500977s21 0.166016 31 -0.500977s19 -2 27 -4s14.167 -5.83301 18.5 -11.5s5.83301 -12.834 4.5 -21.501l-4 -40h-425l5 40c0.666992 6.66699 2.5 12.167 5.5 16.5
s7.16699 7.83301 12.5 10.5s10.833 4.83398 16.5 6.50098s12.834 2.66699 21.501 3s16.334 0.5 23.001 0.5s15 -0.166992 25 -0.5s18 -0.5 24 -0.5c24.667 0.666992 47 1 67 1l-481 562c-14 16 -28 27.167 -42 33.5s-34.333 9.5 -61 9.5h-91l-74 -603
c9.33301 0 20.333 -0.166992 33 -0.5s23.834 -0.666016 33.501 -0.999023s20.167 -0.666016 31.5 -0.999023s21.333 -0.833008 30 -1.5c26.667 -1.33301 38.667 -13 36 -35l-5 -40h-439z" />
    <glyph glyph-name="L" unicode="L" horiz-adv-x="1113" 
d="M33 0l4.99609 39.9951c0.666992 5.33301 2 10 4 14s4.5 7.16699 7.5 9.5s6.83301 4.5 11.5 6.5s9.16699 3.33301 13.5 4s9.83301 1.33398 16.5 2.00098s12.334 1 17.001 1h18.5h18.5c20 0.666992 42 1.33398 66 2.00098l154 1256c-11.333 0.666992 -31.833 1.5 -61.5 2.5
s-51.834 1.83301 -66.501 2.5c-26 1.33301 -37.667 13 -35 35l5 40h438l-4 -40c-1.33301 -6 -3.16602 -11.167 -5.49902 -15.5s-5.66602 -7.83301 -9.99902 -10.5s-8.66602 -4.66699 -12.999 -6s-10.166 -2.33301 -17.499 -3s-13.666 -1.16699 -18.999 -1.5
s-12.5 -0.5 -21.5 -0.5h-21.5c-17.333 -0.666992 -39.333 -1.66699 -66 -3l-153 -1248h586c2.66699 17.333 7.16699 39.833 13.5 67.5s10.5 47.834 12.5 60.501c5.33301 32.667 21.666 49 48.999 49h10h39c-3.33301 -25.333 -8 -63.166 -14 -113.499
s-10.667 -88.166 -14 -113.499l-5 -37h-958z" />
    <glyph glyph-name="M" unicode="M" horiz-adv-x="1960" 
d="M33 0l4.99902 40.0049c0.666992 6 2.16699 11.167 4.5 15.5s5.83301 7.83301 10.5 10.5s9.16699 4.66699 13.5 6s10.166 2.33301 17.499 3s13.5 1.16699 18.5 1.5s12.167 0.5 21.5 0.5h21c20 0.666992 42 1.66699 66 3l154 1255c-11.333 0.666992 -31.833 1.5 -61.5 2.5
s-51.834 1.83301 -66.501 2.5c-26 1.33301 -37.667 13 -35 35l5 40h238c11.333 0 19.333 -1.16699 24 -3.5s9 -7.5 13 -15.5l450 -984c8 -18.667 14.333 -38.667 19 -60c13.333 26.667 24.666 47 33.999 61l677 983c6 8 11.333 13.167 16 15.5s12.667 3.5 24 3.5h240l-5 -40
c-0.666992 -6 -2.16699 -11.167 -4.5 -15.5s-5.83301 -7.83301 -10.5 -10.5s-9.16699 -4.66699 -13.5 -6s-10.166 -2.33301 -17.499 -3s-13.666 -1.16699 -18.999 -1.5s-12.5 -0.5 -21.5 -0.5h-21.5c-16 -0.666992 -38 -1.66699 -66 -3l-154 -1255
c12 -0.666992 26.167 -1.33398 42.5 -2.00098s32 -1.16699 47 -1.5s27.833 -0.833008 38.5 -1.5c26.667 -1.33301 38.667 -13 36 -35l-5 -40h-431l4 40c1.33301 6.66699 3.83301 12.5 7.5 17.5s7.66699 8.66699 12 11s10.833 4.16602 19.5 5.49902
s15.834 2.16602 21.501 2.49902s14.167 0.5 25.5 0.5h25c20.667 0.666992 43 1.66699 67 3l139 1126c2 17.333 5 35.666 9 54.999l-678 -989c-11.333 -17.333 -25.666 -26 -42.999 -26h-16c-16.667 0 -29 8.66699 -37 26l-451 990c0 -19.333 -1 -38 -3 -56l-139 -1126
c12 -0.666992 26.5 -1.33398 43.5 -2.00098s33.333 -1.16699 49 -1.5s29.167 -0.833008 40.5 -1.5c26 -1.33301 37.667 -13 35 -35l-5 -40h-430z" />
    <glyph glyph-name="N" unicode="N" horiz-adv-x="1654" 
d="M33 0l4.99219 40.001c0.666992 6 2.16699 11.167 4.5 15.5s5.83301 7.83301 10.5 10.5s9.16699 4.66699 13.5 6s10.166 2.33301 17.499 3s13.5 1.16699 18.5 1.5s12.167 0.5 21.5 0.5h21c20.667 0.666992 42.667 1.66699 66 3l154 1256c-11.333 0 -31.833 0.5 -61.5 1.5
s-51.834 1.83301 -66.501 2.5c-26 1.33301 -37.667 13 -35 35l5 40h218c10.667 0 18.334 -1.33301 23.001 -4s9.33398 -7.66699 14.001 -15l765 -1226c0.666992 20 2 39.333 4 58l136 1108c-11.333 0 -25.666 0.333008 -42.999 1s-33.666 1.16699 -48.999 1.5
s-28.666 0.833008 -39.999 1.5c-26.667 1.33301 -38.667 13 -36 35l5 40h263h169l-5 -40c-0.666992 -6 -2.33398 -11.167 -5.00098 -15.5s-6.16699 -7.83301 -10.5 -10.5s-8.66602 -4.66699 -12.999 -6s-10.166 -2.33301 -17.499 -3s-13.666 -1.16699 -18.999 -1.5
s-12.5 -0.5 -21.5 -0.5h-21.5c-20 -0.666992 -42 -1.33398 -66 -2.00098l-164 -1336h-49c-15.333 0 -26.666 6.66699 -33.999 20l-769 1228c-0.666992 -20 -2 -39 -4 -57l-137 -1111c12.667 -0.666992 34.334 -1.5 65.001 -2.5s53.334 -1.83301 68.001 -2.5
c26 -1.33301 37.667 -13 35 -35l-5 -40h-430z" />
    <glyph glyph-name="O" unicode="O" horiz-adv-x="1495" 
d="M88 410c-17.333 68 -24.167 138.667 -20.5 212s13.667 142.333 30 207s37.5 123 63.5 175c88 179.333 220.333 304.333 397 375c86.667 34.667 179.667 52 279 52c154.667 0 280.834 -38 378.501 -114s162.834 -180.333 195.501 -313
c16.667 -67.333 23 -137.833 19 -211.5s-14 -142.667 -30 -207s-36.667 -122.833 -62 -175.5c-88 -179.333 -220.333 -304 -397 -374c-86.667 -34 -180.334 -51 -281.001 -51c-153.333 0 -278.833 38 -376.5 114s-162.834 179.667 -195.501 311zM179.999 708
c-18 -146.667 -3.66602 -270.831 43.001 -372.498s121 -174.5 223 -218.5c66 -28.667 141 -43 225 -43c71.333 0 137.833 9.33301 199.5 28s115.667 45 162 79s86.833 72.5 121.5 115.5s64.667 91.5 90 145.5c21.333 45.333 39.166 97.166 53.499 155.499
s23.333 120.666 27 186.999s-1.5 129.5 -15.5 189.5c-26 116 -79.667 206.5 -161 271.5s-188.333 97.5 -321 97.5c-170 0 -314 -56.333 -432 -169c-57.333 -55.333 -104.5 -122.5 -141.5 -201.5s-61.5 -167.167 -73.5 -264.5z" />
    <glyph glyph-name="P" unicode="P" horiz-adv-x="1209" 
d="M33 0l5.00098 40.001c0.666992 6 2.16699 11.167 4.5 15.5s5.83301 7.83301 10.5 10.5s9.16699 4.66699 13.5 6s10.166 2.33301 17.499 3s13.5 1.16699 18.5 1.5s12.167 0.5 21.5 0.5h21c20.667 0.666992 42.667 1.66699 66 3l154 1255
c-11.333 0.666992 -31.833 1.5 -61.5 2.5s-51.834 1.83301 -66.501 2.5c-26 1.33301 -37.667 13 -35 35l5 40h513c76 0 143.333 -8.16699 202 -24.5s108.334 -41 149.001 -74s69.5 -76.667 86.5 -131s21.167 -117.833 12.5 -190.5c-8 -66.667 -28 -126.667 -60 -180
s-71.5 -97.333 -118.5 -132s-100.833 -61.667 -161.5 -81c-64.667 -21.333 -136 -32 -214 -32h-243l-60 -490c12 -0.666992 26.167 -1.33398 42.5 -2.00098s32 -1.16699 47 -1.5s27.833 -0.833008 38.5 -1.5c26.667 -1.33301 38.667 -13 36 -35l-5 -40h-439z
M384.001 652.001l242.001 -0.00195312c93.333 0 174 18.333 242 55s120 87.334 156 152.001c23.333 41.333 38 86.666 44 135.999c7.33301 58.667 4.16602 109.834 -9.50098 153.501s-36.5 78.834 -68.5 105.501s-71.333 46.667 -118 60s-100.667 20 -162 20h-243z" />
    <glyph glyph-name="Q" unicode="Q" horiz-adv-x="1494" 
d="M87 410c-17.333 68 -24.168 138.667 -20.501 212s13.667 142.333 30 207s37.5 123 63.5 175c88 179.333 220.333 304.333 397 375c86.667 34.667 179.667 52 279 52c154.667 0 280.834 -38 378.501 -114s162.834 -180.333 195.501 -313
c14 -62.667 20.833 -124.834 20.5 -186.501s-7 -122.667 -20 -183s-29.5 -115.833 -49.5 -166.5s-42.333 -96 -67 -136c-66.667 -105.333 -152.667 -188.666 -258 -249.999l319 -394h-86c-28 0 -48.333 8.33301 -61 25l-262 326c-91.333 -36 -187 -54 -287 -54
c-153.333 0 -278.833 38 -376.5 114s-162.834 179.667 -195.501 311zM178.998 708c-18 -146.667 -3.66602 -270.832 43.001 -372.499s121 -174.5 223 -218.5c66 -28.667 141 -43 225 -43c71.333 0 137.833 9.33301 199.5 28s115.667 45 162 79s86.833 72.5 121.5 115.5
s64.667 91.167 90 144.5c21.333 46 39.166 98.167 53.499 156.5s23.333 120.666 27 186.999s-1.5 129.5 -15.5 189.5c-26 116 -79.667 206.5 -161 271.5s-188.333 97.5 -321 97.5c-170 0 -314 -56.333 -432 -169c-57.333 -55.333 -104.5 -122.5 -141.5 -201.5
s-61.5 -167.167 -73.5 -264.5z" />
    <glyph glyph-name="R" unicode="R" horiz-adv-x="1289" 
d="M33 0l5.00098 39.999c0.666992 6 2.16699 11.167 4.5 15.5s5.83301 7.83301 10.5 10.5s9.16699 4.66699 13.5 6s10.166 2.33301 17.499 3s13.5 1.16699 18.5 1.5s12.167 0.5 21.5 0.5h21c21.333 0.666992 43.333 1.66699 66 3l154 1256c-11.333 0 -25.333 0.333008 -42 1
s-32.334 1.16699 -47.001 1.5s-27.667 0.833008 -39 1.5c-26 1.33301 -37.667 13 -35 35l5 40h512c58.667 0 111.667 -4 159 -12s90.333 -21.167 129 -39.5s70.334 -41.666 95.001 -69.999s42.167 -63.666 52.5 -105.999s12.166 -90.5 5.49902 -144.5
c-10 -84.667 -39.667 -156 -89 -214s-112.333 -102.667 -189 -134c-52 -22 -109.333 -36.333 -172 -43c14.667 -10 27.334 -23.333 38.001 -40l360 -534c10 -0.666992 20.167 -0.833984 30.5 -0.500977s20.5 0 30.5 -1s18.833 -2.5 26.5 -4.5s13.5 -5.66699 17.5 -11
s5.66699 -12.333 5 -21l-5 -40h-142c-20 0 -35.667 8.66699 -47 26l-382 574c-10.667 16 -22.167 26.667 -34.5 32s-31.5 8 -57.5 8h-168l-69 -560c12 -0.666992 32.833 -1.5 62.5 -2.5s51.5 -1.83301 65.5 -2.5c26.667 -1.33301 38.667 -13 36 -35l-5 -40h-439z
M391.001 715.999l228.999 0.000976562c94 0 174.833 16.333 242.5 49s118.834 79 153.501 139c22.667 39.333 37 83.666 43 132.999c6.66699 54 3 100.5 -11 139.5s-37.333 69.833 -70 92.5s-71 39.167 -115 49.5s-95.333 15.5 -154 15.5h-242z" />
    <glyph glyph-name="S" unicode="S" horiz-adv-x="1037" 
d="M43 61l2.99707 26.498c1.33301 11.667 2.33301 20.167 3 25.5l33 266h49c12.667 0 21.834 -3.5 27.501 -10.5s8.5 -16.167 8.5 -27.5s-0.333008 -24.333 -1 -39c0 -0.666992 -0.166992 -1.5 -0.5 -2.5s-0.5 -2 -0.5 -3v-2.5l-12 -170c72 -36.667 163.333 -55 274 -55
c84.667 0 157.334 18 218.001 54s106.667 84.667 138 146c12.667 23.333 22.834 49 30.501 77s11.667 58.333 12 91s-5.5 61 -17.5 85c-5.33301 10 -11.666 19.667 -18.999 29s-14.166 17.666 -20.499 24.999s-15.5 15 -27.5 23s-21.167 14.333 -27.5 19
s-17.333 10.5 -33 17.5l-32 14.5c-5.66699 2.66699 -17.667 7.33398 -36 14.001l-34 12.5c-4.33301 1.66699 -17 5.83398 -38 12.501s-32.833 10.334 -35.5 11.001c-41.333 13.333 -75.166 25.333 -101.499 36s-55.666 26.167 -87.999 46.5s-57.166 42.333 -74.499 66
s-30.833 54.167 -40.5 91.5s-11.834 79.333 -6.50098 126c10 80.667 40 149.5 90 206.5s112 99.5 186 127.5c54 20.667 113.667 31 179 31c117.333 0 235.666 -27.333 354.999 -82l-36 -290h-48c-27.333 0 -39.666 16 -36.999 48c0.666992 10.667 5 73.334 13 188.001
c-76 34 -161.667 51 -257 51c-50.667 0 -96.834 -7.16699 -138.501 -21.5s-77 -34 -106 -59s-52.833 -54.833 -71.5 -89.5c-10.667 -20.667 -19.334 -43.834 -26.001 -69.501s-9.66699 -52.667 -9 -81s6.66699 -52.833 18 -73.5c30.667 -58 90 -103 178 -135
c18 -7.33301 43.833 -16.5 77.5 -27.5l82 -27.5c21 -7.33301 46.5 -17.5 76.5 -30.5s54.167 -25.5 72.5 -37.5s37.666 -27.667 57.999 -47s35.666 -39.666 45.999 -60.999s18 -46.833 23 -76.5s5.16699 -61.834 0.5 -96.501c-12 -96 -45.5 -177.833 -100.5 -245.5
s-124.5 -117.5 -208.5 -149.5c-59.333 -22.667 -125 -34 -197 -34c-131.333 0 -255 25.667 -371 77z" />
    <glyph glyph-name="T" unicode="T" horiz-adv-x="1240" 
d="M55 1121l36.002 294h1113h14l-36 -294h-49c-26.667 0 -39 16.333 -37 49c0.666992 3.33301 4.66699 56 12 158h-412l-153 -1248c12 -0.666992 32.667 -1.5 62 -2.5s51.333 -1.83301 66 -2.5c26 -1.33301 37.667 -13 35 -35l-5 -40h-439l5 40
c0.666992 6 2.33398 11.167 5.00098 15.5s6.16699 7.83301 10.5 10.5s8.66602 4.66699 12.999 6s10.166 2.33301 17.499 3s13.666 1.16699 18.999 1.5s12.5 0.5 21.5 0.5h21.5c20 0.666992 42 1.66699 66 3l153 1248h-414c-16 -91.333 -25 -144 -27 -158
c-6 -32.667 -22.333 -49 -49 -49h-49z" />
    <glyph glyph-name="U" unicode="U" 
d="M77 1375l4.99707 40.001h465l-4 -40c-1.33301 -8.66699 -4.5 -15.834 -9.5 -21.501s-12.667 -9.5 -23 -11.5s-19.166 -3.33301 -26.499 -4s-19 -0.833984 -35 -0.500977s-27 0.5 -33 0.5c-24 -0.666992 -48 -1.66699 -72 -3l-98 -794
c-12.667 -104.667 -1.16699 -194.167 34.5 -268.5s90.167 -128.833 163.5 -163.5c50.667 -24 110 -36 178 -36c54.667 0 105.5 7.33301 152.5 22s88.5 35.167 124.5 61.5s67.333 56 94 89s49.334 69.5 68.001 109.5c26.667 57.333 44 119 52 185l98 795
c-14 0.666992 -39 1.5 -75 2.5s-62 1.83301 -78 2.5c-26.667 1.33301 -38.667 13 -36 35l5 40h296h168l-5 -40c-0.666992 -6 -2.16699 -11.167 -4.5 -15.5s-5.83301 -7.83301 -10.5 -10.5s-9 -4.66699 -13 -6s-9.83301 -2.33301 -17.5 -3s-14 -1.16699 -19 -1.5
s-12.167 -0.5 -21.5 -0.5h-21c-20 -0.666992 -42 -1.66699 -66 -3l-98 -795c-14.667 -122.667 -55.167 -228.5 -121.5 -317.5s-150.833 -154.5 -253.5 -196.5c-70 -28.667 -146.333 -43 -229 -43c-122.667 0 -223.334 30.333 -302.001 91s-130.667 143 -156 247
c-16 68 -19.333 141 -10 219l98 795c-12.667 0.666992 -26.667 1.33398 -42 2.00098s-31.166 1.16699 -47.499 1.5s-29.166 0.833008 -38.499 1.5c-26.667 1.33301 -38.667 13 -36 35z" />
    <glyph glyph-name="V" unicode="V" horiz-adv-x="1511" 
d="M59 1375l5 40.0059h380l-5 -40c-0.666992 -5.33301 -2.16699 -10.166 -4.5 -14.499s-5.5 -7.83301 -9.5 -10.5s-7.83301 -4.83398 -11.5 -6.50098s-9.16699 -2.83398 -16.5 -3.50098s-13 -1 -17 -1s-10.667 -0.166992 -20 -0.5s-16 -0.5 -20 -0.5
c-16.667 -0.666992 -37.334 -1.33398 -62.001 -2.00098l323 -1122c9.33301 -30.667 15.666 -63.334 18.999 -98.001c12 36 25.667 68.667 41 98l597 1122c-9.33301 0 -27.5 0.5 -54.5 1.5s-47.167 1.83301 -60.5 2.5c-26 1.33301 -37.667 13 -35 35l5 40h295h84l-5 -40
c-0.666992 -6 -2.5 -11.333 -5.5 -16s-7.16699 -8.33398 -12.5 -11.001s-10.666 -4.83398 -15.999 -6.50098s-12.166 -2.83398 -20.499 -3.50098s-15.5 -1.16699 -21.5 -1.5s-13.833 -0.5 -23.5 -0.5h-22.5l-715 -1336h-91l-387 1336c-10.667 0 -24.5 0.5 -41.5 1.5
s-28.833 1.83301 -35.5 2.5c-26.667 1.33301 -38.667 13 -36 35z" />
    <glyph glyph-name="W" unicode="W" horiz-adv-x="2190" 
d="M59 1375l4.99902 39.002h380l-5 -39c-0.666992 -5.33301 -2.16699 -10.166 -4.5 -14.499s-5.5 -7.83301 -9.5 -10.5s-7.83301 -4.83398 -11.5 -6.50098s-9.16699 -2.83398 -16.5 -3.50098s-13.166 -1 -17.499 -1s-11.166 -0.166992 -20.499 -0.5s-16 -0.5 -20 -0.5
c-18 -0.666992 -38.667 -1.33398 -62 -2.00098l204 -1111c2.66699 -12 5.66699 -42.333 9 -91c14.667 44 25.667 74.333 33 91l543 1163c8.66699 18 22.667 26.667 42 26h28c16.667 0 27.667 -8.66699 33 -26l257 -1163c5.33301 -23.333 9.66602 -53 12.999 -89
c18.667 56.667 28.334 86.334 29.001 89.001l478 1110c-11.333 0.666992 -31.166 1.5 -59.499 2.5s-49.5 1.83301 -63.5 2.5c-26 1.33301 -37.667 13 -35 35l5 39h295h84l-5 -39c-0.666992 -6 -2.33398 -11.167 -5 -15.5c-2.66699 -4.33301 -6.5 -7.83301 -11.5 -10.5
s-10 -4.83398 -15 -6.50098s-11.333 -2.83398 -19 -3.50098s-14.334 -1.16699 -20 -1.5c-5.66699 -0.333008 -13.167 -0.666016 -22.5 -0.999023s-16.333 -0.5 -21 -0.5l-584 -1336h-92l-267 1228c-3.33301 16 -6 33 -8 51c-6 -18 -12.667 -35 -20 -51l-570 -1228h-91
l-257 1336c-4.66699 0 -10.5 0.166992 -17.5 0.5s-13.167 0.5 -18.5 0.5s-11.333 0.166992 -18 0.5s-12.334 1 -17.001 2s-9.5 2.33301 -14.5 4s-8.83301 3.83398 -11.5 6.50098s-4.83398 6.16699 -6.50098 10.5s-2.16699 9.16602 -1.5 14.499z" />
    <glyph glyph-name="X" unicode="X" horiz-adv-x="1501" 
d="M36 0l5 39.999c0.666992 6 2.5 11.333 5.5 16s7.33301 8.33398 13 11.001s11.334 4.83398 17.001 6.50098s12.667 2.83398 21 3.50098s15.666 1.16699 21.999 1.5s14.333 0.5 24 0.5h23.5l534 647l-357 610c-11.333 0 -26 0.5 -44 1.5s-30 1.83301 -36 2.5
c-26.667 1.33301 -38.667 13 -36 35l5 40h389l-5 -40c-0.666992 -5.33301 -2 -10.166 -4 -14.499s-5.16699 -7.66602 -9.5 -9.99902l-11 -6c-3 -1.66699 -8.16699 -3 -15.5 -4s-12.666 -1.5 -15.999 -1.5s-10 -0.166992 -20 -0.5s-16.333 -0.5 -19 -0.5
c-18 -0.666992 -38 -1.33398 -60 -2.00098l320 -561c6 12 12.333 22.333 19 31l439 530c-77.333 2.66699 -118.333 4 -123 4c-26.667 1.33301 -38.667 13 -36 35l5 40h396l-5 -40c-0.666992 -7.33301 -3.16699 -13.5 -7.5 -18.5s-9.33301 -8.83301 -15 -11.5
s-13.334 -4.66699 -23.001 -6s-17.834 -2.16602 -24.501 -2.49902s-16.167 -0.5 -28.5 -0.5h-26.5l-506 -605l373 -652h21.5c9 0 16.333 -0.166992 22 -0.5s12.5 -0.833008 20.5 -1.5s14.5 -1.83398 19.5 -3.50098s9.83301 -3.83398 14.5 -6.50098
s7.83398 -6.33398 9.50098 -11.001s2.16699 -10 1.5 -16l-5 -40h-384l5 40c0.666992 5.33301 2 10.166 4 14.499s5.16699 7.66602 9.5 9.99902l11 6c3 1.66699 8.16699 3 15.5 4s12.833 1.5 16.5 1.5s10.334 0.166992 20.001 0.5s16.167 0.5 19.5 0.5
c18 0.666992 38.333 1.33398 61 2.00098l-335 598c-4 -10 -10 -19.667 -18 -29l-469 -568c11.333 -0.666992 31.166 -1.5 59.499 -2.5s49.5 -1.83301 63.5 -2.5c26 -1.33301 37.667 -13 35 -35l-5 -40h-396z" />
    <glyph glyph-name="Y" unicode="Y" horiz-adv-x="1360" 
d="M59 1375l5.00195 40.001h369l-4 -40c-0.666992 -4.66699 -2 -8.83398 -4 -12.501s-4.16699 -6.83398 -6.5 -9.50098s-5.66602 -4.83398 -9.99902 -6.50098s-8 -3 -11 -4s-7.83301 -1.83301 -14.5 -2.5s-11.667 -1 -15 -1s-9 -0.166992 -17 -0.5s-13.667 -0.5 -17 -0.5
c-16 -0.666992 -34 -1.33398 -54 -2.00098l298 -596c13.333 -27.333 23.666 -56.666 30.999 -87.999c15.333 31.333 33 60.666 53 87.999l444 596c-8 0.666992 -24.333 1.33398 -49 2.00098s-43 1.33398 -55 2.00098c-26.667 1.33301 -38.667 13 -36 35l5 40h306h64l-5 -40
c-2.66699 -22 -17.334 -33.667 -44.001 -35c-33.333 -2 -58 -3.33301 -74 -4l-566 -752l-62 -505c12 0 32.833 -0.5 62.5 -1.5s51.5 -1.83301 65.5 -2.5c26 -1.33301 37.667 -13 35 -35l-5 -40h-439l5 40c0.666992 6 2.16699 11.167 4.5 15.5s5.83301 7.83301 10.5 10.5
s9.16699 4.66699 13.5 6s10.166 2.33301 17.499 3s13.5 1.16699 18.5 1.5s12.167 0.5 21.5 0.5h21c20 0.666992 42 1.33398 66 2.00098l62 505l-381 752c-14.667 0.666992 -39 2 -73 4c-26.667 1.33301 -38.667 13 -36 35z" />
    <glyph glyph-name="Z" unicode="Z" horiz-adv-x="1277" 
d="M36 0l4.99902 37c1.33301 12.667 6.66602 24.667 15.999 36l1054 1257h-781c-3.33301 -20 -9.16602 -49.167 -17.499 -87.5s-13.833 -65.833 -16.5 -82.5c-5.33301 -32 -21.666 -48 -48.999 -48h-49l38 303h1022l-5 -35c-1.33301 -14 -7.66602 -27.667 -18.999 -41
l-1052 -1254h799l11.5 56l13 62.5c4.33301 20.333 7.83301 37.5 10.5 51.5c5.33301 32 21.666 48 48.999 48h48l-37 -303h-1040z" />
    <glyph glyph-name="bracketleft" unicode="[" horiz-adv-x="617" 
d="M50 -264l218.999 1781h318l-5 -36c-0.666992 -8.66699 -4.16699 -15.667 -10.5 -21s-14.166 -8 -23.499 -8h-206l-203 -1651h206c9.33301 0 16.5 -2.66699 21.5 -8s6.83301 -12.333 5.5 -21l-4 -36h-318z" />
    <glyph glyph-name="backslash" unicode="\" horiz-adv-x="654" 
d="M73 1455h41c26 0 42.333 -12.333 49 -37l438 -1502h-39c-13.333 0 -24.5 3.5 -33.5 10.5s-15.167 16.5 -18.5 28.5z" />
    <glyph glyph-name="bracketright" unicode="]" horiz-adv-x="633" 
d="M36 -264l4 36c1.33301 8.66699 5 15.667 11 21s13.667 8 23 8h206l203 1651h-206c-9.33301 0 -16.333 2.66699 -21 8s-6.66699 12.333 -6 21l5 36h317l-219 -1781h-317z" />
    <glyph glyph-name="asciicircum" unicode="^" horiz-adv-x="886" 
d="M76 800l416.999 615h60l265 -615h-68c-14 0 -24 7.66699 -30 23l-188 436c-10 25.333 -16.667 46.333 -20 63c-10 -22.667 -21.667 -43.667 -35 -63l-293 -436c-11.333 -15.333 -23.666 -23 -36.999 -23h-71z" />
    <glyph glyph-name="underscore" unicode="_" horiz-adv-x="1127" 
d="M157 -273l8 68h788l-8 -68h-788z" />
    <glyph glyph-name="grave" unicode="`" horiz-adv-x="502" 
d="M125 1431h92c16 0 27.667 -2.33301 35 -7s14 -13 20 -25l128 -238h-54c-16 0 -27.667 5.66699 -35 17z" />
    <glyph glyph-name="a" unicode="a" horiz-adv-x="1004" 
d="M51 334c0 176 60.332 331.669 180.999 467.002c76.667 86 166 146.333 268 181c51.333 17.333 104.333 26 159 26c82 0 153.667 -15.667 215 -47l-107 -883c10 -0.666992 21 -0.666992 33 0s23.833 0.666992 35.5 0s22 -2 31 -4s16.167 -5.83301 21.5 -11.5
s7.33301 -13.167 6 -22.5l-5 -40h-132h-24h-22c-22.667 0 -34 10.333 -34 31l33 313c-80.667 -169.333 -177 -279.666 -289 -330.999c-38 -17.333 -77.333 -26 -118 -26c-45.333 0 -84.666 9.16699 -117.999 27.5s-59.5 43.666 -78.5 75.999s-33 68.666 -42 108.999
s-13.5 85.166 -13.5 134.499zM145.999 349.002c0 -188.667 62.667 -283 188 -283c75.333 0 148 41 218 123c68.667 80 126.667 187.667 174 323l50 405c-39.333 13.333 -82 20 -128 20c-132 0 -248.667 -60 -350 -180c-101.333 -119.333 -152 -255.333 -152 -408z" />
    <glyph glyph-name="b" unicode="b" horiz-adv-x="1045" 
d="M77 43l91 741l73 592c-4.66699 0 -20 0.5 -46 1.5s-45.667 1.83301 -59 2.5c-26 1.33301 -37.667 13 -35 35l5 41h239l-77 -635c110.667 126.667 235 190 373 190c66.667 0 123.667 -12.167 171 -36.5s83.333 -58.833 108 -103.5s41.167 -98.167 49.5 -160.5
s7.5 -131.166 -2.5 -206.499c-14 -112.667 -47.5 -210.334 -100.5 -293.001s-122.167 -144 -207.5 -184c-56.667 -26.667 -120.334 -40 -191.001 -40c-89.333 0 -219.666 18.667 -390.999 56zM180 105c134.667 -28.667 227.999 -43.001 279.999 -43.001
c47.333 0 91 6.83301 131 20.5s74.5 32.834 103.5 57.501s54 52.167 75 82.5s39.167 64.5 54.5 102.5c22 54 37 113.667 45 179c34.667 287.333 -53.666 431 -264.999 431c-66 0 -127.833 -17 -185.5 -51s-111.167 -81.333 -160.5 -142z" />
    <glyph glyph-name="c" unicode="c" horiz-adv-x="896" 
d="M59 498c14.667 114.667 48.999 213.169 102.999 295.502s125.333 142.166 214 179.499c58.667 25.333 124 38 196 38c46.667 0 120.334 -15.667 221.001 -47l51 -15l-31 -251h-49c-7.33301 0 -13.5 1.33301 -18.5 4s-8.83301 6.66699 -11.5 12s-4.66699 10.833 -6 16.5
s-2 13 -2 22s0.166992 17 0.5 24s0.833008 15.667 1.5 26s1 18.166 1 23.499c1.33301 24 3 49.333 5 76c-118.667 44 -226 45 -322 3c-48.667 -20.667 -91 -51 -127 -91s-64.5 -86.333 -85.5 -139s-35.5 -111.667 -43.5 -177c-12 -100.667 -5.16699 -186.167 20.5 -256.5
s69.834 -120.5 132.501 -150.5c40.667 -19.333 87 -29 139 -29c100.667 0 187.667 30.333 261 91c14 11.333 24.667 17 32 17c8.66699 0 15 -3.33301 19 -10l22 -32c-25.333 -28 -55.5 -52.5 -90.5 -73.5s-75.5 -37.5 -121.5 -49.5s-94.333 -18 -145 -18
c-90.667 0 -165.834 21.833 -225.501 65.5s-101 103.667 -124 180s-28.5 164.833 -16.5 265.5z" />
    <glyph glyph-name="d" unicode="d" horiz-adv-x="1067" 
d="M59 495c14 112.667 47.502 210.333 100.502 293s122.167 144 207.5 184c56.667 26.667 120 40 190 40c128.667 0 224 -49 286 -147l62 511c-58.667 2 -93.334 3.33301 -104.001 4c-26 1.33301 -37.667 13 -35 35l5 40h239l-169 -1376c4 0 17.667 -0.5 41 -1.5
s41 -1.83301 53 -2.5c15.333 -0.666992 25.333 -4.5 30 -11.5s6 -18.167 4 -33.5l-4 -30h-134h-52c-16.667 0 -25 8.66699 -25 26l9 157c-112 -130.667 -238 -196 -378 -196c-66.667 0 -123.667 12.333 -171 37s-83.333 59.167 -108 103.5s-41.334 97.833 -50.001 160.5
s-7.66699 131.667 3 207zM157.002 494.999c-35.333 -287.333 53 -431 265 -431c66 0 127.833 17 185.5 51s111.167 81.333 160.5 142l64 525c-28.667 52 -63.667 90.833 -105 116.5s-95 38.5 -161 38.5c-47.333 0 -91 -6.83301 -131 -20.5s-74.667 -32.834 -104 -57.501
s-54.5 -52.167 -75.5 -82.5s-38.833 -64.166 -53.5 -101.499c-22 -54.667 -37 -114.667 -45 -180z" />
    <glyph glyph-name="e" unicode="e" horiz-adv-x="876" 
d="M52 378c0 161.333 44 303.997 132 427.997c60 84 134.667 143 224 177c45.333 17.333 94.333 26 147 26c62 0 115 -12.167 159 -36.5s74.667 -58.166 92 -101.499c9.33301 -23.333 14 -45.333 14 -66c0 -35.333 -5.83301 -66.666 -17.5 -93.999s-26 -49.5 -43 -66.5
s-38.833 -33.833 -65.5 -50.5c-64.667 -39.333 -165.334 -72 -302.001 -98c-69.333 -12.667 -150.666 -24 -243.999 -34c-2.66699 -28 -4 -55.333 -4 -82c0 -99.333 22.5 -177 67.5 -233s112.833 -84 203.5 -84c58.667 0 109 10.333 151 31s83.667 49.334 125 86.001
c2 1.33301 6.33301 5.33301 13 12s11.834 11.5 15.501 14.5s8.66699 6.16699 15 9.5s12.166 5 17.499 5c8 0 15 -3.33301 21 -10l22 -26c-28.667 -30.667 -54.5 -56 -77.5 -76s-50.833 -40.333 -83.5 -61s-68.667 -36 -108 -46s-82 -15 -128 -15
c-113.333 0 -199.333 35.167 -258 105.5s-88 165.5 -88 285.5zM159 527.997c154 17.333 279.001 41.001 375.001 71.001c77.333 25.333 132.333 56.666 165 93.999c24.667 28.667 37 65 37 109c0 44.667 -17.833 78.667 -53.5 102s-79.834 35 -132.501 35
c-99.333 0 -185.333 -41.667 -258 -125c-66 -74 -110.333 -169.333 -133 -286z" />
    <glyph glyph-name="f" unicode="f" horiz-adv-x="949" 
d="M8 -323c0 21.333 12 32 36 32c87.333 2 154.666 29.333 201.999 82s76.666 124 87.999 214l108 886l-139 9c-18.667 1.33301 -27 9.66602 -25 24.999l4 39h169l16 126c6 50.667 17.333 96.334 34 137.001s39 76.667 67 108s62.833 55.5 104.5 72.5
s88.834 25.5 141.501 25.5c44.667 0 83 -7 115 -21l-8 -46c-2 -9.33301 -9 -14 -21 -14c-6.66699 0 -14.667 0.5 -24 1.5s-19.166 2 -29.499 3s-19.833 1.5 -28.5 1.5c-150 0 -236.333 -90.333 -259 -271l-15 -123h323l-8 -71h-321l-109 -891
c-30.667 -248.667 -171 -373 -421 -373v48z" />
    <glyph glyph-name="g" unicode="g" horiz-adv-x="1019" 
d="M13 -131c0 92 46.6641 165.336 139.997 220.003c88 52 199 78 333 78c44.667 0 90.334 -3.33301 137.001 -10c-26.667 36 -40 72 -40 108c0 31.333 4.5 57.666 13.5 78.999s23.833 47.666 44.5 78.999c-56.667 -38.667 -118.667 -58 -186 -58
c-83.333 0 -148.5 25 -195.5 75s-70.5 117.667 -70.5 203c0 79.333 19.5 148.166 58.5 206.499s89.5 101.833 151.5 130.5c45.333 21.333 97 32 155 32c70.667 0 129.334 -16.667 176.001 -50h260l-4 -32c-1.33301 -15.333 -10.666 -24.333 -27.999 -27l-162 -13
c25.333 -43.333 38 -94 38 -152c-0.666992 -28 -3.5 -54.333 -8.5 -79s-13.167 -48.667 -24.5 -72s-21 -41.833 -29 -55.5s-20.667 -33 -38 -58s-29 -42.167 -35 -51.5c-30.667 -47.333 -46 -91 -46 -131c0 -32 13.667 -67 41 -105l37.5 -46.5c18.333 -22.333 32 -40 41 -53
s18 -31.667 27 -56s13.5 -49.166 13.5 -74.499c0 -86.667 -40.667 -161.667 -122 -225c-85.333 -66 -192.333 -99 -321 -99c-78 0 -146 11.333 -204 34s-100.333 57 -127 103c-17.333 29.333 -26 62.666 -26 99.999zM102.997 -120.997
c0 -26.667 5.16602 -50.332 15.499 -70.999s24 -37.667 41 -51s37.5 -24.333 61.5 -33s48.833 -14.834 74.5 -18.501s53.167 -5.5 82.5 -5.5c74.667 0 140.167 14 196.5 42s98.166 66.333 125.499 115c16.667 30 25.334 61 26.001 93c0 52.667 -18.333 102 -55 148l1 -3
c-57.333 9.33301 -116.666 14 -177.999 14c-88 0 -164 -11.5 -228 -34.5s-110.333 -58.833 -139 -107.5c-16 -28 -24 -57.333 -24 -88zM275.996 643.005c0 -68 17.332 -120.999 51.999 -158.999s84.334 -57 149.001 -57c64 0 117.5 18.5 160.5 55.5
s73.833 84.167 92.5 141.5c12 36.667 18 73.667 18 111c0 66.667 -17.667 118.167 -53 154.5s-85.333 54.5 -150 54.5c-43.333 0 -82.333 -8.83301 -117 -26.5s-62.667 -40.334 -84 -68.001s-38 -59.167 -50 -94.5c-12 -36.667 -18 -74 -18 -112z" />
    <glyph glyph-name="h" unicode="h" horiz-adv-x="1099" 
d="M75 0l53.501 434.001l62.5 507.5l53 434.5l-104 4c-26.667 1.33301 -38.667 13 -36 35l5 40h240l-78 -630c52.667 56 109.667 101 171 135s130.666 51 207.999 51c107.333 0 185.333 -32.833 234 -98.5s65.667 -157.834 51 -276.501l-68 -557
c6.66699 0 22.5 -0.5 47.5 -1.5s43.833 -1.83301 56.5 -2.5c26 -1.33301 37.667 -13 35 -35l-5 -40h-239l78 636c8 62.667 5.33301 116 -8 160s-38 78.167 -74 102.5s-83 36.5 -141 36.5c-126.667 0 -245 -63 -355 -189c-4.66699 -35.333 -13.667 -107.833 -27 -217.5
l-31 -254.5l-34 -274h-95z" />
    <glyph glyph-name="i" unicode="i" horiz-adv-x="442" 
d="M71 955l5.00098 40.001h240l-113 -916c6 0 21.833 -0.5 47.5 -1.5s44.834 -1.83301 57.501 -2.5c26 -1.33301 37.667 -13 35 -35l-5 -40h-239l64.5 526.5c28.333 230.333 44.166 360.166 47.499 389.499c-9.33301 0 -20.833 0.333008 -34.5 1
s-26.334 1.16699 -38.001 1.5s-22.167 0.833008 -31.5 1.5c-26.667 1.33301 -38.667 13 -36 35zM223.001 1338c2.66699 24.667 13.333 45.668 32 63.001s41 26 67 26c30.667 0 53.667 -13.333 69 -40s14.333 -54.334 -3 -83.001c-6 -10 -13.667 -19 -23 -27
c-8.66699 -8 -18.5 -14 -29.5 -18s-22 -6 -33 -6s-21.667 1.83301 -32 5.5s-19.333 9 -27 16s-13.5 16 -17.5 27s-5 23.167 -3 36.5z" />
    <glyph glyph-name="j" unicode="j" horiz-adv-x="621" 
d="M8 -348l10.9971 47.998c1.33301 8 6.33301 12 15 12c6 0 15.333 -1.33301 28 -4s23.667 -4 33 -4c106 0 166 56.333 180 169l128 1043c-13.333 0.666992 -31.666 1.33398 -54.999 2.00098s-39.666 1.33398 -48.999 2.00098c-26 1.33301 -37.667 13 -35 35l5 40h144h95
l-138 -1122c-8.66699 -73.333 -36.167 -132 -82.5 -176s-108.166 -66 -185.499 -66c-36.667 0 -68 7 -94 21zM448.997 1401c19.333 17.333 40.999 26.001 64.999 26.001c30.667 0 53.5 -13.333 68.5 -40s14.167 -54.334 -2.5 -83.001
c-21.333 -35.333 -50.666 -53 -87.999 -53c-26.667 0 -46.667 9.16699 -60 27.5s-18.333 39.333 -15 63s14 43.5 32 59.5z" />
    <glyph glyph-name="k" unicode="k" horiz-adv-x="984" 
d="M75 0l87 708.003l82 668c-9.33301 0 -26 0.5 -50 1.5s-42 1.83301 -54 2.5c-26.667 1.33301 -38.667 13 -36 35l5 41h240l-109 -888h46c12.667 0 22.834 1.66699 30.501 5s16.5 9.33301 26.5 18l384 327c-4 0 -9 0.166992 -15 0.5s-10.833 0.5 -14.5 0.5
s-8 0.166992 -13 0.5s-8.83301 0.666016 -11.5 0.999023s-6 0.833008 -10 1.5s-6.66699 1.66699 -8 3s-3.5 2.83301 -6.5 4.5s-4.5 3.83398 -4.5 6.50098s-0.666992 5.5 -2 8.5s-1.33301 6.5 0 10.5l5 40h204h104l-4 -40c-1.33301 -6 -3.33301 -11.167 -6 -15.5
s-6.5 -7.83301 -11.5 -10.5s-10 -4.83398 -15 -6.50098s-11.5 -2.83398 -19.5 -3.50098s-14.667 -1.16699 -20 -1.5s-12.833 -0.5 -22.5 -0.5s-16.834 -0.333008 -21.501 -1l-398 -338c-19.333 -17.333 -33.666 -28.333 -42.999 -33
c2.66699 -1.33301 5.16699 -2.83301 7.5 -4.5s4.33301 -3.16699 6 -4.5l6 -5c2.33301 -2 4 -3.66699 5 -5s2.66699 -3.33301 5 -6s4 -4.5 5 -5.5s2.83301 -3.16699 5.5 -6.5s4.33398 -5.33301 5.00098 -6l337 -424c9.33301 -0.666992 19.166 -0.666992 29.499 0
s20.5 0.5 30.5 -0.5s19 -2.5 27 -4.5s14.167 -5.83301 18.5 -11.5s6.16602 -12.834 5.49902 -21.501l-5 -40h-127c-17.333 0 -32 7.66699 -44 23l-363 448c-10.667 12.667 -20.167 21 -28.5 25s-22.5 6 -42.5 6h-45c-3.33301 -25.333 -12.5 -99 -27.5 -221l-34.5 -281h-95z
" />
    <glyph glyph-name="l" unicode="l" horiz-adv-x="414" 
d="M75 0l84.5 688l84.5 688c-4.66699 0 -20 0.5 -46 1.5s-45.333 1.83301 -58 2.5c-26.667 1.33301 -38.667 13 -36 35l5 41h240l-169 -1377c6.66699 0 22.5 -0.5 47.5 -1.5s43.833 -1.83301 56.5 -2.5c26 -1.33301 37.667 -13 35 -35l-5 -40h-239z" />
    <glyph glyph-name="m" unicode="m" horiz-adv-x="1640" 
d="M74 955l5.00195 39.9971h145h52c17.333 0 26.333 -8.33301 27 -25l-9 -144c74 89.333 152 146.333 234 171c29.333 9.33301 59.666 14 90.999 14c72.667 0 128 -21.167 166 -63.5s60 -101.166 66 -176.499c30 71.333 74 129.166 132 173.499s129.667 66.5 215 66.5
c103.333 0 178.166 -33.5 224.499 -100.5s62.5 -158.5 48.5 -274.5l-69 -557c6 0 21.667 -0.5 47 -1.5s44.666 -1.83301 57.999 -2.5c26 -1.33301 37.667 -13 35 -35l-5 -40h-239l78 636c11.333 93.333 0 166.5 -34 219.5s-91.667 79.5 -173 79.5
c-61.333 0 -114 -15.667 -158 -47s-78.667 -72 -104 -122c-18.667 -37.333 -31 -80.666 -37 -129.999l-38.5 -311l-39.5 -325h-95l78 636c7.33301 60.667 6.16602 112.667 -3.50098 156s-30.167 78 -61.5 104s-73.333 39 -126 39c-54 0 -106 -16.167 -156 -48.5
s-96.333 -77.166 -139 -134.499l-74 -600c-1.33301 -12.667 -3.16602 -28.667 -5.49902 -48l-7 -55.5c-2.33301 -17.667 -4.16602 -33.834 -5.49902 -48.501h-95l59.5 485l52.5 431c-14 0.666992 -33.167 1.33398 -57.5 2.00098s-39.833 1.33398 -46.5 2.00098
c-26.667 1.33301 -38.667 13 -36 35z" />
    <glyph glyph-name="n" unicode="n" horiz-adv-x="1131" 
d="M74 955l4.99902 39.0029h145h52c17.333 0 26.333 -8 27 -24l-10 -150c116.667 127.333 244.667 191 384 191c107.333 0 185.333 -32.833 234 -98.5s65.667 -157.834 51 -276.501l-69 -557c9.33301 0 21 -0.333008 35 -1s26.667 -1.16699 38 -1.5s22 -0.833008 32 -1.5
c26 -1.33301 37.667 -13 35 -35l-5 -40h-239l78 636c11.333 94.667 -1.5 168.167 -38.5 220.5s-98.833 78.5 -185.5 78.5c-126.667 0 -245 -63 -355 -189l-91 -746h-95l35 290l41 336l36 290c-8 0 -17 0.166992 -27 0.5s-18.833 0.666016 -26.5 0.999023
s-16.167 0.666016 -25.5 0.999023s-17.666 0.833008 -24.999 1.5c-26.667 1.33301 -38.667 13 -36 35z" />
    <glyph glyph-name="o" unicode="o" horiz-adv-x="1045" 
d="M59 498c14.667 116.667 49.166 216 103.499 298s126.833 141.667 217.5 179c59.333 24 124.666 36 195.999 36c143.333 0 249 -46 317 -138s92.333 -217 73 -375c-14 -116 -48.167 -215 -102.5 -297s-126.833 -141.333 -217.5 -178
c-59.333 -24 -124.666 -36 -195.999 -36c-143.333 0 -249.166 45.667 -317.499 137s-92.833 216 -73.5 374zM157.999 318c12.667 -81.333 44.0029 -144.333 94.0029 -189s119.333 -67 208 -67c51.333 0 98.333 7.5 141 22.5s79 35.667 109 62s56 58.166 78 95.499
s39.333 77 52 119s22 87.667 28 137c9.33301 64 9.66602 122.667 0.999023 176s-24.334 99.5 -47.001 138.5s-55.667 69.333 -99 91s-95.333 32.5 -156 32.5c-174.667 0 -296.334 -86 -365.001 -258c-20 -49.333 -34.667 -107.166 -44 -173.499s-9.33301 -128.5 0 -186.5z
" />
    <glyph glyph-name="p" unicode="p" horiz-adv-x="1170" 
d="M8 -352l5.00195 39.999c0.666992 4 1.5 7.66699 2.5 11s2.83301 6.33301 5.5 9s5 4.83398 7 6.50098s5.16699 3 9.5 4s7.83301 2 10.5 3s6.83398 1.66699 12.501 2s10 0.5 13 0.5s7.83301 0.166992 14.5 0.5s11.667 0.5 15 0.5l59 2l146 1189c-8.66699 0 -25 0.5 -49 1.5
s-42.333 1.83301 -55 2.5c-26.667 1.33301 -38.667 13 -36 35l5 40h145h52c9.33301 0 16.166 -2 20.499 -6s6.5 -10.333 6.5 -19l-10 -154c112 130.667 237.667 196 377 196c66.667 0 123.667 -12.333 171 -37s83.333 -59.167 108 -103.5s41.334 -97.666 50.001 -159.999
s7.66699 -131.5 -3 -207.5c-14 -112.667 -47.333 -210.334 -100 -293.001s-121.667 -144 -207 -184c-56.667 -26.667 -120 -40 -190 -40c-46.667 0 -88.334 6 -125.001 18s-67.667 28.5 -93 49.5s-48 47.5 -68 79.5l-50 -407c8.66699 0 20.167 -0.333008 34.5 -1
s27.166 -1.16699 38.499 -1.5s21.666 -0.833008 30.999 -1.5c26.667 -1.33301 38.667 -13 36 -35l-5 -40h-384zM317.002 217.999c28.667 -52.667 63.499 -91.8359 104.499 -117.503s94.833 -38.5 161.5 -38.5c48 0 91.833 6.83301 131.5 20.5s74.167 32.834 103.5 57.501
s54.333 52.167 75 82.5s38.667 64.5 54 102.5c22 54 37 113.667 45 179c8.66699 65.333 10.167 124.5 4.5 177.5s-18.167 98.333 -37.5 136s-48.5 66.667 -87.5 87s-87.167 30.5 -144.5 30.5c-38 0 -74.167 -5.33301 -108.5 -16s-65.833 -25.667 -94.5 -45
s-54.167 -39.666 -76.5 -60.999s-44.166 -45.666 -65.499 -72.999z" />
    <glyph glyph-name="q" unicode="q" horiz-adv-x="1026" 
d="M62 494c14 112.667 47.502 210.333 100.502 293s122.167 144 207.5 184c56.667 26.667 120 40 190 40c90 0 220.667 -18.667 392 -56l-83 -675l-68 -554c4.66699 0 20 -0.5 46 -1.5s45.333 -1.83301 58 -2.5c26.667 -1.33301 38.667 -13 36 -35l-5 -40h-384l5 40
c0 4 0.666992 7.66699 2 11s3.16602 6.33301 5.49902 9s4.66602 4.83398 6.99902 6.50098s5.5 3 9.5 4s7.33301 2 10 3s6.83398 1.66699 12.501 2s10 0.5 13 0.5s8 0.166992 15 0.5s11.833 0.5 14.5 0.5l60 2l54 451c-110.667 -126.667 -234.667 -190 -372 -190
c-66.667 0 -123.667 12.167 -171 36.5s-83.333 58.833 -108 103.5s-41.334 98.167 -50.001 160.5s-7.66699 131.166 3 206.499zM160.002 493.999c-35.333 -287.333 53.001 -430.999 265.001 -430.999c66 0 127.833 17 185.5 51s111.167 81.333 160.5 142l78 637
c-135.333 28.667 -228.666 43 -279.999 43c-38 0 -73.833 -4.5 -107.5 -13.5s-63.334 -21.333 -89.001 -37s-49.334 -34.834 -71.001 -57.501s-40.167 -46.667 -55.5 -72s-29 -53 -41 -83c-22 -54 -37 -113.667 -45 -179z" />
    <glyph glyph-name="r" unicode="r" horiz-adv-x="823" 
d="M74 955l5 39.998h145h50c11.333 0 19.166 -2.33301 23.499 -7s6.16602 -12.667 5.49902 -24l-18 -210c42 80.667 92.5 143.834 151.5 189.501s127.5 68.5 205.5 68.5c56.667 0 106.667 -12.333 150 -37l-21 -66c-3.33301 -10.667 -10.666 -16 -21.999 -16
c-4 0 -8.33301 0.666992 -13 2s-10 3.16602 -16 5.49902l-14 5.5c-27.333 8.66699 -58.666 13 -93.999 13c-75.333 0 -140 -23.333 -194 -70s-101.333 -114 -142 -202l-79 -647h-95l112 916c-14 0.666992 -32.833 1.33398 -56.5 2.00098s-39.5 1.33398 -47.5 2.00098
c-26.667 1.33301 -38.667 13 -36 35z" />
    <glyph glyph-name="s" unicode="s" horiz-adv-x="833" 
d="M55 39l29.9971 243.004h48c7.33301 0 13.5 -1.33301 18.5 -4s8.83301 -6.66699 11.5 -12s4.83398 -10.666 6.50098 -15.999s2.5 -12.333 2.5 -21s-0.166992 -16.334 -0.5 -23.001s-0.833008 -15 -1.5 -25s-1.33398 -18 -2.00098 -24
c-0.666992 -22 -1.66699 -45.667 -3 -71c50.667 -21.333 114 -32 190 -32c78.667 0 143.334 19.667 194.001 59s80.334 93.333 89.001 162c2 16 2 30.833 0 44.5s-6.16699 26 -12.5 37s-13 21 -20 30s-16.833 17.333 -29.5 25s-23.834 14.167 -33.501 19.5
s-22.5 10.833 -38.5 16.5l-39 13.5c-10 3.33301 -23.667 7.5 -41 12.5s-30 8.83301 -38 11.5c-30 9.33301 -54.5 17.666 -73.5 24.999s-40.167 17.166 -63.5 29.499s-43 26.666 -59 42.999s-28.667 35.166 -38 56.499c-10 20.667 -14.667 43.834 -14 69.501
s4.33398 50 11.001 73s15.667 43.833 27 62.5c30 50.667 73.167 91.167 129.5 121.5s121.833 45.5 196.5 45.5c72 0 158 -17.667 258 -53l-29 -238h-49c-6.66699 0 -12.667 1.33301 -18 4s-9.33301 6.5 -12 11.5s-4.66699 10.333 -6 16s-2 12.667 -2 21
s0.166992 15.833 0.5 22.5s0.833008 15 1.5 25s1 17.667 1 23c0.666992 22 2 45 4 69c-51.333 17.333 -103 26 -155 26c-54 0 -101.667 -10.667 -143 -32s-73 -49.666 -95 -84.999c-9.33301 -14.667 -16.5 -30.334 -21.5 -47.001s-7 -34.5 -6 -53.5
s6.16699 -35.5 15.5 -49.5c13.333 -20.667 32 -38.334 56 -53.001c22 -13.333 50.667 -26.333 86 -39s68.5 -23.167 99.5 -31.5s63 -19.833 96 -34.5s60.667 -30.5 83 -47.5s39.5 -40.5 51.5 -70.5s15.667 -64.667 11 -104c-8.66699 -70 -34 -129 -76 -177
s-95.333 -83.333 -160 -106c-45.333 -16 -95.666 -24 -150.999 -24c-99.333 0 -195 18.333 -287 55z" />
    <glyph glyph-name="t" unicode="t" horiz-adv-x="664" 
d="M53 916l5.00098 37.002l171 12l68 356c1.33301 6 4.5 11.333 9.5 16s11.167 7 18.5 7h45l-47 -380h313l-9 -71h-313l-82 -675c-6 -48.667 0.833008 -86.834 20.5 -114.501s51.834 -41.5 96.501 -41.5c49.333 0 97.666 18.667 144.999 56c9.33301 7.33301 16.333 11 21 11
c5.33301 0 10 -3.33301 14 -10l21 -42c-27.333 -26.667 -61.333 -48.834 -102 -66.501s-83 -26.5 -127 -26.5c-70 0 -120.833 19.333 -152.5 58s-42.834 95.667 -33.501 171l83 680h-143c-7.33301 0 -13 2 -17 6s-5.66699 9.66699 -5 17z" />
    <glyph glyph-name="u" unicode="u" horiz-adv-x="1129" 
d="M63 955l4.99707 39.999h145h95l-78 -636c-12 -94.667 0.5 -168.167 37.5 -220.5s98.833 -78.5 185.5 -78.5c126.667 0 245.334 62.333 356.001 187l82 669c-8.66699 0 -25 0.5 -49 1.5s-42.333 1.83301 -55 2.5c-26 1.33301 -37.667 13 -35 35l5 40h144h95l-113 -916
c9.33301 0 21 -0.333008 35 -1s26.667 -1.16699 38 -1.5s22 -0.833008 32 -1.5c26 -1.33301 37.667 -13 35 -35l-5 -40h-197c-18 0 -26.333 8.66699 -25 26l9 148c-117.333 -126.667 -245.666 -190 -384.999 -190c-108 0 -186.167 32.833 -234.5 98.5
s-65.166 157.834 -50.499 276.501l68 557c-8.66699 0 -25 0.5 -49 1.5s-42.333 1.83301 -55 2.5c-26.667 1.33301 -38.667 13 -36 35z" />
    <glyph glyph-name="v" unicode="v" horiz-adv-x="1163" 
d="M55 955l4.99805 40h73h75h201l-5 -40c-0.666992 -4 -1.66699 -7.66699 -3 -11s-3.16602 -6.33301 -5.49902 -9s-4.5 -4.83398 -6.5 -6.50098s-5.16699 -3 -9.5 -4s-7.66602 -2 -9.99902 -3s-6.5 -1.66699 -12.5 -2s-10.333 -0.5 -13 -0.5s-7.5 -0.166992 -14.5 -0.5
s-11.833 -0.5 -14.5 -0.5c-14 -0.666992 -33.667 -1.33398 -59 -2.00098l215 -730c4.66699 -15.333 9.66699 -44 15 -86c14 39.333 25.667 68 35 86l397 730c-2.66699 0 -17.334 0.5 -44.001 1.5s-46.334 1.83301 -59.001 2.5c-26.667 1.33301 -38.667 13 -36 35l5 40h272
h77l-5 -40c-0.666992 -6.66699 -3.16699 -12.5 -7.5 -17.5s-8.83301 -8.83301 -13.5 -11.5s-11.334 -4.66699 -20.001 -6s-16 -2 -22 -2s-14.667 -0.166992 -26 -0.5s-19.666 -0.5 -24.999 -0.5l-500 -917h-84l-274 917c-7.33301 0.666992 -16.166 1 -26.499 1h-23.5
c-5.33301 0 -11.5 0.333008 -18.5 1s-12.167 1.83398 -15.5 3.50098s-6.66602 3.83398 -9.99902 6.50098s-5.5 6.16699 -6.5 10.5s-1.16699 9.5 -0.5 15.5z" />
    <glyph glyph-name="w" unicode="w" horiz-adv-x="1684" 
d="M56 955l4.99414 39.001h80h73h196l-5 -39c-0.666992 -4 -1.66699 -7.66699 -3 -11s-3.16602 -6.33301 -5.49902 -9s-4.5 -4.83398 -6.5 -6.50098s-5.16699 -3 -9.5 -4s-7.66602 -2 -9.99902 -3s-6.33301 -1.66699 -12 -2s-10 -0.5 -13 -0.5s-8 -0.166992 -15 -0.5
s-11.833 -0.5 -14.5 -0.5c-17.333 -0.666992 -37 -1.33398 -59 -2.00098l143 -730c3.33301 -15.333 6.33301 -44 9 -86c10.667 30 22.334 58.667 35.001 86l365 792c6 14.667 16 22 30 22h39c14.667 0 23.667 -7.33301 27 -22l165 -792c6.66699 -30 11.334 -59 14.001 -87
c12 39.333 22.333 68.333 31 87l324 730c-8 0 -19.167 0.333008 -33.5 1s-27 1.16699 -38 1.5s-21.5 0.833008 -31.5 1.5c-26 1.33301 -37.667 13 -35 35l5 39h265h83l-4 -39c-1.33301 -6.66699 -4 -12.5 -8 -17.5s-8.33301 -8.83301 -13 -11.5s-11.5 -4.66699 -20.5 -6
s-16.5 -2 -22.5 -2s-14.667 -0.166992 -26 -0.5s-19.666 -0.5 -24.999 -0.5l-419 -917h-70c-10.667 0 -17.667 7 -21 21l-174 808c-4 20 -6.66699 40 -8 60c-8 -25.333 -15.667 -45.333 -23 -60l-375 -808c-5.33301 -14 -14 -21 -26 -21h-67l-195 917
c-4.66699 0.666992 -11.167 1 -19.5 1h-20.5c-5.33301 0 -11.666 0.333008 -18.999 1s-13.333 1.66699 -18 3s-9.16699 3.33301 -13.5 6s-7.33301 6.33398 -9 11.001s-2.16699 10 -1.5 16z" />
    <glyph glyph-name="x" unicode="x" horiz-adv-x="1112" 
d="M39 0l5.00098 39.9961c0.666992 6 1.83398 11 3.50098 15s4.33398 7.33301 8.00098 10s7.16699 4.83398 10.5 6.50098s8.33301 2.83398 15 3.50098s12.334 1 17.001 1s11.834 0.166992 21.501 0.5s17.5 0.5 23.5 0.5l358 432l-240 408c-6.66699 0.666992 -15 1 -25 1
s-17.5 0.166992 -22.5 0.5s-10.833 0.833008 -17.5 1.5s-11.667 1.66699 -15 3s-6.66602 3.33301 -9.99902 6s-5.33301 6.16699 -6 10.5s-0.666992 9.5 0 15.5l5 39h45h91h1h158l-5 -39c-0.666992 -5.33301 -1.66699 -10.166 -3 -14.499s-4 -7.66602 -8 -9.99902l-10 -6
c-2.66699 -1.66699 -7.33398 -2.83398 -14.001 -3.50098s-11.834 -1.16699 -15.501 -1.5s-10.334 -0.666016 -20.001 -0.999023s-16.834 -0.5 -21.501 -0.5l208 -365c4 11.333 11 23.333 21 36l274 329c-5.33301 0 -12.666 0.166992 -21.999 0.5s-16.166 0.5 -20.499 0.5
s-9.83301 0.333008 -16.5 1s-11.334 1.83398 -14.001 3.50098s-5.66699 3.83398 -9 6.50098s-5.33301 6 -6 10s-0.666992 9 0 15l5 39h161h89h45l-5 -39c-0.666992 -6 -1.83398 -11.167 -3.50098 -15.5s-4.33398 -7.83301 -8.00098 -10.5
s-7.33398 -4.83398 -11.001 -6.50098s-9 -2.66699 -16 -3s-13 -0.666016 -18 -0.999023s-12.667 -0.5 -23 -0.5s-19.166 -0.333008 -26.499 -1l-341 -403l254 -437c5.33301 0 12.833 -0.166992 22.5 -0.5s16.667 -0.5 21 -0.5s9.83301 -0.333008 16.5 -1
s11.5 -1.83398 14.5 -3.50098s6 -3.83398 9 -6.50098s5 -6 6 -10s1.16699 -9 0.5 -15l-5 -40h-296l5 40c0.666992 4.66699 1.5 8.66699 2.5 12s2.66699 6.33301 5 9s4.66602 4.83398 6.99902 6.50098s5.5 3.16699 9.5 4.5s7.66699 2.16602 11 2.49902
s7.83301 0.666016 13.5 0.999023s10.5 0.5 14.5 0.5s9.66699 0.166992 17 0.5s13.333 0.5 18 0.5l-218 388c-5.33301 -13.333 -11.666 -24.666 -18.999 -33.999l-295 -354h23.5c9.66699 0 17 -0.166992 22 -0.5s10.833 -0.833008 17.5 -1.5s11.667 -1.66699 15 -3
s6.66602 -3.33301 9.99902 -6s5.5 -6.16699 6.5 -10.5s1.16699 -9.5 0.5 -15.5l-5 -40h-296z" />
    <glyph glyph-name="y" unicode="y" horiz-adv-x="1159" 
d="M54 955l4.99707 40.002h67h79h1h202l-5 -40c-0.666992 -4 -1.66699 -7.66699 -3 -11s-3.16602 -6.33301 -5.49902 -9s-4.5 -4.83398 -6.5 -6.50098s-5.16699 -3 -9.5 -4s-7.66602 -2 -9.99902 -3s-6.33301 -1.66699 -12 -2s-10 -0.5 -13 -0.5
s-7.83301 -0.166992 -14.5 -0.5s-11.667 -0.5 -15 -0.5c-16.667 -0.666992 -36.334 -1.33398 -59.001 -2.00098l223 -719c4 -15.333 7.66699 -36 11 -62c9.33301 21.333 19.333 42 30 62l395 719c-7.33301 0 -23.166 0.5 -47.499 1.5s-42.5 1.83301 -54.5 2.5
c-26.667 1.33301 -38.667 13 -36 35l5 40h274h75l-5 -40c-0.666992 -6.66699 -3 -12.5 -7 -17.5s-8.5 -8.83301 -13.5 -11.5s-11.833 -4.66699 -20.5 -6s-16 -2 -22 -2s-14.667 -0.166992 -26 -0.5s-19.666 -0.5 -24.999 -0.5l-690 -1237c-11.333 -21.333 -27 -32 -47 -32
h-68l223 389l-279 880c-6 0.666992 -14 1 -24 1s-17.5 0.166992 -22.5 0.5s-11 0.833008 -18 1.5s-12 1.66699 -15 3s-6.16699 3.33301 -9.5 6s-5.5 6.16699 -6.5 10.5s-1.16699 9.5 -0.5 15.5z" />
    <glyph glyph-name="z" unicode="z" horiz-adv-x="955" 
d="M41 0l5.00195 38.002c1.33301 11.333 7.66602 23.666 18.999 36.999l729 845h-504c-2.66699 -14.667 -7.5 -37.5 -14.5 -68.5s-11.5 -53.5 -13.5 -67.5c-6 -32.667 -22.333 -49 -49 -49h-49l31 251l1 9h719l-5 -40c-1.33301 -14 -7.33301 -26.667 -18 -38l-727 -842h546
c2 12.667 6.33301 33.667 13 63s11 50.666 13 63.999c5.33301 32.667 21.666 49 48.999 49h10h39l-31 -251h-763z" />
    <glyph glyph-name="braceleft" unicode="{" horiz-adv-x="636" 
d="M61 596l6.99902 61.001c48.667 0 88.667 13.833 120 41.5s49.666 64.167 54.999 109.5c6 48.667 4.66699 119.167 -4 211.5s-10 163.166 -4 212.499c8 64 29 118.667 63 164s78 78.666 132 99.999c36.667 14 77 21 121 21h55l-5 -42
c-0.666992 -6 -3.83398 -11.333 -9.50098 -16s-11.834 -7 -18.501 -7h-33c-41.333 0 -77.333 -8.5 -108 -25.5s-54.667 -40.667 -72 -71s-29.666 -64.666 -36.999 -102.999s-10 -80.5 -8 -126.5c0.666992 -20.667 2.33398 -46.834 5.00098 -78.501l7 -80.5
c2 -22 3 -47.667 3 -77s-1.66699 -56.333 -5 -81c-6 -46.667 -24.5 -86.167 -55.5 -118.5s-69.167 -53.833 -114.5 -64.5c40 -8.66699 72.333 -29.334 97 -62.001s34 -72.667 28 -120c-6 -51.333 -24.333 -122.5 -55 -213.5s-49 -162.5 -55 -214.5
c-8 -64 2.83301 -115.833 32.5 -155.5s74.5 -59.5 134.5 -59.5h33c6.66699 0 12.334 -2.16699 17.001 -6.5s6.66699 -9.83301 6 -16.5l-6 -42h-55c-84 0 -148.667 25.5 -194 76.5s-62.666 120.5 -51.999 208.5c3.33301 27.333 8.83301 55.833 16.5 85.5s15 55.334 22 77.001
l26.5 79.5l25 75c31.333 102.667 29 174.334 -7 215.001c-24.667 28.667 -60.667 43 -108 43z" />
    <glyph glyph-name="bar" unicode="|" horiz-adv-x="411" 
d="M167 -352v1869h75v-1869h-75z" />
    <glyph glyph-name="braceright" unicode="}" horiz-adv-x="652" 
d="M36 -264l5.00391 41.998c0.666992 6.66699 3.83398 12.167 9.50098 16.5s11.834 6.5 18.501 6.5h33c41.333 0 77.333 8.5 108 25.5s54.667 40.667 72 71s29.666 64.5 36.999 102.5s10 80 8 126c-0.666992 20.667 -2.33398 46.834 -5.00098 78.501l-7 81
c-2 22.333 -3 48.166 -3 77.499s1.66699 56.333 5 81c4 31.333 13.833 59.833 29.5 85.5s35.5 46.667 59.5 63s50.667 27.5 80 33.5c-40.667 10 -73 30.833 -97 62.5s-33 71.834 -27 120.501c6 52 24.333 123.333 55 214s49 162 55 214c8 64 -2.83301 115.833 -32.5 155.5
s-74.5 59.5 -134.5 59.5h-33c-6.66699 0 -12.334 2.16699 -17.001 6.5s-6.33398 9.83301 -5.00098 16.5l5 42h55c84 0 148.667 -25.5 194 -76.5s62.666 -120.5 51.999 -208.5c-4.66699 -34.667 -12.5 -71.334 -23.5 -110.001s-22 -72.667 -33 -102s-22 -63.333 -33 -102
s-18.5 -75.334 -22.5 -110.001c-6 -46 3.66699 -82.667 29 -110s61 -41 107 -41l-7 -61c-34.667 0 -64.334 -6.66699 -89.001 -20s-43.5 -31.833 -56.5 -55.5s-22.167 -50.667 -27.5 -81s-7 -64.166 -5 -101.499c1.33301 -19.333 3.5 -45.166 6.5 -77.499
s5.33301 -59.333 7 -81s2.66699 -47.167 3 -76.5s-1.16699 -56.666 -4.5 -81.999c-8 -64 -29 -118.667 -63 -164s-78 -78.333 -132 -99c-36.667 -14.667 -77 -22 -121 -22h-55z" />
    <glyph glyph-name="asciitilde" unicode="~" horiz-adv-x="1143" 
d="M113 434c6.66699 56.667 24.5 105.669 53.5 147.002s66.167 72 111.5 92c30.667 13.333 64.667 20 102 20c24 0 49.833 -3.83301 77.5 -11.5s48.5 -14.667 62.5 -21s35 -16.5 63 -30.5l27 -13.5l30 -15c6 -3 15.667 -7.16699 29 -12.5s24.333 -9.33301 33 -12
s19.167 -5 31.5 -7s23.833 -3 34.5 -3c52.667 0 95.167 17 127.5 51s51.5 77 57.5 129h78c-6.66699 -56.667 -24.5 -105.834 -53.5 -147.501s-66.167 -72.167 -111.5 -91.5c-30.667 -13.333 -64.667 -20 -102 -20c-24 0 -50 4 -78 12s-48.5 15 -61.5 21l-63.5 30
c-4.66699 2.66699 -12.334 6.5 -23.001 11.5s-19.167 9.16699 -25.5 12.5s-14.666 7.16602 -24.999 11.499s-19.5 8 -27.5 11s-16.833 5.83301 -26.5 8.5s-19.5 4.66699 -29.5 6s-19.667 2 -29 2c-52 0 -93.833 -17 -125.5 -51s-51.5 -77 -59.5 -129h-77z" />
    <glyph glyph-name="uni00A0" unicode="&#xa0;" horiz-adv-x="376" 
 />
    <glyph glyph-name="exclamdown" unicode="&#xa1;" horiz-adv-x="449" 
d="M74 -352l68 550c7.33301 63.333 26.333 182 57 356h65c-12 -174 -21.667 -292.667 -29 -356l-68 -550h-93zM199 852c-13.333 16 -19.999 33.6709 -19.999 53.0039s4.83301 36.666 14.5 51.999s22.834 28.166 39.501 38.499s33.667 15.5 51 15.5
c33.333 0 57.666 -13.833 72.999 -41.5s14.333 -56.834 -3 -87.501c-9.33301 -16.667 -21.833 -30.334 -37.5 -41.001s-33.834 -16 -54.501 -16c-26 0 -47 9 -63 27z" />
    <glyph glyph-name="cent" unicode="&#xa2;" horiz-adv-x="917" 
d="M74 498c14.667 114.667 49.0039 213.169 103.004 295.502s125.333 142.166 214 179.499c44 18.667 91.667 30.667 143 36l6 37.5c2.66699 16.333 4.66699 26.833 6 31.5l23 138c2 8.66699 6 16.167 12 22.5s13.333 9.5 22 9.5h36l-10.5 -61
c-5.66699 -32.667 -9.83398 -57.667 -12.501 -75l-18 -101c50 -3.33301 121.333 -19.333 214 -48l47 -14l-31 -251h-49c-7.33301 0 -13.5 1.33301 -18.5 4s-8.83301 6.66699 -11.5 12s-4.66699 11 -6 17s-2 13.333 -2 22s0.166992 16.5 0.5 23.5s0.833008 15.667 1.5 26
s1 18.166 1 23.499c1.33301 24 3 49.333 5 76c-60.667 22.667 -115.334 34 -164.001 34v-1l-47 -274l-56 -324.5l-47 -273.5c10 -0.666992 19.333 -1 28 -1c100.667 0 188 30.333 262 91c13.333 11.333 23.666 17 30.999 17c8.66699 0 15 -3.33301 19 -10l22 -32
c-38.667 -43.333 -88.834 -77.666 -150.501 -102.999s-130.5 -38 -206.5 -38h-19l-35 -209c-1.33301 -6 -3.33301 -11.167 -6 -15.5s-6.5 -8 -11.5 -11s-10.5 -4.5 -16.5 -4.5h-36l43 247c-107.333 19.333 -185.833 73.666 -235.5 162.999s-66.167 203 -49.5 341z
M171.004 498.002c-13.333 -112.667 -3.16797 -206.167 30.499 -280.5s90.834 -122.5 171.501 -144.5l148 859c-42 -6 -80.833 -18 -116.5 -36s-66.5 -40.167 -92.5 -66.5s-48.667 -57 -68 -92s-34.833 -72.333 -46.5 -112s-20.5 -82.167 -26.5 -127.5z" />
    <glyph glyph-name="sterling" unicode="&#xa3;" horiz-adv-x="1201" 
d="M48 0l8.00391 64.9971c123.333 45.333 192.333 125.666 207 240.999l40 326h-201l4 32c0.666992 10 4.66699 18.333 12 25s16.666 10 27.999 10h165l36 294c8 65.333 24.167 124.5 48.5 177.5s56.166 98.5 95.499 136.5s85.333 67.667 138 89
c54.667 22.667 116 34 184 34c61.333 0 114.666 -10 159.999 -30s81.5 -46.833 108.5 -80.5s48.833 -75.167 65.5 -124.5l-41 -22c-6.66699 -3.33301 -14.334 -5 -23.001 -5c-11.333 0 -20.333 5.66699 -27 17c-14 26.667 -27.667 48.834 -41 66.501
s-29.666 34.334 -48.999 50.001s-42.5 27.334 -69.5 35.001s-58.167 11.5 -93.5 11.5c-54.667 0 -103.667 -9 -147 -27s-79.333 -43.333 -108 -76s-51.667 -70 -69 -112s-29 -88.667 -35 -140l-36 -294h479l-5 -39c-0.666992 -7.33301 -4.33398 -13.833 -11.001 -19.5
s-14 -8.5 -22 -8.5h-449l-38 -304c-7.33301 -58.667 -25 -108.167 -53 -148.5s-65.667 -75.166 -113 -104.499c30 5.33301 59.667 8 89 8h787l-5 -40c-1.33301 -10.667 -6.83301 -20.5 -16.5 -29.5s-20.5 -13.5 -32.5 -13.5h-970z" />
    <glyph glyph-name="currency" unicode="&#xa4;" horiz-adv-x="1077" 
d="M70 300l173.002 152.999c-43.333 64 -60 136.667 -50 218c9.33301 80.667 43.333 152.667 102 216l-135 154l55 50l135 -154c71.333 52 147.333 78 228 78c80 0 148.667 -25.667 206 -77l173 154l43 -50l-172 -153c44 -65.333 61.333 -138 52 -218
c-10 -80 -44.667 -152 -104 -216l135 -154l-56 -50l-135 154c-28.667 -21.333 -60.834 -38.666 -96.501 -51.999s-75.167 -21.5 -118.5 -24.5s-85.333 3.5 -126 19.5c-34.667 13.333 -65.334 32 -92.001 56l-174 -154zM273.002 565.999
c15.333 -48.667 43 -88.332 83 -118.999s88.667 -46 146 -46c60.667 0 114.334 15.667 161.001 47s83.334 70.666 110.001 117.999c17.333 30.667 28.666 63.5 33.999 98.5s2.66602 72.167 -8.00098 111.5c-15.333 49.333 -43 89.5 -83 120.5s-89 46.5 -147 46.5
c-75.333 0 -142.333 -26.667 -201 -80c-39.333 -34.667 -69.5 -78.667 -90.5 -132s-22.5 -108.333 -4.5 -165z" />
    <glyph glyph-name="yen" unicode="&#xa5;" horiz-adv-x="1139" 
d="M64 382l6.99805 58h366l15 118h-366l7 58h346l-324 799h79c17.333 0 29.333 -8.33301 36 -25l264 -665c8.66699 -30.667 14.334 -54.667 17.001 -72c8.66699 22 20.334 46 35.001 72l427 665c9.33301 16.667 23 25 41 25h80l-521 -799h347l-7 -58h-366l-15 -118h366
l-7 -58h-366l-47 -382h-95l47 382h-366z" />
    <glyph glyph-name="brokenbar" unicode="&#xa6;" horiz-adv-x="421" 
d="M51 -352l95 777h75l-95 -777h-75zM185 739l95 778h75l-95 -778h-75z" />
    <glyph glyph-name="section" unicode="&#xa7;" horiz-adv-x="943" 
d="M50 -10l27 33.9961c8 10.667 18 16 30 16c8.66699 0 18.667 -5.33301 30 -16c60.667 -56.667 137.667 -85 231 -85c78.667 0 143.667 19.833 195 59.5s81.333 93.834 90 162.501c7.33301 60.667 -18 112.667 -76 156c-30.667 23.333 -71.667 46.5 -123 69.5l-150 69
c-48.667 23 -88 47.5 -118 73.5c-56.667 51.333 -80.667 113 -72 185c13.333 111.333 87.666 190.333 222.999 237c-22.667 16.667 -41.334 33.667 -56.001 51s-26.334 39.833 -35.001 67.5s-11 58.167 -7 91.5c7.33301 60 31.5 111.167 72.5 153.5
s90.833 73.833 149.5 94.5c42.667 14.667 89.334 22 140.001 22c62 0 115.167 -8.83301 159.5 -26.5s83.833 -44.167 118.5 -79.5l-25 -34c-12 -17.333 -29 -17.666 -51 -0.999023c-57.333 45.333 -127 68 -209 68c-37.333 0 -72 -5 -104 -15s-59.5 -23.833 -82.5 -41.5
s-41.833 -38.5 -56.5 -62.5c-14.667 -23.333 -23.5 -48.333 -26.5 -75s1.83301 -53 14.5 -79c8 -12.667 18 -25 30 -37s23.667 -22 35 -30s26 -17 44 -27s32.5 -17.5 43.5 -22.5l48.5 -22l45 -20.5c24.667 -11.333 44.667 -20.833 60 -28.5s33.666 -18 54.999 -31
s39 -25.5 53 -37.5s27.833 -26.667 41.5 -44s24.5 -35.666 32.5 -54.999c12.667 -28.667 17.5 -59.167 14.5 -91.5s-10 -62.166 -21 -89.499s-24.833 -51.333 -41.5 -72c-33.333 -40.667 -78.666 -72.667 -135.999 -96c34 -26 59.833 -55.167 77.5 -87.5
s23.834 -71.5 18.501 -117.5c-8.66699 -70 -34 -129 -76 -177s-95.333 -83.333 -160 -106c-45.333 -16 -95.666 -24 -150.999 -24c-66.667 0 -124 10.5 -172 31.5s-91.333 50.833 -130 89.5zM211 652.996c4.66699 -10 10.999 -20.0029 18.999 -30.0029
s15.667 -18.667 23 -26s17.166 -15.333 29.499 -24s22.166 -15.334 29.499 -20.001s19 -11 35 -19s27 -13.333 33 -16l35 -16c94 -43.333 154.333 -73 181 -89c45.333 19.333 81.333 44 108 74s42.667 68.333 48 115c2.66699 18.667 2.5 36.334 -0.5 53.001
s-7.16699 31.167 -12.5 43.5s-13.666 24.666 -24.999 36.999s-21.5 22.333 -30.5 30s-21.667 16.334 -38 26.001s-29.166 16.834 -38.499 21.501s-23 11 -41 19c-0.666992 0.666992 -1.5 1.16699 -2.5 1.5s-2 0.833008 -3 1.5s-1.83301 1 -2.5 1
c-12.667 6.66699 -30.834 15.334 -54.501 26.001l-64 29.5c-19 9 -36.5 18.167 -52.5 27.5c-62.667 -25.333 -108 -53.666 -136 -84.999c-14 -15.333 -25.667 -32.5 -35 -51.5s-15.166 -40 -17.499 -63s1.83398 -45.167 12.501 -66.5z" />
    <glyph glyph-name="dieresis" unicode="&#xa8;" horiz-adv-x="755" 
d="M149 1316c8 14.667 18.999 26.833 32.999 36.5s30 14.5 48 14.5c28 0 49.167 -12.5 63.5 -37.5s13.833 -50.5 -1.5 -76.5c-20 -32.667 -47.333 -49 -82 -49c-28.667 0 -49.667 12.167 -63 36.5s-12.666 49.5 2.00098 75.5zM490.999 1316
c8 14.667 18.998 26.833 32.998 36.5s30.333 14.5 49 14.5c28 0 49.167 -12.5 63.5 -37.5s13.833 -50.5 -1.5 -76.5c-20 -32.667 -47.333 -49 -82 -49c-29.333 0 -50.666 12 -63.999 36s-12.666 49.333 2.00098 76z" />
    <glyph glyph-name="copyright" unicode="&#xa9;" horiz-adv-x="1615" 
d="M90 516c-5.33301 39.333 -8.33496 76.3291 -9.00195 110.996s2 69.5 8 104.5s13.333 67.5 22 97.5s19.667 59.833 33 89.5s27 56.834 41 81.501s29.333 48.667 46 72c56 79.333 123.833 147.833 203.5 205.5s168.834 99.834 267.501 126.501
c63.333 17.333 128.333 26 195 26c104.667 0 197.5 -19.167 278.5 -57.5s149.833 -89.833 206.5 -154.5c56 -63.333 98 -137.833 126 -223.5s35.667 -181.167 23 -286.5c-24.667 -199.333 -116 -369.333 -274 -510c-100 -89.333 -214 -151.333 -342 -186
c-63.333 -17.333 -128.333 -26 -195 -26c-53.333 0 -104.333 5.33301 -153 16s-93 25.834 -133 45.501s-76.167 41.834 -108.5 66.501s-62.166 52.667 -89.499 84c-77.333 88.667 -126 194.667 -146 318zM165.998 446.996c24.667 -81.333 63.5 -152.168 116.5 -212.501
s117.167 -107.5 192.5 -141.5c76 -34.667 160 -52 252 -52c97.333 0 187.833 18 271.5 54s158.167 82.667 223.5 140c66 59.333 121.5 129.333 166.5 210s73.5 168.334 85.5 263.001c11.333 96 4.16602 184 -21.501 264s-64 149.667 -115 209s-114.667 106.833 -191 142.5
s-161.5 53.5 -255.5 53.5c-97.333 0 -187.666 -18 -270.999 -54s-157.333 -83.333 -222 -142c-68 -60.667 -124 -131.667 -168 -213c-26.667 -48 -47.667 -99.667 -63 -155s-24 -115 -26 -179s6.33301 -126.333 25 -187zM389.998 523.994
c-11.333 42 -16.001 85.8311 -14.001 131.498s8.33301 88.334 19 128.001s24.667 75.834 42 108.501c42 80.667 101.333 145.5 178 194.5s167.667 73.5 273 73.5c45.333 0 86.333 -4.66699 123 -14s68.167 -22 94.5 -38s51.833 -36 76.5 -60l-28 -33
c-11.333 -15.333 -26.666 -14.666 -45.999 2.00098c-53.333 46.667 -128.333 70 -225 70c-88 0 -163.167 -20 -225.5 -60s-110.5 -93.667 -144.5 -161c-21.333 -42.667 -36 -91.834 -44 -147.501s-6 -112.167 6 -169.5c17.333 -68 51.5 -121.333 102.5 -160
s116.5 -58 196.5 -58c58.667 0 108.834 6.83301 150.501 20.5s82.167 34.5 121.5 62.5c9.33301 6.66699 17.666 10 24.999 10c6 0 10.667 -2 14 -6l27 -31c-30 -27.333 -61.167 -50 -93.5 -68s-70.5 -32.667 -114.5 -44s-91.667 -17 -143 -17
c-98 0 -178.833 23.667 -242.5 71s-106.5 112.333 -128.5 195z" />
    <glyph glyph-name="ordfeminine" unicode="&#xaa;" horiz-adv-x="686" 
d="M102 981c2.66699 24.667 11 46.6641 25 65.9971s32.5 35.333 55.5 48s46 22.834 69 30.501s49.5 14.5 79.5 20.5c50.667 10.667 111 16.667 181 18l6 51c12.667 103.333 -28 155 -122 155c-56 0 -110 -19.333 -162 -58c-10 -7.33301 -18.667 -11 -26 -11
c-10 0 -17 4.33301 -21 13l-9 23c34.667 30.667 69.834 53.834 105.501 69.501s78.167 23.5 127.5 23.5c64.667 0 112.667 -19 144 -57s42.666 -90.667 33.999 -158l-46 -376h-32c-7.33301 0 -12.5 1.33301 -15.5 4s-5.83301 7.66699 -8.5 15l-1 68
c-38 -31.333 -74.5 -55.166 -109.5 -71.499s-77.167 -24.5 -126.5 -24.5c-48.667 0 -87 13 -115 39s-39 63.333 -33 112zM171 984.997c-4 -33.333 3.5 -58.666 22.5 -75.999s46.167 -26 81.5 -26c31.333 0 61 5 89 15s50.167 20.667 66.5 32s35.833 26.666 58.5 45.999
l17 138c-112.667 -3.33301 -195.5 -16.333 -248.5 -39s-81.833 -52.667 -86.5 -90z" />
    <glyph glyph-name="guillemotleft" unicode="&#xab;" horiz-adv-x="752" 
d="M86 513l2 12.999l287 378l28 -15c17.333 -12 18.333 -28 3 -48l-219 -293c-10 -13.333 -18.333 -23 -25 -29c6 -5.33301 12 -14.666 18 -27.999l147 -294c10.667 -20 5.66699 -36 -15 -48l-32 -15zM341 512.999l2 12.999l287 378l28 -15c17.333 -12 18.333 -28 3 -48
l-219 -293c-10 -13.333 -18.333 -23 -25 -29c6 -5.33301 12 -14.666 18 -27.999l147 -294c10.667 -20 5.66699 -36 -15 -48l-32 -15z" />
    <glyph glyph-name="logicalnot" unicode="&#xac;" horiz-adv-x="1080" 
d="M115 634l9 73h829l-45 -368h-82l36 295h-747z" />
    <glyph glyph-name="uni00AD" unicode="&#xad;" horiz-adv-x="726" 
d="M128 553l10 81h465l-10 -81h-465z" />
    <glyph glyph-name="registered" unicode="&#xae;" horiz-adv-x="1615" 
d="M90 516c-8 44 -10.8359 88.1631 -8.50293 132.496s7.33301 85.333 15 123s18.834 75.167 33.501 112.5s30.167 70.833 46.5 100.5s34.5 58.834 54.5 87.501c56 79.333 123.833 147.833 203.5 205.5s168.834 99.834 267.501 126.501c63.333 17.333 128.333 26 195 26
c104.667 0 197.5 -19.167 278.5 -57.5s149.833 -89.833 206.5 -154.5c56 -63.333 98 -137.833 126 -223.5s35.667 -181.167 23 -286.5c-24.667 -199.333 -116 -369.333 -274 -510c-100 -89.333 -214 -151.333 -342 -186c-63.333 -17.333 -128.333 -26 -195 -26
c-53.333 0 -104.333 5.33301 -153 16s-93 25.834 -133 45.501s-76.167 41.834 -108.5 66.501s-62.166 52.667 -89.499 84c-77.333 88.667 -126 194.667 -146 318zM165.997 446.996c24.667 -81.333 63.5 -152.168 116.5 -212.501s117.167 -107.5 192.5 -141.5
c76 -34.667 160 -52 252 -52c97.333 0 187.833 18 271.5 54s158.167 82.667 223.5 140c66 59.333 121.5 129.333 166.5 210s73.5 168.334 85.5 263.001c11.333 96 4.16602 184 -21.501 264s-64 149.667 -115 209s-114.667 106.833 -191 142.5s-161.5 53.5 -255.5 53.5
c-97.333 0 -187.666 -18 -270.999 -54s-157.333 -83.333 -222 -142c-68 -60.667 -124 -131.667 -168 -213c-26.667 -48 -47.667 -99.667 -63 -155s-24 -115 -26 -179s6.33301 -126.333 25 -187zM486.997 265.994l109.001 885.001h247c46.667 0 87.667 -4 123 -12
s66.166 -20.833 92.499 -38.5s45.166 -41.834 56.499 -72.501s14.333 -67.334 9 -110.001c-8 -69.333 -36.833 -124.833 -86.5 -166.5s-112.834 -67.5 -189.501 -77.5c14.667 -8.66699 26.334 -22 35.001 -40l240 -368h-80c-14 0 -23.667 5.33301 -29 16l-227 351
c-5.33301 8.66699 -12.166 14.834 -20.499 18.501s-20.5 5.5 -36.5 5.5h-110l-48 -391h-85zM627.998 720.995h148.003c77.333 0 138.666 15.5 183.999 46.5s71.666 78.167 78.999 141.5c8 64.667 -5.33301 110.167 -40 136.5s-89.334 39.5 -164.001 39.5h-162z" />
    <glyph glyph-name="macron" unicode="&#xaf;" horiz-adv-x="797" 
d="M135 1252l8 65h545l-8 -65h-545z" />
    <glyph glyph-name="degree" unicode="&#xb0;" horiz-adv-x="797" 
d="M118 1018c-10 35.333 -14.167 68.499 -12.5 99.499s8.66699 61.333 21 91s26.5 55.667 42.5 78s33.667 42.166 53 59.499c64.667 57.333 139.334 86 224.001 86c44 0 83.667 -8 119 -24s64.166 -37.333 86.499 -64s38.833 -57.667 49.5 -93
c9.33301 -35.333 13.333 -68.666 12 -99.999s-8.16602 -61.666 -20.499 -90.999s-26.5 -55.166 -42.5 -77.499s-33.667 -41.833 -53 -58.5c-65.333 -58.667 -140 -88 -224 -88c-32.667 0 -63.334 4.66699 -92.001 14s-53.5 22.166 -74.5 38.499s-39 35.5 -54 57.5
s-26.5 46 -34.5 72zM186 1044c12.667 -42 36.001 -75.834 70.001 -101.501s75.667 -38.5 125 -38.5c52 0 97.5 13.167 136.5 39.5s69.5 59.833 91.5 100.5c14.667 26 24.167 54 28.5 84s2.16602 62 -6.50098 96c-12.667 42 -35.667 76 -69 102s-74.666 39 -123.999 39
c-64.667 0 -122 -22.667 -172 -68c-32.667 -29.333 -57.834 -66.666 -75.501 -111.999s-19.167 -92.333 -4.5 -141z" />
    <glyph glyph-name="plusminus" unicode="&#xb1;" horiz-adv-x="1149" 
d="M60 80l9 73h939l-9 -73h-939zM133 674l9 73h430l50 406h78l-50 -406h431l-9 -73h-431l-49 -402h-78l49 402h-430z" />
    <glyph glyph-name="uni00B2" unicode="&#xb2;" horiz-adv-x="677" 
d="M79 900l3.00098 24.0039c1.33301 12.667 7.33301 23 18 31l264 237l42.5 38.5c11 10.333 23.667 23.166 38 38.499s26.833 30.666 37.5 45.999s19.667 31.333 27 48c13.333 25.333 19.5 54.833 18.5 88.5s-10.833 59.5 -29.5 77.5c-24.667 22.667 -57.5 33.667 -98.5 33
s-74.167 -12 -99.5 -34c-26.667 -24 -49 -54.333 -67 -91c-6 -12.667 -15.667 -19 -29 -19c-7.33301 0 -13 0.666992 -17 2l-30 5c10.667 39.333 27.167 73.666 49.5 102.999s51.166 52.666 86.499 69.999s75.333 26 120 26c62 0 110.667 -17.167 146 -51.5
s49.333 -82.5 42 -144.5c-2 -13.333 -4.66699 -26.333 -8 -39s-7.83301 -24.834 -13.5 -36.501l-16.5 -32.5c-5.33301 -10 -12.333 -20.333 -21 -31l-22.5 -27c-6.33301 -7.33301 -15 -16 -26 -26l-25.5 -23.5c-6 -5.66699 -15 -13.667 -27 -24s-20.333 -17.833 -25 -22.5
l-233 -210c26 6.66699 52.333 10 79 10h235l4 19.5l4.5 21.5c1 4.66699 2.83301 10.667 5.5 18s5.5 12.833 8.5 16.5s7.16699 6.83398 12.5 9.50098s11.333 4 18 4h22l-19 -155h-474z" />
    <glyph glyph-name="uni00B3" unicode="&#xb3;" horiz-adv-x="657" 
d="M79 1076l32.0029 13c5.33301 2.66699 10.666 4 15.999 4c6.66699 0 12 -2 16 -6s6.83301 -8.33301 8.5 -13s3.5 -11 5.5 -19s3.66699 -14 5 -18c9.33301 -26.667 25.833 -47.5 49.5 -62.5s53.5 -22.5 89.5 -22.5c38.667 0 72.334 8.83301 101.001 26.5
s50.334 40.5 65.001 68.5c13.333 24.667 19 52.334 17 83.001s-12.667 54.334 -32 71.001c-28.667 26 -77 39 -145 39l6 49c56.667 1.33301 102.334 13.666 137.001 36.999s54.667 57.666 60 102.999c5.33301 42.667 -3.33398 75.5 -26.001 98.5s-55.334 34.5 -98.001 34.5
c-43.333 0 -78.333 -11 -105 -33s-48.334 -52.333 -65.001 -91c-5.33301 -13.333 -14 -20 -26 -20c-4.66699 0 -12 1 -22 3l-24 4c16 59.333 45.667 107.166 89 143.499s97.666 54.5 162.999 54.5c59.333 0 106.666 -15.833 141.999 -47.5s49.666 -76.5 42.999 -134.5
c-5.33301 -43.333 -21.833 -79.666 -49.5 -108.999s-62.167 -50.333 -103.5 -63c96.667 -23.333 139.667 -79 129 -167c-6 -48.667 -24.167 -89.5 -54.5 -122.5s-68.166 -57.167 -113.499 -72.5c-30 -10 -61 -15 -93 -15c-67.333 0 -117.5 15.167 -150.5 45.5
s-55.167 76.5 -66.5 138.5z" />
    <glyph glyph-name="acute" unicode="&#xb4;" horiz-adv-x="546" 
d="M112 1161l186 238c9.33301 12 18 20.333 26 25s20.333 7 37 7h94l-247 -253c-10.667 -11.333 -23.667 -17 -39 -17h-57z" />
    <glyph glyph-name="uni00B5" unicode="&#xb5;" horiz-adv-x="1114" 
d="M73 -310l161.001 1305h96l-78 -636c-12 -94.667 0.5 -168.167 37.5 -220.5s98.5 -78.5 184.5 -78.5c126.667 0 245 62.333 355 187l92 748h96l-122 -995h-53c-18.667 0 -27.334 8.66699 -26.001 26l9 148c-51.333 -56 -106 -100 -164 -132s-124.667 -48 -200 -48
c-127.333 0 -210.333 49.667 -249 149c0 -46 -4 -101.667 -12 -167l-41 -328h-48c-8.66699 0 -16 1.66699 -22 5s-10.333 8.16602 -13 14.499s-3.66699 13.833 -3 22.5z" />
    <glyph glyph-name="paragraph" unicode="&#xb6;" horiz-adv-x="1336" 
d="M96 920c-13.333 42.667 -19.002 83.667 -17.002 123s10.833 76.833 26.5 112.5s34.334 67.167 56.001 94.5s45.167 50.333 70.5 69c87.333 64 199.333 96 336 96h724l-10 -82h-225l-187 -1523h-85l187 1523h-328l-187 -1523h-86l109 889c-98 0 -180.667 19 -248 57
s-112.666 92.667 -135.999 164z" />
    <glyph glyph-name="periodcentered" unicode="&#xb7;" horiz-adv-x="452" 
d="M140 632c9.33301 18 22.5 32.999 39.5 44.999s36.5 18 58.5 18c36.667 0 63.5 -15.167 80.5 -45.5s16.167 -62.166 -2.5 -95.499c-10 -18 -23.833 -32.833 -41.5 -44.5s-38.167 -17.5 -61.5 -17.5c-34.667 0 -60 15.333 -76 46s-15 62 3 94z" />
    <glyph glyph-name="cedilla" unicode="&#xb8;" horiz-adv-x="571" 
d="M103 -313l12.9961 27.999c5.33301 8 11.333 12 18 12c3.33301 0 6.83301 -1 10.5 -3s7.83398 -4.66699 12.501 -8s8 -5.33301 10 -6c22.667 -12 49.667 -18 81 -18c21.333 0 40.333 3 57 9s30.334 15.333 41.001 28s17.334 27.667 20.001 45
c1.33301 12 0.5 22.833 -2.5 32.5s-8.83301 17.667 -17.5 24s-17 11.666 -25 15.999s-19.5 8 -34.5 11s-26.667 5.16699 -35 6.5s-20.833 3 -37.5 5c-6.66699 0.666992 -11.334 1.33398 -14.001 2.00098l58 134h61l-42 -96c21.333 -4 39.166 -7.83301 53.499 -11.5
s29.833 -9 46.5 -16s29.667 -15 39 -24s16.666 -20.667 21.999 -35s7 -30.5 5 -48.5c-5.33301 -42 -26.666 -74 -63.999 -96s-82.666 -33 -135.999 -33c-27.333 0 -53.666 3.83301 -78.999 11.5s-45.666 17.834 -60.999 30.501z" />
    <glyph glyph-name="uni00B9" unicode="&#xb9;" horiz-adv-x="540" 
d="M90 900l5.99902 49h158l66 540l9 37l-160 -126c-5.33301 -4 -10.666 -6 -15.999 -6c-7.33301 0 -13 3 -17 9l-18 31l233 184h58l-82 -669h147l-6 -49h-378z" />
    <glyph glyph-name="ordmasculine" unicode="&#xba;" horiz-adv-x="777" 
d="M113 1128c8.66699 69.333 30.3311 128 64.998 176s80.334 82.667 137.001 104c36.667 14 77.667 21 123 21c88.667 0 155.167 -26.667 199.5 -80s60.5 -127 48.5 -221c-10.667 -90.667 -43.667 -163.5 -99 -218.5s-129.666 -82.5 -222.999 -82.5
c-88.667 0 -155.5 26.5 -200.5 79.5s-61.833 126.833 -50.5 221.5zM188.997 1128c-9.33301 -76.667 1.16699 -136.332 31.5 -178.999s80.833 -64 151.5 -64c36 0 68.333 6 97 18s52.5 29.167 71.5 51.5s34.333 47.833 46 76.5s19.5 61 23.5 97
c9.33301 76 -1 135.5 -31 178.5s-79.333 64.5 -148 64.5c-72 0 -128 -21.833 -168 -65.5s-64.667 -102.834 -74 -177.501z" />
    <glyph glyph-name="guillemotright" unicode="&#xbb;" horiz-adv-x="753" 
d="M88 197l219.001 294.001c8 12 16.333 21.333 25 28c-7.33301 9.33301 -13.333 19 -18 29l-147 293c-5.33301 10.667 -6.33301 20.167 -3 28.5s9.66602 14.833 18.999 19.5l32 15l194 -378l-1 -13l-288 -379l-28 15c-9.33301 5.33301 -14 12.666 -14 21.999
s3.33301 18 10 26zM343.001 197.001l219.001 294.001c8 12 16.333 21.333 25 28c-7.33301 9.33301 -13.333 19 -18 29l-147 293c-5.33301 10.667 -6.33301 20.167 -3 28.5s9.66602 14.833 18.999 19.5l32 15l194 -378l-1 -13l-288 -379l-28 15
c-9.33301 5.33301 -14 12.666 -14 21.999s3.33301 18 10 26z" />
    <glyph glyph-name="onequarter" unicode="&#xbc;" horiz-adv-x="1285" 
d="M64 701l5.99902 49h158l66 540l9 37l-160 -126c-5.33301 -4 -10.666 -6 -15.999 -6c-7.33301 0 -13 3 -17 9l-18 31l233 184h58l-82 -669h147l-6 -49h-378zM118.999 0l968.999 1380c8.66699 11.333 17.334 20 26.001 26s20 9 34 9h42l-972 -1384
c-15.333 -20.667 -35 -31 -59 -31h-40zM683.998 243l409.999 472h67l-58 -468h126l-4 -36c-1.33301 -10.667 -7.66602 -16 -18.999 -16h-109l-24 -195h-63l24 195h-325c-15.333 0 -23 5.33301 -23 16zM753.997 247l286 0.000976562l41 335
c2 15.333 5.33301 32.666 10 51.999z" />
    <glyph glyph-name="onehalf" unicode="&#xbd;" horiz-adv-x="1299" 
d="M70 701l5.99902 49h158l66 540l9 37l-160 -126c-5.33301 -4 -10.666 -6 -15.999 -6c-7.33301 0 -13 3 -17 9l-18 31l233 184h58l-82 -669h147l-6 -49h-378zM77.999 0l968.999 1380c8.66699 11.333 17.334 20 26.001 26s20 9 34 9h42l-972 -1384
c-15.333 -20.667 -35 -31 -59 -31h-40zM692.998 0l2.99414 24.001c1.33301 12.667 7.33301 23 18 31l264 237c17.333 15.333 31.333 28.166 42 38.499l38 38.5c14.667 15.333 27.334 30.666 38.001 45.999s19.667 31.333 27 48c13.333 25.333 19.5 54.833 18.5 88.5
s-10.833 59.5 -29.5 77.5c-23.333 22.667 -55.333 34 -96 34c-41.333 0 -75.166 -11.5 -101.499 -34.5s-48.833 -53.5 -67.5 -91.5c-6 -12.667 -15.667 -19 -29 -19c-8 0 -13.667 0.666992 -17 2l-30 5c16.667 60 46.834 108.167 90.501 144.5s98.834 54.5 165.501 54.5
c62 0 110.667 -17.167 146 -51.5s49.333 -82.5 42 -144.5c-2 -15.333 -5.33301 -30.333 -10 -45s-9.5 -27.667 -14.5 -39s-12.167 -23.5 -21.5 -36.5s-17.166 -23.5 -23.499 -31.5s-15.833 -18.167 -28.5 -30.5l-28 -27c-6 -5.66699 -16.333 -14.834 -31 -27.501
s-24 -21 -28 -25l-233 -210c26 6.66699 52.333 10 79 10h235c0.666992 3.33301 1.83398 9.83301 3.50098 19.5s3.16699 16.834 4.5 21.501s3.33301 10.667 6 18s5.5 12.833 8.5 16.5s7.16699 6.83398 12.5 9.50098s11.333 4 18 4h22l-19 -155h-474z" />
    <glyph glyph-name="threequarters" unicode="&#xbe;" horiz-adv-x="1352" 
d="M63 877l32.0029 12.998c5.33301 2.66699 10.666 4 15.999 4c6.66699 0 12 -2 16 -6s6.83301 -8.33301 8.5 -13s3.5 -11 5.5 -19s3.66699 -14 5 -18c9.33301 -26.667 25.833 -47.5 49.5 -62.5s53.5 -22.5 89.5 -22.5c26 0 50.167 4.33301 72.5 13s41 19.834 56 33.501
s27.5 29.834 37.5 48.501c13.333 24.667 19 52.334 17 83.001s-12.667 54.334 -32 71.001c-28.667 26 -77 39 -145 39l6 49c56.667 1.33301 102.334 13.666 137.001 36.999s54.667 57.666 60 102.999c5.33301 42.667 -3.33398 75.5 -26.001 98.5s-55.334 34.5 -98.001 34.5
c-74.667 0 -131.334 -41.333 -170.001 -124c-6 -13.333 -14.667 -20 -26 -20h-3c-6 0 -20.333 2.33301 -43 7c10.667 38.667 26.834 72.667 48.501 102s50 52.666 85 69.999s74.5 26 118.5 26c59.333 0 106.666 -15.833 141.999 -47.5s49.666 -76.5 42.999 -134.5
c-5.33301 -43.333 -21.833 -79.666 -49.5 -108.999s-62.167 -50.333 -103.5 -63c96.667 -23.333 139.667 -79 129 -167c-6 -48.667 -24.167 -89.5 -54.5 -122.5s-68.166 -57.167 -113.499 -72.5c-30 -10 -61 -15 -93 -15c-67.333 0 -117.5 15.167 -150.5 45.5
s-55.167 76.5 -66.5 138.5zM193.003 -0.00195312l969.999 1380c5.33301 7.33301 10.333 13.333 15 18s10.834 8.66699 18.501 12s16.167 5 25.5 5h42l-972 -1384c-15.333 -20.667 -35 -31 -59 -31h-40zM750.002 242.998l409.999 472h67l-57 -468h126l-5 -36
c-1.33301 -10.667 -7.66602 -16 -18.999 -16h-109l-24 -195h-63l24 195h-325c-15.333 0 -23 5.33301 -23 16zM821.001 246.998l286 0.000976562l41 335c2 15.333 5 32.666 9 51.999z" />
    <glyph glyph-name="questiondown" unicode="&#xbf;" horiz-adv-x="796" 
d="M81 -190c-14 44.667 -17.666 90.1709 -10.999 136.504s19.334 86.5 38.001 120.5c36.667 62.667 89 115.667 157 159l32 19.5l34 20.5c8.66699 5.33301 18.667 11.833 30 19.5s21.833 15.167 31.5 22.5s18.5 14.666 26.5 21.999c19.333 17.333 31 37.666 35 60.999
l31 163h65l-15 -170c-3.33301 -30 -13.5 -54.833 -30.5 -74.5s-39.833 -39.167 -68.5 -58.5c-12 -8 -30 -19.333 -54 -34l-64.5 -41c-19 -12.667 -35.833 -25.334 -50.5 -38.001c-62.667 -54.667 -98.667 -119.334 -108 -194.001
c-8.66699 -70.667 9.16602 -126.5 53.499 -167.5s103.5 -61.5 177.5 -61.5c98.667 0 184.667 31.667 258 95c13.333 12 23.333 18 30 18c9.33301 0 16.333 -4.33301 21 -13l20 -39c-104 -92.667 -219 -139 -345 -139c-48.667 0 -92.834 7 -132.501 21s-73 34 -100 60
s-47.167 56.667 -60.5 92zM507.001 983.004c20 18.667 42.667 28 68 28c33.333 0 57.666 -14 72.999 -42s14.333 -57.333 -3 -88c-21.333 -36.667 -52 -55 -92 -55c-27.333 0 -48.166 9.5 -62.499 28.5s-20 41 -17 66s14.167 45.833 33.5 62.5z" />
    <glyph glyph-name="Agrave" unicode="&#xc0;" 
d="M36 0l6.00195 46.0039c2.66699 24 17 37.333 43 40l66 7l703 1322h102l379 -1322l64 -7c25.333 -2.66699 36.333 -16 33 -40l-5 -46h-345l5 46c1.33301 7.33301 3.66602 13.666 6.99902 18.999s8.16602 9.5 14.499 12.5s12.666 5.5 18.999 7.5s14.333 3.5 24 4.5
s18.167 1.66699 25.5 2s16.5 0.5 27.5 0.5s19.5 0.333008 25.5 1l-47 165l-58 206h-674l-62.5 -118.5l-71.5 -135.5l-62 -117c10 -0.666992 20.667 -1.33398 32 -2.00098s22 -1.33398 32 -2.00098s19 -1.33398 27 -2.00098c30.667 -1.33301 44.334 -15 41.001 -41l-6 -46
h-345zM491.002 540.004h613l-194 689c-5.33301 19.333 -11 47.333 -17 84c-14.667 -34.667 -27.667 -63 -39 -85zM654.002 1770h112.999c16 0 27.5 -1.33301 34.5 -4s14.833 -8.66699 23.5 -18l203 -206h-71c-15.333 0 -27.666 4 -36.999 12z" />
    <glyph glyph-name="Aacute" unicode="&#xc1;" 
d="M36 0l6.00195 46.0039c2.66699 24 17 37.333 43 40l66 7l703 1322h102l379 -1322l64 -7c25.333 -2.66699 36.333 -16 33 -40l-5 -46h-345l5 46c1.33301 7.33301 3.66602 13.666 6.99902 18.999s8.16602 9.5 14.499 12.5s12.666 5.5 18.999 7.5s14.333 3.5 24 4.5
s18.167 1.66699 25.5 2s16.5 0.5 27.5 0.5s19.5 0.333008 25.5 1l-47 165l-58 206h-674l-62.5 -118.5l-71.5 -135.5l-62 -117c10 -0.666992 20.667 -1.33398 32 -2.00098s22 -1.33398 32 -2.00098s19 -1.33398 27 -2.00098c30.667 -1.33301 44.334 -15 41.001 -41l-6 -46
h-345zM491.002 540.004h613l-194 689c-5.33301 19.333 -11 47.333 -17 84c-14.667 -34.667 -27.667 -63 -39 -85zM808.002 1542l252 206c5.33301 4.66699 9.83301 8.16699 13.5 10.5s8 4.5 13 6.5s10.333 3.33301 16 4s13.167 1 22.5 1h112l-319 -216
c-12 -8 -25.333 -12 -40 -12h-70z" />
    <glyph glyph-name="Acircumflex" unicode="&#xc2;" 
d="M36 0l6.00195 46.0039c2.66699 24 17 37.333 43 40l66 7l703 1322h102l379 -1322l64 -7c25.333 -2.66699 36.333 -16 33 -40l-5 -46h-345l5 46c1.33301 7.33301 3.66602 13.666 6.99902 18.999s8.16602 9.5 14.499 12.5s12.666 5.5 18.999 7.5s14.333 3.5 24 4.5
s18.167 1.66699 25.5 2s16.5 0.5 27.5 0.5s19.5 0.333008 25.5 1l-47 165l-58 206h-674l-62.5 -118.5l-71.5 -135.5l-62 -117c10 -0.666992 20.667 -1.33398 32 -2.00098s22 -1.33398 32 -2.00098s19 -1.33398 27 -2.00098c30.667 -1.33301 44.334 -15 41.001 -41l-6 -46
h-345zM491.002 540.004h613l-194 689c-5.33301 19.333 -11 47.333 -17 84c-14.667 -34.667 -27.667 -63 -39 -85zM640.002 1542l259.001 199h90l211 -199h-73c-13.333 0 -24.333 3.33301 -33 10l-141 123c-4.66699 4 -9.33398 8.66699 -14.001 14
c-4 -3.33301 -10.333 -8 -19 -14l-172 -123c-10.667 -6.66699 -22 -10 -34 -10h-74z" />
    <glyph glyph-name="Atilde" unicode="&#xc3;" 
d="M36 0l6.00195 46.0039c2.66699 24 17 37.333 43 40l66 7l703 1322h102l379 -1322l64 -7c25.333 -2.66699 36.333 -16 33 -40l-5 -46h-345l5 46c1.33301 7.33301 3.66602 13.666 6.99902 18.999s8.16602 9.5 14.499 12.5s12.666 5.5 18.999 7.5s14.333 3.5 24 4.5
s18.167 1.66699 25.5 2s16.5 0.5 27.5 0.5s19.5 0.333008 25.5 1l-47 165l-58 206h-674l-62.5 -118.5l-71.5 -135.5l-62 -117c10 -0.666992 20.667 -1.33398 32 -2.00098s22 -1.33398 32 -2.00098s19 -1.33398 27 -2.00098c30.667 -1.33301 44.334 -15 41.001 -41l-6 -46
h-345zM491.002 540.004h613l-194 689c-5.33301 19.333 -11 47.333 -17 84c-14.667 -34.667 -27.667 -63 -39 -85zM671.002 1553c6 47.333 22.8311 86.499 50.498 117.499s64.5 46.5 110.5 46.5c15.333 0 31 -3.16699 47 -9.5s27.5 -11.833 34.5 -16.5l34.5 -24
c2.66699 -2.66699 8.16699 -7 16.5 -13l19.5 -14c4.66699 -3.33301 10.834 -7.16602 18.501 -11.499s15.334 -7.5 23.001 -9.5s15.5 -3 23.5 -3c28 0 50.5 9.16699 67.5 27.5s27.5 41.833 31.5 70.5h54c-2.66699 -22.667 -8 -43.667 -16 -63s-18.333 -36.666 -31 -51.999
s-28.667 -27.333 -48 -36s-40.666 -13 -63.999 -13c-14.667 0 -30.167 3.33301 -46.5 10s-27.833 12.167 -34.5 16.5s-18 12.166 -34 23.499l-17 13c-8.66699 6.66699 -15.167 11.5 -19.5 14.5s-10.5 6.66699 -18.5 11s-15.833 7.5 -23.5 9.5s-15.5 3 -23.5 3
c-28 0 -50.333 -9.33301 -67 -28s-27.334 -42 -32.001 -70h-56z" />
    <glyph glyph-name="Adieresis" unicode="&#xc4;" 
d="M36 0l6.00195 46.0039c2.66699 24 17 37.333 43 40l66 7l703 1322h102l379 -1322l64 -7c25.333 -2.66699 36.333 -16 33 -40l-5 -46h-345l5 46c1.33301 7.33301 3.66602 13.666 6.99902 18.999s8.16602 9.5 14.499 12.5s12.666 5.5 18.999 7.5s14.333 3.5 24 4.5
s18.167 1.66699 25.5 2s16.5 0.5 27.5 0.5s19.5 0.333008 25.5 1l-47 165l-58 206h-674l-62.5 -118.5l-71.5 -135.5l-62 -117c10 -0.666992 20.667 -1.33398 32 -2.00098s22 -1.33398 32 -2.00098s19 -1.33398 27 -2.00098c30.667 -1.33301 44.334 -15 41.001 -41l-6 -46
h-345zM491.002 540.004h613l-194 689c-5.33301 19.333 -11 47.333 -17 84c-14.667 -34.667 -27.667 -63 -39 -85zM656.002 1696c19.333 34 46 51 80 51c28 0 48.833 -12.5 62.5 -37.5s13.167 -50.167 -1.5 -75.5c-19.333 -32 -46.333 -48 -81 -48
c-28 0 -48.5 11.833 -61.5 35.5s-12.5 48.5 1.5 74.5zM1093 1722c18 16.667 38 24.999 60 24.999c23.333 0 41.333 -8.5 54 -25.5s17.5 -36.5 14.5 -58.5s-12.5 -40 -28.5 -54c-19.333 -15.333 -39.333 -23 -60 -23c-24.667 0 -43.167 8.16699 -55.5 24.5s-17 35.333 -14 57
s12.833 39.834 29.5 54.501z" />
    <glyph glyph-name="Aring" unicode="&#xc5;" 
d="M36 0l6.00195 46.0039c2.66699 24 17 37.333 43 40l66 7l703 1322h102l379 -1322l64 -7c25.333 -2.66699 36.333 -16 33 -40l-5 -46h-345l5 46c1.33301 7.33301 3.66602 13.666 6.99902 18.999s8.16602 9.5 14.499 12.5s12.666 5.5 18.999 7.5s14.333 3.5 24 4.5
s18.167 1.66699 25.5 2s16.5 0.5 27.5 0.5s19.5 0.333008 25.5 1l-47 165l-58 206h-674l-62.5 -118.5l-71.5 -135.5l-62 -117c10 -0.666992 20.667 -1.33398 32 -2.00098s22 -1.33398 32 -2.00098s19 -1.33398 27 -2.00098c30.667 -1.33301 44.334 -15 41.001 -41l-6 -46
h-345zM491.002 540.004h613l-194 689c-5.33301 19.333 -11 47.333 -17 84c-14.667 -34.667 -27.667 -63 -39 -85zM785.002 1693c16 28.667 38.168 51.833 66.501 69.5s61.166 26.5 98.499 26.5c46.667 0 84.5 -14.667 113.5 -44s40.833 -67.666 35.5 -114.999
c-6 -46 -26.333 -83.833 -61 -113.5s-77 -44.5 -127 -44.5c-46.667 0 -84 14.667 -112 44c-20 21.333 -31.5 49.166 -34.5 83.499s3.83301 65.5 20.5 93.5zM817.003 1630c-4.66699 -34 2.66602 -61.499 21.999 -82.499s45.666 -31.5 78.999 -31.5s62 11 86 33s38 49 42 81
c4 33.333 -3.5 60.666 -22.5 81.999s-44.833 32 -77.5 32c-17.333 0 -33.666 -3 -48.999 -9s-28.5 -14 -39.5 -24s-20.167 -22 -27.5 -36s-11.666 -29 -12.999 -45z" />
    <glyph glyph-name="AE" unicode="&#xc6;" horiz-adv-x="2024" 
d="M37 0l5.99902 45.999c2.66699 24 17 37.333 43 40l64 7l841 1244c-6.66699 0.666992 -13.834 0.833984 -21.501 0.500977s-15.5 -0.333008 -23.5 0s-15.667 0.5 -23 0.5s-14.166 0.833008 -20.499 2.5s-11.666 3.83398 -15.999 6.50098s-7.66602 6.33398 -9.99902 11.001
s-3.16602 10.334 -2.49902 17.001l5 40h169h955l-18 -148.5l-18 -144.5h-48c-27.333 0 -40 16 -38 48l12 160h-715l2 -572h561l-10 -83h-551l3 -590h557l16 91.5c8 45 12 67.833 12 68.5c5.33301 32 21.666 48 48.999 48h48l-36 -293h-889l5 40
c1.33301 7.33301 4.33301 13.666 9 18.999s10.667 9.16602 18 11.499s15.666 4.16602 24.999 5.49902s19.166 2 29.499 2h31h29.5l-2 360h-596l-232 -345l31.5 -2c11 -0.666992 21.5 -1.5 31.5 -2.5s19 -1.5 27 -1.5c30.667 -1.33301 44.334 -15 41.001 -41l-6 -46h-345z
M540.999 513.999h544l-4 823c-11.333 -25.333 -28.333 -57 -51 -95z" />
    <glyph glyph-name="Ccedilla" unicode="&#xc7;" horiz-adv-x="1309" 
d="M86 410c-9.33301 40 -15.5059 81.9971 -18.5059 125.997s-2.66699 86.667 1 128s9.83398 82.5 18.501 123.5s19.167 79.333 31.5 115s26.166 68.834 41.499 99.501c44 87.333 100.333 163 169 227s148.334 113.667 239.001 149c88.667 35.333 184.334 53 287.001 53
c132.667 0 279.334 -33.667 440.001 -101l-39 -320h-49c-27.333 0 -39.666 16.333 -36.999 49c1.33301 15.333 6.66602 87.333 15.999 216c-98.667 45.333 -212.334 68 -341.001 68c-174 0 -322 -57.333 -444 -172c-59.333 -55.333 -108.333 -122.333 -147 -201
s-63.667 -166 -75 -262c-18 -146 -3.16699 -270 44.5 -372s122.167 -175.667 223.5 -221c66 -28.667 139.333 -43 220 -43c96.667 0 179 13.167 247 39.5s133 65.5 195 117.5c8 6 15 9 21 9c6.66699 0 12 -2.33301 16 -7l35 -43c-67.333 -64 -142.833 -113.667 -226.5 -149
s-181.5 -53.666 -293.5 -54.999l-18 -41.5c-8 -18.333 -12.667 -29.5 -14 -33.5c20.667 -4 38.167 -7.83301 52.5 -11.5s29.833 -9 46.5 -16s29.667 -15 39 -24s16.666 -20.667 21.999 -35s7 -30.5 5 -48.5c-5.33301 -42 -26.666 -74 -63.999 -96s-82.666 -33 -135.999 -33
c-26.667 0 -52.667 3.83301 -78 11.5s-46 17.834 -62 30.501l14 28c4.66699 8 10.334 12 17.001 12c3.33301 0 6.83301 -1 10.5 -3s7.83398 -4.66699 12.501 -8s8.33398 -5.33301 11.001 -6c22.667 -12 49.334 -18 80.001 -18c21.333 0 40.333 3 57 9s30.5 15.333 41.5 28
s17.5 27.667 19.5 45c1.33301 12 0.5 22.833 -2.5 32.5s-8.83301 17.667 -17.5 24s-17 11.666 -25 15.999s-19.333 8 -34 11s-26.334 5.16699 -35.001 6.5s-21 3 -37 5c-6.66699 0.666992 -11.667 1.33398 -15 2.00098l50 115c-138 8 -250.667 49.333 -338 124
s-146.333 174.667 -177 300z" />
    <glyph glyph-name="Egrave" unicode="&#xc8;" horiz-adv-x="1244" 
d="M33 0l5.00098 40.001c0.666992 5.33301 2 10 4 14s4.5 7.16699 7.5 9.5s6.83301 4.5 11.5 6.5s9.16699 3.33301 13.5 4s9.83301 1.33398 16.5 2.00098s12.334 1 17.001 1h18.5h18.5c20 0.666992 42 1.66699 66 3l154 1256c-11.333 0 -31.833 0.5 -61.5 1.5
s-51.834 1.83301 -66.501 2.5c-26 1.33301 -37.667 13 -35 35l5 40h168h848l-18 -146.5l-18 -146.5h-48c-27.333 0 -40 16 -38 48l12 160h-645l-70 -572h563l-11 -83h-563l-72 -590h645c18 105.333 27.333 158.666 28 159.999c5.33301 32 21.666 48 48.999 48h48l-11 -92.5
l-13 -108.5c-4 -32.667 -8 -63.334 -12 -92.001h-1016zM558.001 1770h112.999c16 0 27.5 -1.33301 34.5 -4s14.833 -8.66699 23.5 -18l203 -206h-71c-15.333 0 -27.666 4 -36.999 12z" />
    <glyph glyph-name="Eacute" unicode="&#xc9;" horiz-adv-x="1244" 
d="M33 0l5.00098 40.001c0.666992 5.33301 2 10 4 14s4.5 7.16699 7.5 9.5s6.83301 4.5 11.5 6.5s9.16699 3.33301 13.5 4s9.83301 1.33398 16.5 2.00098s12.334 1 17.001 1h18.5h18.5c20 0.666992 42 1.66699 66 3l154 1256c-11.333 0 -31.833 0.5 -61.5 1.5
s-51.834 1.83301 -66.501 2.5c-26 1.33301 -37.667 13 -35 35l5 40h168h848l-18 -146.5l-18 -146.5h-48c-27.333 0 -40 16 -38 48l12 160h-645l-70 -572h563l-11 -83h-563l-72 -590h645c18 105.333 27.333 158.666 28 159.999c5.33301 32 21.666 48 48.999 48h48l-11 -92.5
l-13 -108.5c-4 -32.667 -8 -63.334 -12 -92.001h-1016zM712.001 1542l252 206c10.667 8.66699 20 14.5 28 17.5s20.333 4.5 37 4.5h112l-319 -216c-12 -8 -25.333 -12 -40 -12h-70z" />
    <glyph glyph-name="Ecircumflex" unicode="&#xca;" horiz-adv-x="1244" 
d="M33 0l5.00098 40.001c0.666992 5.33301 2 10 4 14s4.5 7.16699 7.5 9.5s6.83301 4.5 11.5 6.5s9.16699 3.33301 13.5 4s9.83301 1.33398 16.5 2.00098s12.334 1 17.001 1h18.5h18.5c20 0.666992 42 1.66699 66 3l154 1256c-11.333 0 -31.833 0.5 -61.5 1.5
s-51.834 1.83301 -66.501 2.5c-26 1.33301 -37.667 13 -35 35l5 40h168h848l-18 -146.5l-18 -146.5h-48c-27.333 0 -40 16 -38 48l12 160h-645l-70 -572h563l-11 -83h-563l-72 -590h645c18 105.333 27.333 158.666 28 159.999c5.33301 32 21.666 48 48.999 48h48l-11 -92.5
l-13 -108.5c-4 -32.667 -8 -63.334 -12 -92.001h-1016zM544.001 1542l259.001 199h90l211 -199h-73c-13.333 0 -24.333 3.33301 -33 10l-141 123c-4.66699 4 -9.33398 8.66699 -14.001 14c-4 -3.33301 -10.333 -8 -19 -14l-172 -123c-10 -6.66699 -21.333 -10 -34 -10h-74z
" />
    <glyph glyph-name="Edieresis" unicode="&#xcb;" horiz-adv-x="1244" 
d="M33 0l5.00098 40.001c0.666992 5.33301 2 10 4 14s4.5 7.16699 7.5 9.5s6.83301 4.5 11.5 6.5s9.16699 3.33301 13.5 4s9.83301 1.33398 16.5 2.00098s12.334 1 17.001 1h18.5h18.5c20 0.666992 42 1.66699 66 3l154 1256c-11.333 0 -31.833 0.5 -61.5 1.5
s-51.834 1.83301 -66.501 2.5c-26 1.33301 -37.667 13 -35 35l5 40h168h848l-18 -146.5l-18 -146.5h-48c-27.333 0 -40 16 -38 48l12 160h-645l-70 -572h563l-11 -83h-563l-72 -590h645c18 105.333 27.333 158.666 28 159.999c5.33301 32 21.666 48 48.999 48h48l-11 -92.5
l-13 -108.5c-4 -32.667 -8 -63.334 -12 -92.001h-1016zM560.001 1696c19.333 34 46 51 80 51c28 0 49 -12.5 63 -37.5s13.333 -50.167 -2 -75.5c-19.333 -32 -46.333 -48 -81 -48c-28 0 -48.5 11.833 -61.5 35.5s-12.5 48.5 1.5 74.5zM997.001 1722
c18 16.667 38 24.999 60 24.999c24 0 42.167 -8.5 54.5 -25.5s17 -36.5 14 -58.5s-12.5 -40 -28.5 -54c-19.333 -15.333 -39.333 -23 -60 -23c-24.667 0 -43.167 8.16699 -55.5 24.5s-17 35.333 -14 57s12.833 39.834 29.5 54.501z" />
    <glyph glyph-name="Igrave" unicode="&#xcc;" horiz-adv-x="664" 
d="M33 0l4.99902 40.001c0.666992 6 2.16699 11.167 4.5 15.5s5.83301 7.83301 10.5 10.5s9.16699 4.66699 13.5 6s10.166 2.33301 17.499 3s13.5 1.16699 18.5 1.5s12.167 0.5 21.5 0.5h21c20.667 0.666992 42.667 1.66699 66 3l154 1256c-11.333 0 -31.833 0.5 -61.5 1.5
s-51.834 1.83301 -66.501 2.5c-26 1.33301 -37.667 13 -35 35l5 40h440l-5 -40c-0.666992 -6 -2.16699 -11.167 -4.5 -15.5s-5.83301 -7.83301 -10.5 -10.5s-9.16699 -4.66699 -13.5 -6s-10.166 -2.33301 -17.499 -3s-13.666 -1.16699 -18.999 -1.5s-12.5 -0.5 -21.5 -0.5
h-21.5c-18 -0.666992 -40 -1.33398 -66 -2.00098l-154 -1256c12 -0.666992 32.833 -1.5 62.5 -2.5s51.834 -1.83301 66.501 -2.5c26 -1.33301 37.667 -13 35 -35l-5 -40h-440zM178.999 1770h112.999c16 0 27.5 -1.33301 34.5 -4s14.833 -8.66699 23.5 -18l203 -206h-71
c-15.333 0 -27.666 4 -36.999 12z" />
    <glyph glyph-name="Iacute" unicode="&#xcd;" horiz-adv-x="768" 
d="M33 0l4.99902 40.001c0.666992 6 2.16699 11.167 4.5 15.5s5.83301 7.83301 10.5 10.5s9.16699 4.66699 13.5 6s10.166 2.33301 17.499 3s13.5 1.16699 18.5 1.5s12.167 0.5 21.5 0.5h21c20.667 0.666992 42.667 1.66699 66 3l154 1256c-11.333 0 -31.833 0.5 -61.5 1.5
s-51.834 1.83301 -66.501 2.5c-26 1.33301 -37.667 13 -35 35l5 40h440l-5 -40c-0.666992 -6 -2.16699 -11.167 -4.5 -15.5s-5.83301 -7.83301 -10.5 -10.5s-9.16699 -4.66699 -13.5 -6s-10.166 -2.33301 -17.499 -3s-13.666 -1.16699 -18.999 -1.5s-12.5 -0.5 -21.5 -0.5
h-21.5c-18 -0.666992 -40 -1.33398 -66 -2.00098l-154 -1256c12 -0.666992 32.833 -1.5 62.5 -2.5s51.834 -1.83301 66.501 -2.5c26 -1.33301 37.667 -13 35 -35l-5 -40h-440zM332.999 1542l252 206c10.667 8.66699 20 14.5 28 17.5s20.333 4.5 37 4.5h112l-319 -216
c-12 -8 -25.333 -12 -40 -12h-70z" />
    <glyph glyph-name="Icircumflex" unicode="&#xce;" horiz-adv-x="731" 
d="M33 0l4.99902 40.001c0.666992 6 2.16699 11.167 4.5 15.5s5.83301 7.83301 10.5 10.5s9.16699 4.66699 13.5 6s10.166 2.33301 17.499 3s13.5 1.16699 18.5 1.5s12.167 0.5 21.5 0.5h21c20.667 0.666992 42.667 1.66699 66 3l154 1256c-11.333 0 -31.833 0.5 -61.5 1.5
s-51.834 1.83301 -66.501 2.5c-26 1.33301 -37.667 13 -35 35l5 40h440l-5 -40c-0.666992 -6 -2.16699 -11.167 -4.5 -15.5s-5.83301 -7.83301 -10.5 -10.5s-9.16699 -4.66699 -13.5 -6s-10.166 -2.33301 -17.499 -3s-13.666 -1.16699 -18.999 -1.5s-12.5 -0.5 -21.5 -0.5
h-21.5c-18 -0.666992 -40 -1.33398 -66 -2.00098l-154 -1256c12 -0.666992 32.833 -1.5 62.5 -2.5s51.834 -1.83301 66.501 -2.5c26 -1.33301 37.667 -13 35 -35l-5 -40h-440zM164.999 1542l259.001 199h90l211 -199h-73c-13.333 0 -24.333 3.33301 -33 10l-141 123
c-4.66699 4 -9.33398 8.66699 -14.001 14c-4 -3.33301 -10.333 -8 -19 -14l-172 -123c-10 -6.66699 -21.333 -10 -34 -10h-74z" />
    <glyph glyph-name="Idieresis" unicode="&#xcf;" horiz-adv-x="755" 
d="M33 0l4.99902 40.001c0.666992 6 2.16699 11.167 4.5 15.5s5.83301 7.83301 10.5 10.5s9.16699 4.66699 13.5 6s10.166 2.33301 17.499 3s13.5 1.16699 18.5 1.5s12.167 0.5 21.5 0.5h21c20.667 0.666992 42.667 1.66699 66 3l154 1256c-11.333 0 -31.833 0.5 -61.5 1.5
s-51.834 1.83301 -66.501 2.5c-26 1.33301 -37.667 13 -35 35l5 40h440l-5 -40c-0.666992 -6 -2.16699 -11.167 -4.5 -15.5s-5.83301 -7.83301 -10.5 -10.5s-9.16699 -4.66699 -13.5 -6s-10.166 -2.33301 -17.499 -3s-13.666 -1.16699 -18.999 -1.5s-12.5 -0.5 -21.5 -0.5
h-21.5c-18 -0.666992 -40 -1.33398 -66 -2.00098l-154 -1256c12 -0.666992 32.833 -1.5 62.5 -2.5s51.834 -1.83301 66.501 -2.5c26 -1.33301 37.667 -13 35 -35l-5 -40h-440zM180.999 1696c19.333 34 46 51 80 51c28 0 49 -12.5 63 -37.5s13.333 -50.167 -2 -75.5
c-19.333 -32 -46.333 -48 -81 -48c-28 0 -48.5 11.833 -61.5 35.5s-12.5 48.5 1.5 74.5zM617.999 1722c18 16.667 38 24.999 60 24.999c24 0 42.167 -8.5 54.5 -25.5s17 -36.5 14 -58.5s-12.5 -40 -28.5 -54c-19.333 -15.333 -39.333 -23 -60 -23
c-24.667 0 -43.167 8.16699 -55.5 24.5s-17 35.333 -14 57s12.833 39.834 29.5 54.501z" />
    <glyph glyph-name="Eth" unicode="&#xd0;" horiz-adv-x="1526" 
d="M33 0c1.33301 9.33301 3 22.6689 5 40.002c2.66699 22 17.334 33.667 44.001 35c2.66699 0 9 0.166992 19 0.5l44.5 1.5c19.667 0.666992 41.5 1.66699 65.5 3l75 605h-216l8 64h215l72 586c-18 1.33301 -35.333 2.16602 -52 2.49902s-29.334 0.666016 -38.001 0.999023
s-16.5 0.666016 -23.5 0.999023s-11.833 0.5 -14.5 0.5c-12.667 0.666992 -22 3.66699 -28 9s-8.33301 14 -7 26l5 40h659c155.333 0 282 -36.333 380 -109s163.333 -174 196 -304c16.667 -66.667 23.167 -136.5 19.5 -209.5s-13.667 -141.667 -30 -206
s-37.166 -122.166 -62.499 -173.499c-87.333 -176 -219 -297.333 -395 -364c-86.667 -32.667 -180.334 -49 -281.001 -49h-660zM315 83.0029l388 -0.000976562c71.333 0 137.5 9 198.5 27s114.833 43.5 161.5 76.5s87.334 70.833 122.001 113.5s64.667 90.334 90 143.001
c21.333 44.667 39.166 96.167 53.499 154.5s23.333 120.5 27 186.5s-1.5 128.667 -15.5 188c-26 114 -80 202.5 -162 265.5s-189.333 94.5 -322 94.5h-388l-72 -583h405l-8 -64h-404z" />
    <glyph glyph-name="Ntilde" unicode="&#xd1;" horiz-adv-x="1653" 
d="M33 0l4.99219 40.001c0.666992 6 2.16699 11.167 4.5 15.5s5.83301 7.83301 10.5 10.5s9.16699 4.66699 13.5 6s10.166 2.33301 17.499 3s13.5 1.16699 18.5 1.5s12.167 0.5 21.5 0.5h21c20.667 0.666992 42.667 1.66699 66 3l154 1256c-11.333 0 -31.833 0.5 -61.5 1.5
s-51.834 1.83301 -66.501 2.5c-26 1.33301 -37.667 13 -35 35l5 40h218c10.667 0 18.334 -1.33301 23.001 -4s9.33398 -7.66699 14.001 -15l765 -1226c0.666992 20 2 39.333 4 58l136 1108c-11.333 0 -25.666 0.333008 -42.999 1s-33.666 1.16699 -48.999 1.5
s-28.666 0.833008 -39.999 1.5c-26.667 1.33301 -38.667 13 -36 35l5 40h263h169l-5 -40c-0.666992 -6 -2.33398 -11.167 -5.00098 -15.5s-6.16699 -7.83301 -10.5 -10.5s-8.66602 -4.66699 -12.999 -6s-10.166 -2.33301 -17.499 -3s-13.666 -1.16699 -18.999 -1.5
s-12.5 -0.5 -21.5 -0.5h-21.5c-20 -0.666992 -42 -1.33398 -66 -2.00098l-164 -1336h-49c-15.333 0 -26.666 6.66699 -33.999 20l-769 1228c-0.666992 -20 -2 -39 -4 -57l-137 -1111c12.667 -0.666992 34.334 -1.5 65.001 -2.5s53.334 -1.83301 68.001 -2.5
c26 -1.33301 37.667 -13 35 -35l-5 -40h-430zM723.992 1553c6 47.333 22.832 86.499 50.499 117.499s64.5 46.5 110.5 46.5c15.333 0 31.166 -3.16699 47.499 -9.5s27.833 -11.833 34.5 -16.5l34 -25l16.5 -12l19.5 -14c4.66699 -3.33301 10.834 -7.16602 18.501 -11.499
s15.334 -7.5 23.001 -9.5s15.5 -3 23.5 -3c14 0 27 2.66699 39 8s22 12.5 30 21.5s14.5 19.333 19.5 31s8.5 24.167 10.5 37.5h54c-6 -48 -22.333 -87.333 -49 -118s-63.334 -46 -110.001 -46c-11.333 0 -22.166 1.33301 -32.499 4s-21.5 7.5 -33.5 14.5
s-19.833 11.667 -23.5 14s-12.167 8.16602 -25.5 17.499c-2.66699 2.66699 -7.33398 6.33398 -14.001 11.001l-16 11.5c-4 3 -9.16699 6.5 -15.5 10.5s-12.166 7.16699 -17.499 9.5s-11.5 4.33301 -18.5 6s-13.833 2.5 -20.5 2.5c-27.333 0 -49.5 -9.33301 -66.5 -28
s-27.833 -42 -32.5 -70h-56z" />
    <glyph glyph-name="Ograve" unicode="&#xd2;" horiz-adv-x="1495" 
d="M88 410c-17.333 68 -24.168 138.667 -20.501 212s13.667 142.333 30 207s37.5 123 63.5 175c88 179.333 220.333 304.333 397 375c86.667 34.667 179.667 52 279 52c154.667 0 280.834 -38 378.501 -114s162.834 -180.333 195.501 -313
c16.667 -67.333 23.167 -137.833 19.5 -211.5s-13.667 -142.667 -30 -207s-37.166 -122.833 -62.499 -175.5c-88 -179.333 -220.333 -304 -397 -374c-86.667 -34 -180.334 -51 -281.001 -51c-153.333 0 -278.833 38 -376.5 114s-162.834 179.667 -195.501 311zM179.998 708
c-18 -146.667 -3.66602 -270.831 43.001 -372.498s121 -174.5 223 -218.5c66 -28.667 141 -43 225 -43c71.333 0 137.833 9.33301 199.5 28s115.667 45 162 79s86.833 72.5 121.5 115.5s64.667 91.5 90 145.5c21.333 45.333 39.166 97.166 53.499 155.499
s23.333 120.666 27 186.999s-1.5 129.5 -15.5 189.5c-26 116 -79.667 206.5 -161 271.5s-188.333 97.5 -321 97.5c-170 0 -314 -56.333 -432 -169c-57.333 -55.333 -104.5 -122.5 -141.5 -201.5s-61.5 -167.167 -73.5 -264.5zM586.999 1770h112.999
c16 0 27.5 -1.33301 34.5 -4s14.833 -8.66699 23.5 -18l203 -206h-71c-15.333 0 -27.666 4 -36.999 12z" />
    <glyph glyph-name="Oacute" unicode="&#xd3;" horiz-adv-x="1495" 
d="M88 410c-17.333 68 -24.168 138.667 -20.501 212s13.667 142.333 30 207s37.5 123 63.5 175c88 179.333 220.333 304.333 397 375c86.667 34.667 179.667 52 279 52c154.667 0 280.834 -38 378.501 -114s162.834 -180.333 195.501 -313
c16.667 -67.333 23.167 -137.833 19.5 -211.5s-13.667 -142.667 -30 -207s-37.166 -122.833 -62.499 -175.5c-88 -179.333 -220.333 -304 -397 -374c-86.667 -34 -180.334 -51 -281.001 -51c-153.333 0 -278.833 38 -376.5 114s-162.834 179.667 -195.501 311zM179.998 708
c-18 -146.667 -3.66602 -270.831 43.001 -372.498s121 -174.5 223 -218.5c66 -28.667 141 -43 225 -43c71.333 0 137.833 9.33301 199.5 28s115.667 45 162 79s86.833 72.5 121.5 115.5s64.667 91.5 90 145.5c21.333 45.333 39.166 97.166 53.499 155.499
s23.333 120.666 27 186.999s-1.5 129.5 -15.5 189.5c-26 116 -79.667 206.5 -161 271.5s-188.333 97.5 -321 97.5c-170 0 -314 -56.333 -432 -169c-57.333 -55.333 -104.5 -122.5 -141.5 -201.5s-61.5 -167.167 -73.5 -264.5zM740.999 1542l252 206
c10.667 8.66699 20 14.5 28 17.5s20.333 4.5 37 4.5h112l-319 -216c-12 -8 -25.333 -12 -40 -12h-70z" />
    <glyph glyph-name="Ocircumflex" unicode="&#xd4;" horiz-adv-x="1495" 
d="M88 410c-17.333 68 -24.168 138.667 -20.501 212s13.667 142.333 30 207s37.5 123 63.5 175c88 179.333 220.333 304.333 397 375c86.667 34.667 179.667 52 279 52c154.667 0 280.834 -38 378.501 -114s162.834 -180.333 195.501 -313
c16.667 -67.333 23.167 -137.833 19.5 -211.5s-13.667 -142.667 -30 -207s-37.166 -122.833 -62.499 -175.5c-88 -179.333 -220.333 -304 -397 -374c-86.667 -34 -180.334 -51 -281.001 -51c-153.333 0 -278.833 38 -376.5 114s-162.834 179.667 -195.501 311zM179.998 708
c-18 -146.667 -3.66602 -270.831 43.001 -372.498s121 -174.5 223 -218.5c66 -28.667 141 -43 225 -43c71.333 0 137.833 9.33301 199.5 28s115.667 45 162 79s86.833 72.5 121.5 115.5s64.667 91.5 90 145.5c21.333 45.333 39.166 97.166 53.499 155.499
s23.333 120.666 27 186.999s-1.5 129.5 -15.5 189.5c-26 116 -79.667 206.5 -161 271.5s-188.333 97.5 -321 97.5c-170 0 -314 -56.333 -432 -169c-57.333 -55.333 -104.5 -122.5 -141.5 -201.5s-61.5 -167.167 -73.5 -264.5zM572.999 1542l259.001 199h90l211 -199h-73
c-13.333 0 -24.333 3.33301 -33 10l-141 123c-4.66699 4 -9.33398 8.66699 -14.001 14c-4 -3.33301 -10.333 -8 -19 -14l-172 -123c-10 -6.66699 -21.333 -10 -34 -10h-74z" />
    <glyph glyph-name="Otilde" unicode="&#xd5;" horiz-adv-x="1495" 
d="M88 410c-17.333 68 -24.168 138.667 -20.501 212s13.667 142.333 30 207s37.5 123 63.5 175c88 179.333 220.333 304.333 397 375c86.667 34.667 179.667 52 279 52c154.667 0 280.834 -38 378.501 -114s162.834 -180.333 195.501 -313
c16.667 -67.333 23.167 -137.833 19.5 -211.5s-13.667 -142.667 -30 -207s-37.166 -122.833 -62.499 -175.5c-88 -179.333 -220.333 -304 -397 -374c-86.667 -34 -180.334 -51 -281.001 -51c-153.333 0 -278.833 38 -376.5 114s-162.834 179.667 -195.501 311zM179.998 708
c-18 -146.667 -3.66602 -270.831 43.001 -372.498s121 -174.5 223 -218.5c66 -28.667 141 -43 225 -43c71.333 0 137.833 9.33301 199.5 28s115.667 45 162 79s86.833 72.5 121.5 115.5s64.667 91.5 90 145.5c21.333 45.333 39.166 97.166 53.499 155.499
s23.333 120.666 27 186.999s-1.5 129.5 -15.5 189.5c-26 116 -79.667 206.5 -161 271.5s-188.333 97.5 -321 97.5c-170 0 -314 -56.333 -432 -169c-57.333 -55.333 -104.5 -122.5 -141.5 -201.5s-61.5 -167.167 -73.5 -264.5zM603.999 1553
c6 47.333 22.833 86.499 50.5 117.499s64.834 46.5 111.501 46.5c14.667 0 30.167 -3.16699 46.5 -9.5s27.833 -11.833 34.5 -16.5l34 -24l17 -13c8 -6 14.5 -10.667 19.5 -14s11.167 -7.16602 18.5 -11.499s14.833 -7.5 22.5 -9.5s15.5 -3 23.5 -3
c28 0 50.5 9.16699 67.5 27.5s27.5 41.833 31.5 70.5h54c-6 -48 -22.333 -87.333 -49 -118s-63.334 -46 -110.001 -46c-14.667 0 -30.167 3.33301 -46.5 10s-27.666 12.167 -33.999 16.5l-34.5 23.5c-2 2 -7.33301 6.33301 -16 13s-15.334 11.5 -20.001 14.5
s-11 6.66699 -19 11s-15.833 7.5 -23.5 9.5s-15.5 3 -23.5 3c-27.333 0 -49.333 -9.16699 -66 -27.5s-27.667 -41.833 -33 -70.5h-56z" />
    <glyph glyph-name="Odieresis" unicode="&#xd6;" horiz-adv-x="1495" 
d="M88 410c-17.333 68 -24.168 138.667 -20.501 212s13.667 142.333 30 207s37.5 123 63.5 175c88 179.333 220.333 304.333 397 375c86.667 34.667 179.667 52 279 52c154.667 0 280.834 -38 378.501 -114s162.834 -180.333 195.501 -313
c16.667 -67.333 23.167 -137.833 19.5 -211.5s-13.667 -142.667 -30 -207s-37.166 -122.833 -62.499 -175.5c-88 -179.333 -220.333 -304 -397 -374c-86.667 -34 -180.334 -51 -281.001 -51c-153.333 0 -278.833 38 -376.5 114s-162.834 179.667 -195.501 311zM179.998 708
c-18 -146.667 -3.66602 -270.831 43.001 -372.498s121 -174.5 223 -218.5c66 -28.667 141 -43 225 -43c71.333 0 137.833 9.33301 199.5 28s115.667 45 162 79s86.833 72.5 121.5 115.5s64.667 91.5 90 145.5c21.333 45.333 39.166 97.166 53.499 155.499
s23.333 120.666 27 186.999s-1.5 129.5 -15.5 189.5c-26 116 -79.667 206.5 -161 271.5s-188.333 97.5 -321 97.5c-170 0 -314 -56.333 -432 -169c-57.333 -55.333 -104.5 -122.5 -141.5 -201.5s-61.5 -167.167 -73.5 -264.5zM588.999 1696c19.333 34 46 51 80 51
c28 0 49 -12.5 63 -37.5s13.333 -50.167 -2 -75.5c-19.333 -32 -46.333 -48 -81 -48c-28 0 -48.5 11.833 -61.5 35.5s-12.5 48.5 1.5 74.5zM1026 1722c18 16.667 38 24.999 60 24.999c24 0 42.333 -8.5 55 -25.5s17.5 -36.5 14.5 -58.5s-12.833 -40 -29.5 -54
c-19.333 -15.333 -39.333 -23 -60 -23c-18.667 0 -34 5 -46 15s-19.333 22.167 -22 36.5s-1.66699 29.333 3 45s13 28.834 25 39.501z" />
    <glyph glyph-name="multiply" unicode="&#xd7;" horiz-adv-x="973" 
d="M17 296l419 374l-323 368l60 54l322 -369l411 367l47 -54l-412 -366l326 -372l-57 -52l-327 372l-420 -374z" />
    <glyph glyph-name="Oslash" unicode="&#xd8;" horiz-adv-x="1527" 
d="M35 -105l216.004 248.999c-64 64 -110.167 143.333 -138.5 238s-34.833 203.334 -19.5 326.001c20 162.667 72.167 301.834 156.5 417.501s193.166 200.167 326.499 253.5c87.333 34.667 180.666 52 279.999 52c160 0 292 -43.333 396 -130l129 149
c0.666992 1.33301 2.16699 3.16602 4.5 5.49902s3.83301 4 4.5 5s2 2.5 4 4.5s3.5 3.33301 4.5 4s2.33301 1.66699 4 3s3.16699 2.33301 4.5 3s3.16602 1.33398 5.49902 2.00098s4.5 1.16699 6.5 1.5s4.33301 0.666016 7 0.999023s5.66699 0.5 9 0.5h55l-193 -222
c59.333 -64 102 -142.167 128 -234.5s31.667 -197.5 17 -315.5c-13.333 -108.667 -41.333 -207.5 -84 -296.5s-97.667 -165 -165 -228s-145.333 -112.167 -234 -147.5c-86.667 -34 -180.334 -51 -281.001 -51c-151.333 0 -278 39.333 -380 118l-153 -176
c-18.667 -21.333 -40.667 -32 -66 -32h-44zM198.004 707.999c-13.333 -105.333 -9.5 -199 11.5 -281s56.833 -150.667 107.5 -206l869 1005c-87.333 78 -201 117 -341 117c-170 0 -313.667 -56.333 -431 -169c-58 -55.333 -105.5 -122.5 -142.5 -201.5
s-61.5 -167.167 -73.5 -264.5zM362.004 177.999c85.333 -69.333 194.332 -104 326.999 -104c57.333 0 111.666 6.16699 162.999 18.5s97.333 29.5 138 51.5s78.334 48.5 113.001 79.5s64.834 64.5 90.501 100.5s48.5 75.333 68.5 118c22 46 40 98.667 54 158
s22.833 122.333 26.5 189s-1.83301 130 -16.5 190c-18.667 79.333 -50.667 146.333 -96 201z" />
    <glyph glyph-name="Ugrave" unicode="&#xd9;" horiz-adv-x="1507" 
d="M76 1375l5 40.001h465l-4 -40c-1.33301 -8.66699 -4.5 -15.834 -9.5 -21.501s-12.667 -9.5 -23 -11.5s-19.166 -3.33301 -26.499 -4s-19 -0.833984 -35 -0.500977s-27 0.5 -33 0.5c-24 -0.666992 -48 -1.66699 -72 -3l-98 -794
c-12.667 -104.667 -1.16699 -194.167 34.5 -268.5s90.167 -128.833 163.5 -163.5c50.667 -24 110 -36 178 -36c54.667 0 105.5 7.33301 152.5 22s88.5 35.167 124.5 61.5s67.333 56 94 89s49.334 69.5 68.001 109.5c26.667 57.333 44 119 52 185l98 795
c-14 0.666992 -39 1.5 -75 2.5s-62 1.83301 -78 2.5c-26.667 1.33301 -38.667 13 -36 35l5 40h296h168l-5 -40c-0.666992 -6 -2.16699 -11.167 -4.5 -15.5s-5.83301 -7.83301 -10.5 -10.5s-9 -4.66699 -13 -6s-9.83301 -2.33301 -17.5 -3s-14 -1.16699 -19 -1.5
s-12.167 -0.5 -21.5 -0.5h-21c-20 -0.666992 -42 -1.66699 -66 -3l-98 -795c-14.667 -122.667 -55.167 -228.5 -121.5 -317.5s-150.833 -154.5 -253.5 -196.5c-70 -28.667 -146.333 -43 -229 -43c-122.667 0 -223.334 30.333 -302.001 91s-130.667 143 -156 247
c-16 68 -19.333 141 -10 219l98 795c-16.667 1.33301 -40.334 2.33301 -71.001 3s-49.667 1.33398 -57 2.00098c-26.667 1.33301 -38.667 13 -36 35zM535 1770h113c16.667 0 28.5 -1.33301 35.5 -4s14.833 -8.66699 23.5 -18l202 -206h-71c-15.333 0 -27.333 4 -36 12z" />
    <glyph glyph-name="Uacute" unicode="&#xda;" horiz-adv-x="1508" 
d="M77 1375l4.99707 40.001h465l-4 -40c-1.33301 -8.66699 -4.5 -15.834 -9.5 -21.501s-12.667 -9.5 -23 -11.5s-19.166 -3.33301 -26.499 -4s-19 -0.833984 -35 -0.500977s-27 0.5 -33 0.5c-24 -0.666992 -48 -1.66699 -72 -3l-98 -794
c-12.667 -104.667 -1.16699 -194.167 34.5 -268.5s90.167 -128.833 163.5 -163.5c50.667 -24 110 -36 178 -36c54.667 0 105.5 7.33301 152.5 22s88.5 35.167 124.5 61.5s67.333 56 94 89s49.334 69.5 68.001 109.5c26.667 57.333 44 119 52 185l98 795
c-14 0.666992 -39 1.5 -75 2.5s-62 1.83301 -78 2.5c-26.667 1.33301 -38.667 13 -36 35l5 40h296h168l-5 -40c-0.666992 -6 -2.16699 -11.167 -4.5 -15.5s-5.83301 -7.83301 -10.5 -10.5s-9 -4.66699 -13 -6s-9.83301 -2.33301 -17.5 -3s-14 -1.16699 -19 -1.5
s-12.167 -0.5 -21.5 -0.5h-21c-20 -0.666992 -42 -1.66699 -66 -3l-98 -795c-14.667 -122.667 -55.167 -228.5 -121.5 -317.5s-150.833 -154.5 -253.5 -196.5c-70 -28.667 -146.333 -43 -229 -43c-122.667 0 -223.334 30.333 -302.001 91s-130.667 143 -156 247
c-16 68 -19.333 141 -10 219l98 795c-12.667 0.666992 -26.667 1.33398 -42 2.00098s-31.166 1.16699 -47.499 1.5s-29.166 0.833008 -38.499 1.5c-26.667 1.33301 -38.667 13 -36 35zM689.997 1542l252.999 206c10.667 8.66699 19.834 14.5 27.501 17.5
s19.834 4.5 36.501 4.5h112l-318 -216c-12.667 -8 -26.334 -12 -41.001 -12h-70z" />
    <glyph glyph-name="Ucircumflex" unicode="&#xdb;" horiz-adv-x="1507" 
d="M76 1375l5 40.001h465l-4 -40c-1.33301 -8.66699 -4.5 -15.834 -9.5 -21.501s-12.667 -9.5 -23 -11.5s-19.166 -3.33301 -26.499 -4s-19 -0.833984 -35 -0.500977s-27 0.5 -33 0.5c-24 -0.666992 -48 -1.66699 -72 -3l-98 -794
c-12.667 -104.667 -1.16699 -194.167 34.5 -268.5s90.167 -128.833 163.5 -163.5c50.667 -24 110 -36 178 -36c54.667 0 105.5 7.33301 152.5 22s88.5 35.167 124.5 61.5s67.333 56 94 89s49.334 69.5 68.001 109.5c26.667 57.333 44 119 52 185l98 795
c-14 0.666992 -39 1.5 -75 2.5s-62 1.83301 -78 2.5c-26.667 1.33301 -38.667 13 -36 35l5 40h296h168l-5 -40c-0.666992 -6 -2.16699 -11.167 -4.5 -15.5s-5.83301 -7.83301 -10.5 -10.5s-9 -4.66699 -13 -6s-9.83301 -2.33301 -17.5 -3s-14 -1.16699 -19 -1.5
s-12.167 -0.5 -21.5 -0.5h-21c-20 -0.666992 -42 -1.66699 -66 -3l-98 -795c-14.667 -122.667 -55.167 -228.5 -121.5 -317.5s-150.833 -154.5 -253.5 -196.5c-70 -28.667 -146.333 -43 -229 -43c-122.667 0 -223.334 30.333 -302.001 91s-130.667 143 -156 247
c-16 68 -19.333 141 -10 219l98 795c-16.667 1.33301 -40.334 2.33301 -71.001 3s-49.667 1.33398 -57 2.00098c-26.667 1.33301 -38.667 13 -36 35zM521 1542l260.001 199h90l210 -199h-73c-13.333 0 -24 3.33301 -32 10l-141 123c-5.33301 4 -10.333 8.66699 -15 14
c-3.33301 -3.33301 -9.33301 -8 -18 -14l-172 -123c-10.667 -6.66699 -22.334 -10 -35.001 -10h-74z" />
    <glyph glyph-name="Udieresis" unicode="&#xdc;" horiz-adv-x="1507" 
d="M76 1375l5 40.001h465l-4 -40c-1.33301 -8.66699 -4.5 -15.834 -9.5 -21.501s-12.667 -9.5 -23 -11.5s-19.166 -3.33301 -26.499 -4s-19 -0.833984 -35 -0.500977s-27 0.5 -33 0.5c-24 -0.666992 -48 -1.66699 -72 -3l-98 -794
c-12.667 -104.667 -1.16699 -194.167 34.5 -268.5s90.167 -128.833 163.5 -163.5c50.667 -24 110 -36 178 -36c54.667 0 105.5 7.33301 152.5 22s88.5 35.167 124.5 61.5s67.333 56 94 89s49.334 69.5 68.001 109.5c26.667 57.333 44 119 52 185l98 795
c-14 0.666992 -39 1.5 -75 2.5s-62 1.83301 -78 2.5c-26.667 1.33301 -38.667 13 -36 35l5 40h296h168l-5 -40c-0.666992 -6 -2.16699 -11.167 -4.5 -15.5s-5.83301 -7.83301 -10.5 -10.5s-9 -4.66699 -13 -6s-9.83301 -2.33301 -17.5 -3s-14 -1.16699 -19 -1.5
s-12.167 -0.5 -21.5 -0.5h-21c-20 -0.666992 -42 -1.66699 -66 -3l-98 -795c-14.667 -122.667 -55.167 -228.5 -121.5 -317.5s-150.833 -154.5 -253.5 -196.5c-70 -28.667 -146.333 -43 -229 -43c-122.667 0 -223.334 30.333 -302.001 91s-130.667 143 -156 247
c-16 68 -19.333 141 -10 219l98 795c-16.667 1.33301 -40.334 2.33301 -71.001 3s-49.667 1.33398 -57 2.00098c-26.667 1.33301 -38.667 13 -36 35zM538 1696c18.667 34 45.333 51 80 51c27.333 0 48 -12.5 62 -37.5s13.667 -50.167 -1 -75.5c-20 -32 -47 -48 -81 -48
c-28.667 0 -49.5 11.833 -62.5 35.5s-12.167 48.5 2.5 74.5zM974.999 1722c17.333 16.667 37.3359 24.999 60.0029 24.999c23.333 0 41.333 -8.5 54 -25.5s17.5 -36.5 14.5 -58.5s-12.833 -40 -29.5 -54c-18.667 -15.333 -38.334 -23 -59.001 -23
c-24.667 0 -43.334 8.16699 -56.001 24.5s-17.334 35.333 -14.001 57s13.333 39.834 30 54.501z" />
    <glyph glyph-name="Yacute" unicode="&#xdd;" horiz-adv-x="1360" 
d="M59 1375l5.00195 40.001h369l-4 -40c-0.666992 -4.66699 -2 -8.83398 -4 -12.501s-4.16699 -6.83398 -6.5 -9.50098s-5.66602 -4.83398 -9.99902 -6.50098s-8 -3 -11 -4s-7.83301 -1.83301 -14.5 -2.5s-11.667 -1 -15 -1s-9 -0.166992 -17 -0.5s-13.667 -0.5 -17 -0.5
c-16 -0.666992 -34 -1.33398 -54 -2.00098l298 -596c13.333 -27.333 23.666 -56.666 30.999 -87.999c15.333 31.333 33 60.666 53 87.999l444 596c-8 0.666992 -24.333 1.33398 -49 2.00098s-43 1.33398 -55 2.00098c-26.667 1.33301 -38.667 13 -36 35l5 40h306h64l-5 -40
c-2.66699 -22 -17.334 -33.667 -44.001 -35c-33.333 -2 -58 -3.33301 -74 -4l-566 -752l-62 -505c12 0 32.833 -0.5 62.5 -1.5s51.5 -1.83301 65.5 -2.5c26 -1.33301 37.667 -13 35 -35l-5 -40h-439l5 40c0.666992 6 2.16699 11.167 4.5 15.5s5.83301 7.83301 10.5 10.5
s9.16699 4.66699 13.5 6s10.166 2.33301 17.499 3s13.5 1.16699 18.5 1.5s12.167 0.5 21.5 0.5h21c20 0.666992 42 1.33398 66 2.00098l62 505l-381 752c-14.667 0.666992 -39 2 -73 4c-26.667 1.33301 -38.667 13 -36 35zM607.002 1542l252 206
c7.33301 6 13.5 10.5 18.5 13.5s11 5.16699 18 6.5s16.5 2 28.5 2h112l-319 -216c-12.667 -8 -26 -12 -40 -12h-70z" />
    <glyph glyph-name="Thorn" unicode="&#xde;" horiz-adv-x="1077" 
d="M60 0l174 1415h102l-35 -284h263c76.667 0 144.167 -8.16699 202.5 -24.5s107.833 -41 148.5 -74s69.667 -76.667 87 -131s21.333 -117.833 12 -190.5c-8 -66.667 -28 -126.667 -60 -180s-71.5 -97.333 -118.5 -132s-100.833 -61.667 -161.5 -81
c-64.667 -21.333 -136 -32 -214 -32h-263l-35 -286h-102zM207 368l263.001 -0.000976562c93.333 0 174 18.333 242 55s120 87 156 151c23.333 42 38 87.667 44 137c4.66699 40 4.83398 76 0.500977 108s-13.333 60.5 -27 85.5s-30.834 46.667 -51.501 65
s-45.334 33.333 -74.001 45s-60 20.334 -94 26.001s-71.333 8.5 -112 8.5h-263z" />
    <glyph glyph-name="germandbls" unicode="&#xdf;" horiz-adv-x="1047" 
d="M59 0l123.001 1001c12 100 45.667 184.5 101 253.5s126.333 118.5 213 148.5c56.667 20 117 30 181 30c77.333 0 143.166 -16.167 197.499 -48.5s91.166 -76.833 110.499 -133.5c8 -24 12 -48.167 12 -72.5s-2.83301 -46.5 -8.5 -66.5s-14 -39.667 -25 -59
s-22.5 -36.333 -34.5 -51s-25 -28 -39 -40c-20.667 -18.667 -59 -46.5 -115 -83.5s-95.667 -67.833 -119 -92.5c-15.333 -16 -25.5 -35.333 -30.5 -58s-2.5 -45.667 7.5 -69c6 -10 13.5 -19.5 22.5 -28.5s19.833 -17.333 32.5 -25s23.834 -13.834 33.501 -18.501
s23 -10.667 40 -18s28.833 -13 35.5 -17c21.333 -10 39.833 -19.833 55.5 -29.5s31.5 -22 47.5 -37s28.667 -31.167 38 -48.5s16 -38.333 20 -63s4.33301 -51.667 1 -81c-8.66699 -70.667 -34.334 -130.5 -77.001 -179.5s-96.334 -84.5 -161.001 -106.5
c-44 -15.333 -91.667 -23 -143 -23c-44 0 -84.5 5.5 -121.5 16.5s-68.167 24.833 -93.5 41.5s-50.666 37.667 -75.999 63l26 34c8 10.667 18.333 16 31 16c8.66699 0 18.667 -5.33301 30 -16c58 -56.667 131.333 -85 220 -85c58.667 0 109 12.333 151 37s74 58 96 100
c9.33301 18 16.666 38.5 21.999 61.5s7.33301 46.833 6 71.5s-7 45.334 -17 62.001c-12 20.667 -28.833 38.834 -50.5 54.501s-44.334 29 -68.001 40l-71 32c-23.667 10.333 -46.5 23.166 -68.5 38.499s-39.333 32.666 -52 51.999c-16.667 28 -22.667 60.167 -18 96.5
s16.334 66.166 35.001 89.499s43 46.833 73 70.5s58.167 43.667 84.5 60s54 36.666 83 60.999s52.167 48.833 69.5 73.5c36 51.333 46.333 106.333 31 165c-12 45.333 -38.833 80.333 -80.5 105s-93.167 37 -154.5 37c-81.333 0 -150.666 -17.833 -207.999 -53.5
s-101.666 -84.167 -132.999 -145.5c-24 -46 -39.667 -100.333 -47 -163l-123 -999h-95z" />
    <glyph glyph-name="agrave" unicode="&#xe0;" horiz-adv-x="995" 
d="M47 334c0 176 60.333 331.668 181 467.001c76.667 86 166 146.333 268 181c51.333 17.333 104.333 26 159 26c82 0 153.667 -15.667 215 -47l-108 -883h1c10 -0.666992 21 -0.666992 33 0s23.833 0.666992 35.5 0s22 -2 31 -4s16.167 -5.83301 21.5 -11.5
s7.33301 -13.167 6 -22.5l-5 -40h-156h-22c-22.667 0 -34 10.333 -34 31l33 313c-80.667 -169.333 -177 -279.666 -289 -330.999c-38 -17.333 -77.333 -26 -118 -26c-26 0 -50.167 3.16699 -72.5 9.5s-42 15.166 -59 26.499s-32.333 25.166 -46 41.499
s-25.167 34.333 -34.5 54s-17 41.167 -23 64.5s-10.333 47.5 -13 72.5s-4 51.167 -4 78.5zM142 349.001c0 -188.667 62.667 -283 188 -283c75.333 0 148 41 218 123c68.667 80 126.667 187.667 174 323l50 405c-39.333 13.333 -82 20 -128 20c-132 0 -248.667 -60 -350 -180
c-101.333 -119.333 -152 -255.333 -152 -408zM386 1431h92c16 0 27.667 -2.33301 35 -7s14 -13 20 -25l128 -238h-54c-16 0 -27.667 5.66699 -35 17z" />
    <glyph glyph-name="aacute" unicode="&#xe1;" horiz-adv-x="995" 
d="M47 334c0 176 60.333 331.668 181 467.001c76.667 86 166 146.333 268 181c51.333 17.333 104.333 26 159 26c82 0 153.667 -15.667 215 -47l-108 -883h1c10 -0.666992 21 -0.666992 33 0s23.833 0.666992 35.5 0s22 -2 31 -4s16.167 -5.83301 21.5 -11.5
s7.33301 -13.167 6 -22.5l-5 -40h-156h-22c-22.667 0 -34 10.333 -34 31l33 313c-80.667 -169.333 -177 -279.666 -289 -330.999c-38 -17.333 -77.333 -26 -118 -26c-26 0 -50.167 3.16699 -72.5 9.5s-42 15.166 -59 26.499s-32.333 25.166 -46 41.499
s-25.167 34.333 -34.5 54s-17 41.167 -23 64.5s-10.333 47.5 -13 72.5s-4 51.167 -4 78.5zM142 349.001c0 -188.667 62.667 -283 188 -283c75.333 0 148 41 218 123c68.667 80 126.667 187.667 174 323l50 405c-39.333 13.333 -82 20 -128 20c-132 0 -248.667 -60 -350 -180
c-101.333 -119.333 -152 -255.333 -152 -408zM475 1161l186 238c8.66699 12 17.167 20.333 25.5 25s20.833 7 37.5 7h94l-247 -253c-10.667 -11.333 -23.667 -17 -39 -17h-57z" />
    <glyph glyph-name="acircumflex" unicode="&#xe2;" horiz-adv-x="994" 
d="M47 334c0 176 60.333 331.668 181 467.001c76.667 86 166 146.333 268 181c51.333 17.333 104.333 26 159 26c82 0 153.667 -15.667 215 -47l-108 -883h1c10 -0.666992 21 -0.666992 33 0s23.833 0.666992 35.5 0s22 -2 31 -4s16.167 -5.83301 21.5 -11.5
s7.33301 -13.167 6 -22.5l-5 -40h-156h-22c-22.667 0 -34 10.333 -34 31l33 313c-80.667 -169.333 -177 -279.666 -289 -330.999c-38 -17.333 -77.333 -26 -118 -26c-26 0 -50.167 3.16699 -72.5 9.5s-42 15.166 -59 26.499s-32.333 25.166 -46 41.499
s-25.167 34.333 -34.5 54s-17 41.167 -23 64.5s-10.333 47.5 -13 72.5s-4 51.167 -4 78.5zM142 349.001c0 -188.667 62.667 -283 188 -283c75.333 0 148 41 218 123c68.667 80 126.667 187.667 174 323l50 405c-39.333 13.333 -82 20 -128 20c-132 0 -248.667 -60 -350 -180
c-101.333 -119.333 -152 -255.333 -152 -408zM301 1169l248.001 245.999h85l187 -246h-65c-10.667 0 -19.334 4 -26.001 12l-136 163c-3.33301 2.66699 -6.66602 6.33398 -9.99902 11.001c-0.666992 -1.33301 -4.33398 -5 -11.001 -11l-177 -163
c-8.66699 -8 -18 -12 -28 -12h-67z" />
    <glyph glyph-name="atilde" unicode="&#xe3;" horiz-adv-x="999" 
d="M48 334c0 176 60.333 331.668 181 467.001c76.667 86 166 146.333 268 181c51.333 17.333 104.333 26 159 26c82 0 153.667 -15.667 215 -47l-108 -883h1c10 -0.666992 21 -0.666992 33 0s23.833 0.666992 35.5 0s22 -2 31 -4s16.167 -5.83301 21.5 -11.5
s7.33301 -13.167 6 -22.5l-5 -40h-156h-22c-22.667 0 -34 10.333 -34 31l33 313c-80.667 -169.333 -177 -279.666 -289 -330.999c-38 -17.333 -77.333 -26 -118 -26c-26 0 -50.167 3.16699 -72.5 9.5s-42 15.166 -59 26.499s-32.333 25.166 -46 41.499
s-25.167 34.333 -34.5 54s-17 41.167 -23 64.5s-10.333 47.5 -13 72.5s-4 51.167 -4 78.5zM143 349.001c0 -188.667 62.667 -283 188 -283c75.333 0 148 41 218 123c68.667 80 126.667 187.667 174 323l50 405c-39.333 13.333 -82 20 -128 20c-132 0 -248.667 -60 -350 -180
c-101.333 -119.333 -152 -255.333 -152 -408zM314 1214c6 48.667 23.498 89.332 52.498 121.999s67.167 49 114.5 49c15.333 0 30.666 -3.16699 45.999 -9.5s27 -12.333 35 -18s18.667 -13.834 32 -24.501c2 -2 6.33301 -5.66699 13 -11s11.667 -9.5 15 -12.5
s8.33301 -6.66699 15 -11s12.334 -7.66602 17.001 -9.99902s10.334 -4.33301 17.001 -6s13.334 -2.5 20.001 -2.5c29.333 0 52.333 9.33301 69 28s27.334 43.334 32.001 74.001h59c-6 -49.333 -23.167 -90.166 -51.5 -122.499s-66.166 -48.5 -113.499 -48.5
c-14.667 0 -29.834 3.33301 -45.501 10s-27.334 12.667 -35.001 18s-18.5 13.666 -32.5 24.999c-2.66699 2 -7 5.5 -13 10.5l-14.5 12c-3.66699 3 -8.66699 6.66699 -15 11s-12.166 7.66602 -17.499 9.99902s-11.333 4.33301 -18 6s-13 2.5 -19 2.5
c-28.667 0 -51.334 -9.66699 -68.001 -29s-27.667 -43.666 -33 -72.999h-61z" />
    <glyph glyph-name="adieresis" unicode="&#xe4;" horiz-adv-x="997" 
d="M48 334c0 176 60.333 331.668 181 467.001c76.667 86 166 146.333 268 181c51.333 17.333 104.333 26 159 26c82 0 153.667 -15.667 215 -47l-108 -883h1c10 -0.666992 21 -0.666992 33 0s23.833 0.666992 35.5 0s22 -2 31 -4s16.167 -5.83301 21.5 -11.5
s7.33301 -13.167 6 -22.5l-5 -40h-156h-22c-22.667 0 -34 10.333 -34 31l33 313c-80.667 -169.333 -177 -279.666 -289 -330.999c-38 -17.333 -77.333 -26 -118 -26c-26 0 -50.167 3.16699 -72.5 9.5s-42 15.166 -59 26.499s-32.333 25.166 -46 41.499
s-25.167 34.333 -34.5 54s-17 41.167 -23 64.5s-10.333 47.5 -13 72.5s-4 51.167 -4 78.5zM143 349.001c0 -188.667 62.667 -283 188 -283c75.333 0 148 41 218 123c68.667 80 126.667 187.667 174 323l50 405c-39.333 13.333 -82 20 -128 20c-132 0 -248.667 -60 -350 -180
c-101.333 -119.333 -152 -255.333 -152 -408zM335 1316c5.33301 9.33301 11.666 17.667 18.999 25s16.5 13.5 27.5 18.5s22.5 7.5 34.5 7.5c28 0 49.167 -12.5 63.5 -37.5s13.833 -50.5 -1.5 -76.5c-20 -32.667 -47.333 -49 -82 -49c-28.667 0 -49.667 12.167 -63 36.5
s-12.666 49.5 2.00098 75.5zM677 1316c8 14.667 19.001 26.833 33.001 36.5s30.333 14.5 49 14.5c28 0 49.167 -12.5 63.5 -37.5s13.833 -50.5 -1.5 -76.5c-20 -32.667 -47.333 -49 -82 -49c-28.667 0 -49.834 12 -63.501 36s-13.167 49.333 1.5 76z" />
    <glyph glyph-name="aring" unicode="&#xe5;" horiz-adv-x="993" 
d="M46 334c0 176 60.333 331.668 181 467.001c76.667 86 166 146.333 268 181c51.333 17.333 104.333 26 159 26c82 0 153.667 -15.667 215 -47l-108 -883h1c10 -0.666992 21 -0.666992 33 0s23.833 0.666992 35.5 0s22 -2 31 -4s16.167 -5.83301 21.5 -11.5
s7.33301 -13.167 6 -22.5l-5 -40h-156h-22c-22.667 0 -34 10.333 -34 31l33 313c-80.667 -169.333 -177 -279.666 -289 -330.999c-38 -17.333 -77.333 -26 -118 -26c-26 0 -50.167 3.16699 -72.5 9.5s-42 15.166 -59 26.499s-32.333 25.166 -46 41.499
s-25.167 34.333 -34.5 54s-17 41.167 -23 64.5s-10.333 47.5 -13 72.5s-4 51.167 -4 78.5zM141 349.001c0 -188.667 62.667 -283 188 -283c75.333 0 148 41 218 123c68.667 80 126.667 187.667 174 323l50 405c-39.333 13.333 -82 20 -128 20c-132 0 -248.667 -60 -350 -180
c-101.333 -119.333 -152 -255.333 -152 -408zM407 1237c-11.333 34 -11.499 65.832 -0.499023 95.499s27.167 54.834 48.5 75.501s45 35.667 71 45c22 8.66699 44.667 13 68 13c48 0 87 -15.167 117 -45.5s42 -69.833 36 -118.5c-6 -46.667 -27 -85.5 -63 -116.5
s-79.333 -46.5 -130 -46.5c-36.667 0 -67.834 8.83301 -93.501 26.5s-43.5 41.5 -53.5 71.5zM460.001 1302c-4 -34 3.50098 -61.498 22.501 -82.498s45.167 -31.5 78.5 -31.5c34 0 62.833 11 86.5 33s37.5 49 41.5 81c4 33.333 -3.5 60.666 -22.5 81.999
s-44.833 32 -77.5 32c-34.667 0 -63.834 -10.833 -87.501 -32.5s-37.5 -48.834 -41.5 -81.501z" />
    <glyph glyph-name="ae" unicode="&#xe6;" horiz-adv-x="1435" 
d="M39 228c0 105.333 48.333 186.995 145 244.995c105.333 64 264.333 98.667 477 104l11 85c3.33301 33.333 5 57.333 5 72c0 26.667 -2.16699 51 -6.5 73s-11.333 41.833 -21 59.5s-21.667 32.667 -36 45s-31.5 21.666 -51.5 27.999s-42.667 9.5 -68 9.5
c-52 0 -98.333 -9.83301 -139 -29.5s-79.667 -45.5 -117 -77.5c-15.333 -13.333 -27.666 -20 -36.999 -20c-14 0 -23.333 6 -28 18l-12 28c54 52 108.167 91.333 162.5 118s114.5 40 180.5 40c145.333 0 225.666 -75.667 240.999 -227c36.667 68.667 84.5 123.5 143.5 164.5
s130.5 61.5 214.5 61.5c28.667 0 55.5 -3.16699 80.5 -9.5s47.167 -15.166 66.5 -26.499s36.5 -25.166 51.5 -41.499s27.167 -34.5 36.5 -54.5c12.667 -26.667 19 -56 19 -88c0 -85.333 -44.667 -152.333 -134 -201c-106 -57.333 -267.667 -86.666 -485 -87.999
c-2 -27.333 -3 -54.666 -3 -81.999c0 -51.333 5 -98.166 15 -140.499s25.167 -79.833 45.5 -112.5s47.5 -58.167 81.5 -76.5s73.333 -27.5 118 -27.5c59.333 0 110.166 10.333 152.499 31s83.833 49.334 124.5 86.001l8.5 8.5c3.66699 3.66699 6.83398 6.66699 9.50098 9
l10 8.5c4 3.33301 7.5 6 10.5 8s6.5 3.66699 10.5 5s7.66699 2 11 2c8 0 15 -3.33301 21 -10l22 -26c-28.667 -30.667 -54.5 -56 -77.5 -76s-50.833 -40.333 -83.5 -61s-68.667 -36 -108 -46s-82 -15 -128 -15c-83.333 0 -150 24.833 -200 74.5s-84 116.167 -102 199.5
c-24 -66.667 -60 -122.667 -108 -168s-105.667 -77 -173 -95c-36.667 -9.33301 -71 -14 -103 -14c-80 0 -142.167 19.167 -186.5 57.5s-66.5 95.833 -66.5 172.5zM129 240.995c0 -57.333 15.499 -100.998 46.499 -130.998s75.167 -45 132.5 -45
c46.667 0 89.834 9.16699 129.501 27.5s72 41.166 97 68.499s46.5 59.333 64.5 96c20 41.333 33.333 88.666 40 141.999l14 116c-182 -6.66699 -315 -33 -399 -79c-83.333 -44.667 -125 -109.667 -125 -195zM744.999 573.997c60.667 2 114.167 5.33105 160.5 9.99805
s91.666 12.334 135.999 23.001s83.5 24.334 117.5 41.001c36 17.333 64 38 84 62s30 54.333 30 91c0 48.667 -16.667 86.334 -50 113.001s-76.666 40 -129.999 40c-39.333 0 -75.666 -5.83301 -108.999 -17.5s-62.333 -28.334 -87 -50.001s-45.834 -45.167 -63.501 -70.5
s-33.167 -54 -46.5 -86c-19.333 -46.667 -33.333 -98.667 -42 -156z" />
    <glyph glyph-name="ccedilla" unicode="&#xe7;" horiz-adv-x="895" 
d="M59 498c14.667 114.667 49 213.169 103 295.502s125.333 142.166 214 179.499c58.667 25.333 124 38 196 38c46.667 0 120.334 -15.667 221.001 -47l51 -15l-31 -251h-49c-7.33301 0 -13.5 1.33301 -18.5 4s-8.83301 6.66699 -11.5 12s-4.66699 10.833 -6 16.5
s-2 13 -2 22s0.166992 17 0.5 24s0.833008 15.667 1.5 26s1 18.166 1 23.499c1.33301 24 3 49.333 5 76c-118.667 44 -226 45 -322 3c-72.667 -31.333 -130.334 -82.333 -173.001 -153s-70.334 -155.334 -83.001 -254.001c-12 -100.667 -5.16699 -186.167 20.5 -256.5
s69.834 -120.5 132.501 -150.5c40.667 -19.333 87 -29 139 -29c100.667 0 187.667 30.333 261 91c14 11.333 24.667 17 32 17c8.66699 0 15 -3.33301 19 -10l22 -32c-36.667 -41.333 -84 -74.5 -142 -99.5s-122.333 -38.5 -193 -40.5l-34 -79
c21.333 -4 39.166 -7.83301 53.499 -11.5s29.666 -9 45.999 -16s29.333 -15 39 -24s17.167 -20.667 22.5 -35s7 -30.5 5 -48.5c-5.33301 -42 -26.666 -74 -63.999 -96s-82.666 -33 -135.999 -33c-27.333 0 -53.666 3.83301 -78.999 11.5s-45.666 17.834 -60.999 30.501
l13 28c5.33301 8 11.333 12 18 12c2 0 4.66699 -0.666992 8 -2s6.16602 -2.83301 8.49902 -4.5l8.5 -6l8 -5.5c22.667 -11.333 49.667 -17 81 -17c32 0 58.833 7.16699 80.5 21.5s34.167 34.5 37.5 60.5c1.33301 12 0.333008 22.833 -3 32.5s-9.16602 17.667 -17.499 24
s-16.666 11.666 -24.999 15.999s-19.833 8 -34.5 11s-26.334 5.16699 -35.001 6.5s-21 3 -37 5c-6.66699 0.666992 -11.667 1.33398 -15 2.00098l52 118c-81.333 6 -148.833 31.167 -202.5 75.5s-90.834 103.5 -111.501 177.5s-25.334 159.333 -14.001 256z" />
    <glyph glyph-name="egrave" unicode="&#xe8;" horiz-adv-x="868" 
d="M48 378c0 161.333 44 303.997 132 427.997c60 84 134.667 143 224 177c45.333 17.333 94.333 26 147 26c62 0 115 -12.167 159 -36.5s74.667 -58.166 92 -101.499c9.33301 -23.333 14 -45.333 14 -66c0 -35.333 -5.83301 -66.666 -17.5 -93.999s-26 -49.5 -43 -66.5
s-38.833 -33.833 -65.5 -50.5c-64.667 -39.333 -165.334 -72 -302.001 -98c-69.333 -12.667 -150.666 -24 -243.999 -34c-2.66699 -28 -4 -55.333 -4 -82c0 -99.333 22.5 -177 67.5 -233s112.833 -84 203.5 -84c58.667 0 109 10.333 151 31s83.667 49.334 125 86.001
c2 1.33301 6.33301 5.33301 13 12s11.834 11.5 15.501 14.5s8.66699 6.16699 15 9.5s12.166 5 17.499 5c8 0 15 -3.33301 21 -10l22 -26c-28.667 -30.667 -54.5 -56 -77.5 -76s-50.833 -40.333 -83.5 -61s-68.667 -36 -108 -46s-82 -15 -128 -15
c-113.333 0 -199.333 35.167 -258 105.5s-88 165.5 -88 285.5zM155 527.997c154 17.333 279.001 41.001 375.001 71.001c77.333 25.333 132.333 56.666 165 93.999c24.667 28.667 37 65 37 109c0 44.667 -17.833 78.667 -53.5 102s-79.834 35 -132.501 35
c-99.333 0 -185.333 -41.667 -258 -125c-66 -74 -110.333 -169.333 -133 -286zM353.001 1431h92c16.667 0 28.5 -2.33301 35.5 -7s13.5 -13 19.5 -25l128 -238h-54c-15.333 0 -27 5.66699 -35 17z" />
    <glyph glyph-name="eacute" unicode="&#xe9;" horiz-adv-x="869" 
d="M48 378c0 161.333 44 303.997 132 427.997c60 84 134.667 143 224 177c45.333 17.333 94.333 26 147 26c62 0 115 -12.167 159 -36.5s74.667 -58.166 92 -101.499c9.33301 -23.333 14 -45.333 14 -66c0 -35.333 -5.83301 -66.666 -17.5 -93.999s-26 -49.5 -43 -66.5
s-38.833 -33.833 -65.5 -50.5c-64.667 -39.333 -165.334 -72 -302.001 -98c-69.333 -12.667 -150.666 -24 -243.999 -34c-2.66699 -28 -4 -55.333 -4 -82c0 -99.333 22.5 -177 67.5 -233s112.833 -84 203.5 -84c58.667 0 109 10.333 151 31s83.667 49.334 125 86.001
c2 1.33301 6.33301 5.33301 13 12s11.834 11.5 15.501 14.5s8.66699 6.16699 15 9.5s12.166 5 17.499 5c8 0 15 -3.33301 21 -10l22 -26c-28.667 -30.667 -54.5 -56 -77.5 -76s-50.833 -40.333 -83.5 -61s-68.667 -36 -108 -46s-82 -15 -128 -15
c-113.333 0 -199.333 35.167 -258 105.5s-88 165.5 -88 285.5zM155 527.997c154 17.333 279.001 41.001 375.001 71.001c77.333 25.333 132.333 56.666 165 93.999c24.667 28.667 37 65 37 109c0 44.667 -17.833 78.667 -53.5 102s-79.834 35 -132.501 35
c-99.333 0 -185.333 -41.667 -258 -125c-66 -74 -110.333 -169.333 -133 -286zM441.001 1161l185.999 238.001c6 8 11.333 14.167 16 18.5s10.834 7.66602 18.501 9.99902s17.167 3.5 28.5 3.5h94l-247 -253c-10 -11.333 -23 -17 -39 -17h-57z" />
    <glyph glyph-name="ecircumflex" unicode="&#xea;" horiz-adv-x="868" 
d="M48 378c0 161.333 44 303.997 132 427.997c60 84 134.667 143 224 177c45.333 17.333 94.333 26 147 26c62 0 115 -12.167 159 -36.5s74.667 -58.166 92 -101.499c9.33301 -23.333 14 -45.333 14 -66c0 -35.333 -5.83301 -66.666 -17.5 -93.999s-26 -49.5 -43 -66.5
s-38.833 -33.833 -65.5 -50.5c-64.667 -39.333 -165.334 -72 -302.001 -98c-69.333 -12.667 -150.666 -24 -243.999 -34c-2.66699 -28 -4 -55.333 -4 -82c0 -99.333 22.5 -177 67.5 -233s112.833 -84 203.5 -84c58.667 0 109 10.333 151 31s83.667 49.334 125 86.001
c2 1.33301 6.33301 5.33301 13 12s11.834 11.5 15.501 14.5s8.66699 6.16699 15 9.5s12.166 5 17.499 5c8 0 15 -3.33301 21 -10l22 -26c-28.667 -30.667 -54.5 -56 -77.5 -76s-50.833 -40.333 -83.5 -61s-68.667 -36 -108 -46s-82 -15 -128 -15
c-113.333 0 -199.333 35.167 -258 105.5s-88 165.5 -88 285.5zM155 527.997c154 17.333 279.001 41.001 375.001 71.001c77.333 25.333 132.333 56.666 165 93.999c24.667 28.667 37 65 37 109c0 44.667 -17.833 78.667 -53.5 102s-79.834 35 -132.501 35
c-99.333 0 -185.333 -41.667 -258 -125c-66 -74 -110.333 -169.333 -133 -286zM267.001 1169l248.001 245.999h85l187 -246h-65c-10.667 0 -19 4 -25 12l-136 163c-4 2.66699 -7.33301 6.33398 -10 11.001c-0.666992 -1.33301 -4.33398 -5 -11.001 -11l-177 -163
c-9.33301 -8 -19 -12 -29 -12h-67z" />
    <glyph glyph-name="edieresis" unicode="&#xeb;" horiz-adv-x="874" 
d="M49 378c0 161.333 44 303.997 132 427.997c60 84 134.667 143 224 177c45.333 17.333 94.333 26 147 26c62 0 115 -12.167 159 -36.5s74.667 -58.166 92 -101.499c9.33301 -23.333 14 -45.333 14 -66c0 -35.333 -5.83301 -66.666 -17.5 -93.999s-26 -49.5 -43 -66.5
s-38.833 -33.833 -65.5 -50.5c-64.667 -39.333 -165.334 -72 -302.001 -98c-69.333 -12.667 -150.666 -24 -243.999 -34c-2.66699 -28 -4 -55.333 -4 -82c0 -99.333 22.5 -177 67.5 -233s112.833 -84 203.5 -84c58.667 0 109 10.333 151 31s83.667 49.334 125 86.001
c2 1.33301 6.33301 5.33301 13 12s11.834 11.5 15.501 14.5s8.66699 6.16699 15 9.5s12.166 5 17.499 5c8 0 15 -3.33301 21 -10l22 -26c-28.667 -30.667 -54.5 -56 -77.5 -76s-50.833 -40.333 -83.5 -61s-68.667 -36 -108 -46s-82 -15 -128 -15
c-113.333 0 -199.333 35.167 -258 105.5s-88 165.5 -88 285.5zM156 527.997c154 17.333 279.001 41.001 375.001 71.001c77.333 25.333 132.333 56.666 165 93.999c24.667 28.667 37 65 37 109c0 44.667 -17.833 78.667 -53.5 102s-79.834 35 -132.501 35
c-99.333 0 -185.333 -41.667 -258 -125c-66 -74 -110.333 -169.333 -133 -286zM302.001 1316c4.66699 9.33301 10.666 17.667 17.999 25s16.5 13.5 27.5 18.5s22.5 7.5 34.5 7.5c28.667 0 50 -12.5 64 -37.5s13.667 -50.5 -1 -76.5c-20 -32.667 -47.667 -49 -83 -49
c-28 0 -48.667 12.167 -62 36.5s-12.666 49.5 2.00098 75.5zM644 1316c8 14.667 18.999 26.833 32.999 36.5s30 14.5 48 14.5c28.667 0 50 -12.5 64 -37.5s13.667 -50.5 -1 -76.5c-20 -32.667 -47.667 -49 -83 -49c-28.667 0 -49.667 12 -63 36s-12.666 49.333 2.00098 76z
" />
    <glyph glyph-name="igrave" unicode="&#xec;" horiz-adv-x="433" 
d="M76 955l5.00098 40.001h240l-113 -916c6 0 21.833 -0.5 47.5 -1.5s44.834 -1.83301 57.501 -2.5c26 -1.33301 37.667 -13 35 -35l-5 -40h-239l64.5 526.5c28.333 230.333 44.166 360.166 47.499 389.499c-9.33301 0 -20.833 0.333008 -34.5 1
s-26.334 1.16699 -38.001 1.5s-22.167 0.833008 -31.5 1.5c-26.667 1.33301 -38.667 13 -36 35zM124.001 1431h92c16.667 0 28.5 -2.33301 35.5 -7s13.5 -13 19.5 -25l128 -238h-54c-15.333 0 -27 5.66699 -35 17z" />
    <glyph glyph-name="iacute" unicode="&#xed;" horiz-adv-x="559" 
d="M70 955l5.00195 40.001h240l-113 -916c9.33301 0 21 -0.333008 35 -1s26.667 -1.16699 38 -1.5s22 -0.833008 32 -1.5c26 -1.33301 37.667 -13 35 -35l-5 -40h-239l64.5 526.5c28.333 230.333 44.166 360.166 47.499 389.499c-9.33301 0 -20.833 0.333008 -34.5 1
s-26.334 1.16699 -38.001 1.5s-22.167 0.833008 -31.5 1.5c-26.667 1.33301 -38.667 13 -36 35zM204.002 1161l185.999 238.001c6 8 11.333 14.167 16 18.5s10.834 7.66602 18.501 9.99902s17.167 3.5 28.5 3.5h94l-247 -253c-10 -11.333 -23 -17 -39 -17h-57z" />
    <glyph glyph-name="icircumflex" unicode="&#xee;" horiz-adv-x="582" 
d="M54 1169l248.001 245.999h85l187 -246h-65c-10.667 0 -19.334 4 -26.001 12l-136 163c-3.33301 2.66699 -6.33301 6.33398 -9 11.001c-0.666992 -1.33301 -4.66699 -5 -12 -11l-177 -163c-8.66699 -8 -18 -12 -28 -12h-67zM84.001 954.999l5.00293 40.001h240l-113 -916
c9.33301 0 21 -0.333008 35 -1s26.667 -1.16699 38 -1.5s21.666 -0.833008 30.999 -1.5c26.667 -1.33301 38.667 -13 36 -35l-5 -40h-240l65.5 526.5c28.333 230.333 44.166 360.166 47.499 389.499c-9.33301 0 -20.833 0.333008 -34.5 1s-26.334 1.16699 -38.001 1.5
s-22.167 0.833008 -31.5 1.5c-26.667 1.33301 -38.667 13 -36 35z" />
    <glyph glyph-name="idieresis" unicode="&#xef;" horiz-adv-x="620" 
d="M101 955l5 40.001h239l-112 -916c5.33301 0 20.833 -0.5 46.5 -1.5s44.834 -1.83301 57.501 -2.5c26 -1.33301 37.667 -13 35 -35l-5 -40h-239l64.5 526.5c28.333 230.333 44.166 360.166 47.499 389.499c-9.33301 0 -20.833 0.333008 -34.5 1s-26.167 1.16699 -37.5 1.5
s-22 0.833008 -32 1.5c-26 1.33301 -37.667 13 -35 35zM110 1316c8 14.667 18.999 26.833 32.999 36.5s30 14.5 48 14.5c28 0 49.167 -12.5 63.5 -37.5s13.833 -50.5 -1.5 -76.5c-20 -32.667 -47.333 -49 -82 -49c-28.667 0 -49.667 12.167 -63 36.5
s-12.666 49.5 2.00098 75.5zM451.999 1316c8 14.667 18.998 26.833 32.998 36.5s30.333 14.5 49 14.5c28 0 49.167 -12.5 63.5 -37.5s13.833 -50.5 -1.5 -76.5c-20 -32.667 -47.333 -49 -82 -49c-29.333 0 -50.666 12 -63.999 36s-12.666 49.333 2.00098 76z" />
    <glyph glyph-name="eth" unicode="&#xf0;" horiz-adv-x="1040" 
d="M59 261c-11.333 41.333 -16.1689 85.168 -14.502 131.501s7.33398 89.833 17.001 130.5s22.5 78.334 38.5 113.001c54.667 117.333 138.667 200.333 252 249c56.667 24 119.334 36 188.001 36c86 0 158.333 -21.167 217 -63.5s102.667 -98.5 132 -168.5
c8.66699 224 -59.333 390 -204 498l-182 -145l-14 28c-9.33301 12.667 -6 25.667 10 39l139 109c-72.667 43.333 -157.667 75 -255 95c-12.667 2.66699 -19.667 10.667 -21 24s1.66699 25 9 35l9 20c126.667 -20 236 -60.667 328 -122l169 135l15 -29
c6.66699 -13.333 2.33398 -26.333 -12.999 -39l-126 -100c82 -67.333 141.667 -154.333 179 -261s47 -232.334 29 -377.001c-10.667 -89.333 -28.834 -170 -54.501 -242s-61.5 -136.667 -107.5 -194s-100.667 -101 -164 -131c-61.333 -29.333 -130.333 -44 -207 -44
c-96.667 0 -176.667 24.667 -240 74s-106.333 115.666 -129 198.999zM150.997 289.002c11.333 -44.667 29.332 -83.5 53.999 -116.5s57.167 -59.5 97.5 -79.5s86.166 -30 137.499 -30c114.667 0 209.334 44.667 284.001 134c72.667 86.667 120.667 208.667 144 366
c-10.667 60.667 -32.167 113.167 -64.5 157.5s-73.833 77.833 -124.5 100.5c-37.333 16.667 -81.333 25 -132 25c-89.333 0 -164.166 -21.667 -224.499 -65s-106.166 -100.666 -137.499 -171.999c-12.667 -29.333 -23 -61.5 -31 -96.5s-12.833 -72.333 -14.5 -112
s2.16602 -76.834 11.499 -111.501z" />
    <glyph glyph-name="ntilde" unicode="&#xf1;" horiz-adv-x="1124" 
d="M71 955l5.00098 40.001h145h52c17.333 0 26.333 -8.33301 27 -25l-10 -150c116.667 127.333 244.667 191 384 191c107.333 0 185.333 -32.833 234 -98.5s65.667 -157.834 51 -276.501l-69 -557c6 0 21.667 -0.5 47 -1.5s44.666 -1.83301 57.999 -2.5
c26 -1.33301 37.667 -13 35 -35l-5 -40h-239l78 636c11.333 94.667 -1.5 168.167 -38.5 220.5s-98.833 78.5 -185.5 78.5c-126.667 0 -245 -63 -355 -189l-91 -746h-95l112 916c-9.33301 0 -26 0.5 -50 1.5s-42 1.83301 -54 2.5c-26.667 1.33301 -38.667 13 -36 35z
M381.001 1214c2.66699 23.333 8.16309 44.9971 16.4961 64.9971s19.333 38 33 54s30.5 28.667 50.5 38s42.333 14 67 14c14.667 0 29.834 -3.16699 45.501 -9.5s27.334 -12.333 35.001 -18s18.5 -14.167 32.5 -25.5c2 -1.33301 6.16699 -4.66602 12.5 -9.99902l15 -12.5
c3.66699 -3 8.66699 -6.66699 15 -11s12 -7.66602 17 -9.99902s10.833 -4.33301 17.5 -6s13.334 -2.5 20.001 -2.5c29.333 0 52.333 9.33301 69 28s27 43.334 31 74.001h59c-6 -49.333 -23 -90.166 -51 -122.499s-66 -48.5 -114 -48.5c-14.667 0 -29.667 3.33301 -45 10
s-26.833 12.667 -34.5 18s-18.5 13.333 -32.5 24c-2 2 -7.33301 6.5 -16 13.5l-19 15c-4 3 -9.83301 6.83301 -17.5 11.5s-15.167 8 -22.5 10s-15 3 -23 3c-19.333 0 -36.166 -4.83301 -50.499 -14.5s-25.5 -21.834 -33.5 -36.501s-13.333 -31.667 -16 -51h-61z" />
    <glyph glyph-name="ograve" unicode="&#xf2;" horiz-adv-x="1038" 
d="M55 498c14.667 116.667 49.166 216 103.499 298s126.833 141.667 217.5 179c59.333 24 124.666 36 195.999 36c143.333 0 249 -46 317 -138s92.333 -217 73 -375c-14 -116 -48.167 -215 -102.5 -297s-126.833 -141.333 -217.5 -178
c-59.333 -24 -124.666 -36 -195.999 -36c-143.333 0 -249.166 45.667 -317.499 137s-92.833 216 -73.5 374zM153.999 318c12.667 -81.333 44.0029 -144.333 94.0029 -189s119.333 -67 208 -67c51.333 0 98.333 7.5 141 22.5s79 35.667 109 62s56 58.166 78 95.499
s39.333 77 52 119s22 87.667 28 137c9.33301 64 9.66602 122.667 0.999023 176s-24.334 99.5 -47.001 138.5s-55.667 69.333 -99 91s-95.333 32.5 -156 32.5c-174.667 0 -296.334 -86 -365.001 -258c-20 -49.333 -34.667 -107.166 -44 -173.499s-9.33301 -128.5 0 -186.5z
M419.002 1431h92c16 0 27.667 -2.33301 35 -7s14 -13 20 -25l128 -238h-54c-16 0 -27.667 5.66699 -35 17z" />
    <glyph glyph-name="oacute" unicode="&#xf3;" horiz-adv-x="1038" 
d="M55 498c14.667 116.667 49.166 216 103.499 298s126.833 141.667 217.5 179c59.333 24 124.666 36 195.999 36c143.333 0 249 -46 317 -138s92.333 -217 73 -375c-14 -116 -48.167 -215 -102.5 -297s-126.833 -141.333 -217.5 -178
c-59.333 -24 -124.666 -36 -195.999 -36c-143.333 0 -249.166 45.667 -317.499 137s-92.833 216 -73.5 374zM153.999 318c12.667 -81.333 44.0029 -144.333 94.0029 -189s119.333 -67 208 -67c51.333 0 98.333 7.5 141 22.5s79 35.667 109 62s56 58.166 78 95.499
s39.333 77 52 119s22 87.667 28 137c9.33301 64 9.66602 122.667 0.999023 176s-24.334 99.5 -47.001 138.5s-55.667 69.333 -99 91s-95.333 32.5 -156 32.5c-174.667 0 -296.334 -86 -365.001 -258c-20 -49.333 -34.667 -107.166 -44 -173.499s-9.33301 -128.5 0 -186.5z
M507.002 1161l186 238c4.66699 6 8.66699 10.833 12 14.5s7.33301 7 12 10s10.167 5 16.5 6s13.833 1.5 22.5 1.5h94l-247 -253c-10.667 -11.333 -23.667 -17 -39 -17h-57z" />
    <glyph glyph-name="ocircumflex" unicode="&#xf4;" horiz-adv-x="1038" 
d="M55 498c14.667 116.667 49.166 216 103.499 298s126.833 141.667 217.5 179c59.333 24 124.666 36 195.999 36c143.333 0 249 -46 317 -138s92.333 -217 73 -375c-14 -116 -48.167 -215 -102.5 -297s-126.833 -141.333 -217.5 -178
c-59.333 -24 -124.666 -36 -195.999 -36c-143.333 0 -249.166 45.667 -317.499 137s-92.833 216 -73.5 374zM153.999 318c12.667 -81.333 44.0029 -144.333 94.0029 -189s119.333 -67 208 -67c51.333 0 98.333 7.5 141 22.5s79 35.667 109 62s56 58.166 78 95.499
s39.333 77 52 119s22 87.667 28 137c9.33301 64 9.66602 122.667 0.999023 176s-24.334 99.5 -47.001 138.5s-55.667 69.333 -99 91s-95.333 32.5 -156 32.5c-174.667 0 -296.334 -86 -365.001 -258c-20 -49.333 -34.667 -107.166 -44 -173.499s-9.33301 -128.5 0 -186.5z
M333.002 1169l248.001 245.999h85l187 -246h-65c-10.667 0 -19.334 4 -26.001 12l-136 163c-3.33301 2.66699 -6.66602 6.33398 -9.99902 11.001c-0.666992 -1.33301 -4.33398 -5 -11.001 -11l-177 -163c-8.66699 -8 -18 -12 -28 -12h-67z" />
    <glyph glyph-name="otilde" unicode="&#xf5;" horiz-adv-x="1041" 
d="M56 498c14.667 116.667 49.166 216 103.499 298s126.833 141.667 217.5 179c59.333 24 124.666 36 195.999 36c143.333 0 249 -46 317 -138s92.333 -217 73 -375c-14 -116 -48.167 -215 -102.5 -297s-126.833 -141.333 -217.5 -178
c-59.333 -24 -124.666 -36 -195.999 -36c-143.333 0 -249.166 45.667 -317.499 137s-92.833 216 -73.5 374zM154.999 318c12.667 -81.333 44.0029 -144.333 94.0029 -189s119.333 -67 208 -67c51.333 0 98.333 7.5 141 22.5s79 35.667 109 62s56 58.166 78 95.499
s39.333 77 52 119s22 87.667 28 137c9.33301 64 9.66602 122.667 0.999023 176s-24.334 99.5 -47.001 138.5s-55.667 69.333 -99 91s-95.333 32.5 -156 32.5c-174.667 0 -296.334 -86 -365.001 -258c-20 -49.333 -34.667 -107.166 -44 -173.499s-9.33301 -128.5 0 -186.5z
M345.002 1214c6 48.667 23.5 89.333 52.5 122s67.167 49 114.5 49c15.333 0 30.666 -3.16699 45.999 -9.5s27 -12.333 35 -18s18.667 -13.834 32 -24.501c2.66699 -2 6.5 -5.16699 11.5 -9.5l12.5 -10.5c3.33301 -2.66699 7.5 -5.83398 12.5 -9.50098
s9.66699 -6.66699 14 -9l14 -7.5c5 -2.66699 10.333 -4.5 16 -5.5s11.167 -1.5 16.5 -1.5c29.333 0 52.333 9.33301 69 28s27.334 43.334 32.001 74.001h59c-6 -49.333 -23.167 -90.166 -51.5 -122.499s-66.166 -48.5 -113.499 -48.5c-14.667 0 -29.834 3.33301 -45.501 10
s-27.334 12.667 -35.001 18s-18.5 13.666 -32.5 24.999c-2 1.33301 -7.16699 5.5 -15.5 12.5s-14.666 12 -18.999 15s-10.333 6.83301 -18 11.5s-15.167 8 -22.5 10s-14.666 3 -21.999 3c-28.667 0 -51.334 -9.66699 -68.001 -29s-27.667 -43.666 -33 -72.999h-61z" />
    <glyph glyph-name="odieresis" unicode="&#xf6;" horiz-adv-x="1041" 
d="M56 498c14.667 116.667 49.166 216 103.499 298s126.833 141.667 217.5 179c59.333 24 124.666 36 195.999 36c143.333 0 249 -46 317 -138s92.333 -217 73 -375c-14 -116 -48.167 -215 -102.5 -297s-126.833 -141.333 -217.5 -178
c-59.333 -24 -124.666 -36 -195.999 -36c-143.333 0 -249.166 45.667 -317.499 137s-92.833 216 -73.5 374zM154.999 318c12.667 -81.333 44.0029 -144.333 94.0029 -189s119.333 -67 208 -67c51.333 0 98.333 7.5 141 22.5s79 35.667 109 62s56 58.166 78 95.499
s39.333 77 52 119s22 87.667 28 137c9.33301 64 9.66602 122.667 0.999023 176s-24.334 99.5 -47.001 138.5s-55.667 69.333 -99 91s-95.333 32.5 -156 32.5c-174.667 0 -296.334 -86 -365.001 -258c-20 -49.333 -34.667 -107.166 -44 -173.499s-9.33301 -128.5 0 -186.5z
M365.002 1316c8 14.667 18.999 26.833 32.999 36.5s30 14.5 48 14.5c28 0 49.167 -12.5 63.5 -37.5s13.833 -50.5 -1.5 -76.5c-20 -32.667 -47.333 -49 -82 -49c-28.667 0 -49.667 12.167 -63 36.5s-12.666 49.5 2.00098 75.5zM707.001 1316
c8 14.667 19.168 26.833 33.501 36.5s30.5 14.5 48.5 14.5c28 0 49.167 -12.5 63.5 -37.5s13.833 -50.5 -1.5 -76.5c-20 -32.667 -47.333 -49 -82 -49c-28.667 0 -49.834 12 -63.501 36s-13.167 49.333 1.5 76z" />
    <glyph glyph-name="divide" unicode="&#xf7;" horiz-adv-x="1052" 
d="M55 634l9 73h939l-9 -73h-939zM411 248c-13.333 15.333 -20.0029 32.668 -20.0029 52.001s4.83301 36.666 14.5 51.999s22.834 28.333 39.501 39s33.667 16 51 16c32.667 0 56.834 -14.167 72.501 -42.5s14.834 -57.5 -2.49902 -87.5
c-21.333 -37.333 -52.333 -56 -93 -56c-26 0 -46.667 9 -62 27zM497.997 960.002c-10.667 12 -17.1689 25.667 -19.502 41s-0.666016 29.666 5.00098 42.999s13.334 25.833 23.001 37.5s21.5 20.834 35.5 27.501s28 10 42 10c32.667 0 56.667 -14.167 72 -42.5
s14.333 -57.5 -3 -87.5c-21.333 -37.333 -52 -56 -92 -56c-26 0 -47 9 -63 27z" />
    <glyph glyph-name="oslash" unicode="&#xf8;" horiz-adv-x="1118" 
d="M25 -75l157 180.999c-80.667 90.667 -110.667 221.334 -90 392.001c14.667 116.667 49.167 216 103.5 298s126.833 141.333 217.5 178c59.333 24.667 124.666 37 195.999 37c114 0 205.667 -31.333 275 -94l101 116c6.66699 8 11.5 13.333 14.5 16s7.83301 5.5 14.5 8.5
s14.667 4.5 24 4.5h50l-165 -189c70.667 -90.667 96 -215.667 76 -375c-14 -116 -48.167 -215 -102.5 -297s-126.5 -141.333 -216.5 -178c-59.333 -24 -124.666 -36 -195.999 -36c-107.333 0 -194 26.333 -260 79l-94 -109c-18.667 -21.333 -41 -32 -67 -32h-38z
M186 311.999c8.66699 -54.667 26.6689 -100.999 54.002 -138.999l588 679c-54.667 57.333 -130.667 86 -228 86c-48 0 -92.167 -6.66699 -132.5 -20s-75.333 -32 -105 -56s-55.334 -51.167 -77.001 -81.5s-39.834 -64.166 -54.501 -101.499
c-20.667 -50.667 -35.667 -109.834 -45 -177.501s-9.33301 -130.834 0 -189.501zM279.002 129c52.667 -46 124 -69 214 -69c32 0 62.5 3 91.5 9s55.333 14.667 79 26s45.5 24.5 65.5 39.5s38.167 32.333 54.5 52s30.833 40.167 43.5 61.5s24 44.333 34 69
c22 54 37 114.333 45 181c16 127.333 2 229.333 -42 306z" />
    <glyph glyph-name="ugrave" unicode="&#xf9;" horiz-adv-x="1120" 
d="M59 955l4.99707 39.999h145h95l-78 -636c-12 -94.667 0.5 -168.167 37.5 -220.5s98.833 -78.5 185.5 -78.5c126.667 0 245.334 62.333 356.001 187l82 669c-8.66699 0 -25 0.5 -49 1.5s-42.333 1.83301 -55 2.5c-26 1.33301 -37.667 13 -35 35l5 40h144h95l-113 -916
c9.33301 0 21 -0.333008 35 -1s26.667 -1.16699 38 -1.5s22 -0.833008 32 -1.5c26 -1.33301 37.667 -13 35 -35l-5 -40h-197c-18 0 -26.333 8.66699 -25 26l9 148c-117.333 -126.667 -245.666 -190 -384.999 -190c-108 0 -186.167 32.833 -234.5 98.5
s-65.166 157.834 -50.499 276.501l68 557c-8.66699 0 -25 0.5 -49 1.5s-42.333 1.83301 -55 2.5c-26.667 1.33301 -38.667 13 -36 35zM453.997 1431h92c16.667 0 28.5 -2.33301 35.5 -7s13.5 -13 19.5 -25l128 -238h-54c-15.333 0 -27 5.66699 -35 17z" />
    <glyph glyph-name="uacute" unicode="&#xfa;" horiz-adv-x="1120" 
d="M59 955l4.99707 39.999h145h95l-78 -636c-12 -94.667 0.5 -168.167 37.5 -220.5s98.833 -78.5 185.5 -78.5c126.667 0 245.334 62.333 356.001 187l82 669c-8.66699 0 -25 0.5 -49 1.5s-42.333 1.83301 -55 2.5c-26 1.33301 -37.667 13 -35 35l5 40h144h95l-113 -916
c9.33301 0 21 -0.333008 35 -1s26.667 -1.16699 38 -1.5s22 -0.833008 32 -1.5c26 -1.33301 37.667 -13 35 -35l-5 -40h-197c-18 0 -26.333 8.66699 -25 26l9 148c-117.333 -126.667 -245.666 -190 -384.999 -190c-108 0 -186.167 32.833 -234.5 98.5
s-65.166 157.834 -50.499 276.501l68 557c-8.66699 0 -25 0.5 -49 1.5s-42.333 1.83301 -55 2.5c-26.667 1.33301 -38.667 13 -36 35zM541.997 1161l186 238c9.33301 12 18 20.333 26 25s20.333 7 37 7h94l-247 -253c-10 -11.333 -23 -17 -39 -17h-57z" />
    <glyph glyph-name="ucircumflex" unicode="&#xfb;" horiz-adv-x="1120" 
d="M59 955l4.99707 39.999h145h95l-78 -636c-12 -94.667 0.5 -168.167 37.5 -220.5s98.833 -78.5 185.5 -78.5c126.667 0 245.334 62.333 356.001 187l82 669c-8.66699 0 -25 0.5 -49 1.5s-42.333 1.83301 -55 2.5c-26 1.33301 -37.667 13 -35 35l5 40h144h95l-113 -916
c9.33301 0 21 -0.333008 35 -1s26.667 -1.16699 38 -1.5s22 -0.833008 32 -1.5c26 -1.33301 37.667 -13 35 -35l-5 -40h-197c-18 0 -26.333 8.66699 -25 26l9 148c-117.333 -126.667 -245.666 -190 -384.999 -190c-108 0 -186.167 32.833 -234.5 98.5
s-65.166 157.834 -50.499 276.501l68 557c-8.66699 0 -25 0.5 -49 1.5s-42.333 1.83301 -55 2.5c-26.667 1.33301 -38.667 13 -36 35zM367.997 1169l248.001 245.999h85l187 -246h-65c-10.667 0 -19 4 -25 12l-136 163c-4 2.66699 -7.33301 6.33398 -10 11.001
c-0.666992 -1.33301 -4.33398 -5 -11.001 -11l-177 -163c-9.33301 -8 -19 -12 -29 -12h-67z" />
    <glyph glyph-name="udieresis" unicode="&#xfc;" horiz-adv-x="1121" 
d="M59 955l4.99707 39.999h145h95l-78 -636c-12 -94.667 0.5 -168.167 37.5 -220.5s98.833 -78.5 185.5 -78.5c126.667 0 245.334 62.333 356.001 187l82 669c-8.66699 0 -25 0.5 -49 1.5s-42.333 1.83301 -55 2.5c-26 1.33301 -37.667 13 -35 35l5 40h144h95l-113 -916
c9.33301 0 21 -0.333008 35 -1s26.667 -1.16699 38 -1.5s22 -0.833008 32 -1.5c26 -1.33301 37.667 -13 35 -35l-5 -40h-197c-18 0 -26.333 8.66699 -25 26l9 148c-117.333 -126.667 -245.666 -190 -384.999 -190c-108 0 -186.167 32.833 -234.5 98.5
s-65.166 157.834 -50.499 276.501l68 557c-8.66699 0 -25 0.5 -49 1.5s-42.333 1.83301 -55 2.5c-26.667 1.33301 -38.667 13 -36 35zM399.997 1316c8 14.667 18.998 26.833 32.998 36.5s29.667 14.5 47 14.5c28.667 0 50 -12.5 64 -37.5s13.333 -50.5 -2 -76.5
c-19.333 -32.667 -46.666 -49 -81.999 -49c-28 0 -48.667 12.167 -62 36.5s-12.666 49.5 2.00098 75.5zM741.995 1316c4.66699 9.33301 10.8311 17.667 18.498 25s17 13.5 28 18.5s22.5 7.5 34.5 7.5c28.667 0 50 -12.5 64 -37.5s13.333 -50.5 -2 -76.5
c-19.333 -32.667 -46.666 -49 -81.999 -49c-28.667 0 -49.667 12 -63 36s-12.666 49.333 2.00098 76z" />
    <glyph glyph-name="yacute" unicode="&#xfd;" horiz-adv-x="1154" 
d="M51 955l4.99707 40.002h67h79h1h202l-5 -40c-0.666992 -4 -1.66699 -7.66699 -3 -11s-3.16602 -6.33301 -5.49902 -9s-4.5 -4.83398 -6.5 -6.50098s-5.16699 -3 -9.5 -4s-7.66602 -2 -9.99902 -3s-6.33301 -1.66699 -12 -2s-10 -0.5 -13 -0.5
s-7.83301 -0.166992 -14.5 -0.5s-11.667 -0.5 -15 -0.5c-16.667 -0.666992 -36.334 -1.33398 -59.001 -2.00098l223 -719c4 -15.333 7.66699 -36 11 -62c9.33301 21.333 19.333 42 30 62l395 719c-7.33301 0 -23.166 0.5 -47.499 1.5s-42.5 1.83301 -54.5 2.5
c-26.667 1.33301 -38.667 13 -36 35l5 40h274h75l-5 -40c-0.666992 -6.66699 -3 -12.5 -7 -17.5s-8.5 -8.83301 -13.5 -11.5s-11.833 -4.66699 -20.5 -6s-16 -2 -22 -2s-14.667 -0.166992 -26 -0.5s-19.666 -0.5 -24.999 -0.5l-690 -1237c-11.333 -21.333 -27 -32 -47 -32
h-68l223 389l-279 880c-6 0.666992 -14 1 -24 1s-17.5 0.166992 -22.5 0.5s-11 0.833008 -18 1.5s-12 1.66699 -15 3s-6.16699 3.33301 -9.5 6s-5.5 6.16699 -6.5 10.5s-1.16699 9.5 -0.5 15.5zM547.997 1161l186 238c4.66699 6 8.66699 10.833 12 14.5s7.5 7 12.5 10
s10.5 5 16.5 6s13.333 1.5 22 1.5h94l-247 -253c-10 -11.333 -23 -17 -39 -17h-57z" />
    <glyph glyph-name="thorn" unicode="&#xfe;" horiz-adv-x="1042" 
d="M27 -352l222 1807h95l-78 -635c111.333 127.333 235.333 191 372 191c67.333 0 124.666 -12.167 171.999 -36.5s83.333 -58.666 108 -102.999s41.167 -97.666 49.5 -159.999s7.16602 -131.5 -3.50098 -207.5c-14 -112.667 -47.167 -210.334 -99.5 -293.001
s-121.166 -144 -206.499 -184c-56.667 -26.667 -120 -40 -190 -40s-127.667 13.167 -173 39.5s-82.666 64.5 -111.999 114.5l-61 -493h-95zM192 217.999c28.667 -52.667 63.499 -91.835 104.499 -117.502s94.833 -38.5 161.5 -38.5c24 0 47.167 1.83301 69.5 5.5
s43 8.83398 62 15.501s37.167 14.667 54.5 24s33.333 20.166 48 32.499s28.334 25.333 41.001 39s24.334 28.5 35.001 44.5s20.5 32.333 29.5 49s17.167 34 24.5 52c21.333 54.667 36 114.667 44 180c9.33301 65.333 11 124.5 5 177.5s-18.667 98.333 -38 136
s-48.5 66.667 -87.5 87s-86.833 30.5 -143.5 30.5c-38 0 -74.333 -5.33301 -109 -16s-66.334 -25.667 -95.001 -45s-54 -39.666 -76 -60.999s-44 -45.666 -66 -72.999z" />
    <glyph glyph-name="ydieresis" unicode="&#xff;" horiz-adv-x="1156" 
d="M52 955l4.99707 40.002h67h79h1h202l-5 -40c-0.666992 -4 -1.66699 -7.66699 -3 -11s-3.16602 -6.33301 -5.49902 -9s-4.5 -4.83398 -6.5 -6.50098s-5.16699 -3 -9.5 -4s-7.66602 -2 -9.99902 -3s-6.33301 -1.66699 -12 -2s-10 -0.5 -13 -0.5
s-7.83301 -0.166992 -14.5 -0.5s-11.667 -0.5 -15 -0.5c-16.667 -0.666992 -36.334 -1.33398 -59.001 -2.00098l223 -719c4 -15.333 7.66699 -36 11 -62c9.33301 21.333 19.333 42 30 62l395 719c-7.33301 0 -23.166 0.5 -47.499 1.5s-42.5 1.83301 -54.5 2.5
c-26.667 1.33301 -38.667 13 -36 35l5 40h274h75l-5 -40c-0.666992 -6.66699 -3 -12.5 -7 -17.5s-8.5 -8.83301 -13.5 -11.5s-11.833 -4.66699 -20.5 -6s-16 -2 -22 -2s-14.667 -0.166992 -26 -0.5s-19.666 -0.5 -24.999 -0.5l-690 -1237c-11.333 -21.333 -27 -32 -47 -32
h-68l223 389l-279 880c-6 0.666992 -14 1 -24 1s-17.5 0.166992 -22.5 0.5s-11 0.833008 -18 1.5s-12 1.66699 -15 3s-6.16699 3.33301 -9.5 6s-5.5 6.16699 -6.5 10.5s-1.16699 9.5 -0.5 15.5zM406.997 1316c8 14.667 18.998 26.833 32.998 36.5s29.667 14.5 47 14.5
c28.667 0 50 -12.5 64 -37.5s13.333 -50.5 -2 -76.5c-19.333 -32.667 -46.666 -49 -81.999 -49c-28 0 -48.667 12.167 -62 36.5s-12.666 49.5 2.00098 75.5zM748.995 1316c8 14.667 18.998 26.833 32.998 36.5s30 14.5 48 14.5c28.667 0 50 -12.5 64 -37.5
s13.333 -50.5 -2 -76.5c-19.333 -32.667 -46.666 -49 -81.999 -49c-28.667 0 -49.667 12 -63 36s-12.666 49.333 2.00098 76z" />
    <glyph glyph-name="OE" unicode="&#x152;" horiz-adv-x="2163" 
d="M83 411c-14 67.333 -19.002 137.834 -15.002 211.501s13.833 142.667 29.5 207s35.167 122.5 58.5 174.5c82 179.333 202.667 304.333 362 375c78.667 34.667 163 52 253 52c52.667 0 102 -5.66699 148 -17s86.833 -27 122.5 -47s68 -44.667 97 -74
s53.833 -61.5 74.5 -96.5s37.667 -73.167 51 -114.5l41 333h837l-19.5 -158l-16.5 -135h-48c-15.333 0 -25.666 4 -30.999 12s-7.66602 20 -6.99902 36c2 20 6 73.333 12 160h-645l-71 -572h563l-10 -83h-563l-72 -590h645l12.5 71.5l10.5 60.5
c2.66699 15.333 4.33398 24.666 5.00098 27.999c5.33301 32 21.666 48 48.999 48h48l-36 -293h-837l41 334c-96 -168 -229.667 -275.667 -401 -323c-56 -16 -115 -24 -177 -24c-72 0 -137.333 10.5 -196 31.5s-108.834 50.5 -150.501 88.5s-76.167 82.5 -103.5 133.5
s-47.666 107.833 -60.999 170.5zM179.998 708.001c-17.333 -144 -6.00195 -267.33 33.998 -369.997s106.333 -176.334 199 -221.001c59.333 -29.333 127 -44 203 -44c76.667 0 148.334 14.667 215.001 44c106 46 190.833 120.167 254.5 222.5s104.167 225.166 121.5 368.499
c12 95.333 11.167 182.166 -2.5 260.499s-39.667 145.833 -78 202.5s-88.166 100 -149.499 130c-59.333 29.333 -127.333 44 -204 44c-154.667 0 -285.667 -57 -393 -171c-52.667 -56 -96.167 -123.667 -130.5 -203s-57.5 -167 -69.5 -263z" />
    <glyph glyph-name="oe" unicode="&#x153;" horiz-adv-x="1550" 
d="M54 338c0 152 26.0039 282.497 78.0039 391.497s127 187.833 225 236.5c60.667 30 126 45 196 45c41.333 0 78.666 -6.33301 111.999 -19s61.666 -30.5 84.999 -53.5s42.5 -49.667 57.5 -80s26.167 -64.166 33.5 -101.499c18 36 38.667 68.833 62 98.5
s50.666 56.334 81.999 80.001s67.5 42.167 108.5 55.5s84.833 20 131.5 20c37.333 0 71.666 -4.5 102.999 -13.5s58.833 -22.167 82.5 -39.5s42.167 -40 55.5 -68s20 -59.667 20 -95c0 -48 -11 -87.333 -33 -118s-52.667 -57.667 -92 -81
c-60 -36 -132.167 -63.333 -216.5 -82s-185.166 -34.334 -302.499 -47.001c-0.666992 -8 -1 -15.667 -1 -23v-24c0 -51.333 5 -98.166 15 -140.499s25.167 -79.833 45.5 -112.5s47.5 -58.167 81.5 -76.5s73.333 -27.5 118 -27.5c59.333 0 110.166 10.333 152.499 31
s83.833 49.334 124.5 86.001c2 1.33301 6.33301 5.33301 13 12s11.834 11.5 15.501 14.5s8.5 6.16699 14.5 9.5s11.667 5 17 5c8 0 15 -3.33301 21 -10l22 -26c-28.667 -30.667 -54.5 -56 -77.5 -76s-50.833 -40.333 -83.5 -61s-68.667 -36 -108 -46s-82 -15 -128 -15
c-44.667 0 -84.834 7.5 -120.501 22.5s-65.667 36.167 -90 63.5s-44.333 58.5 -60 93.5s-27.5 73.833 -35.5 116.5c-64 -142.667 -158.667 -234.667 -284 -276c-42 -13.333 -86.667 -20 -134 -20c-66 0 -122.333 15.333 -169 46s-81.167 72 -103.5 124
s-33.5 112.333 -33.5 181zM147.004 343.997c0 -85.333 19.667 -153.999 59 -205.999s98.333 -78 177 -78c170.667 0 288.667 105 354 315c25.333 81.333 38 168.666 38 261.999c0 44 -4.33301 83.667 -13 119s-22 66.833 -40 94.5s-42.167 49 -72.5 64
s-65.833 22.5 -106.5 22.5c-119.333 0 -215.333 -53.667 -288 -161c-72 -106.667 -108 -250.667 -108 -432zM847.004 527.998c116 13.333 210.5 29.668 283.5 49.001s129.833 40.333 170.5 63c34.667 19.333 61.167 40.666 79.5 63.999s27.5 52.666 27.5 87.999
c0 50 -18.167 87.333 -54.5 112s-83.5 37 -141.5 37c-41.333 0 -79.666 -6.5 -114.999 -19.5s-65.833 -31.167 -91.5 -54.5s-47.834 -48.666 -66.501 -75.999s-35 -58 -49 -92c-20.667 -50.667 -35 -107.667 -43 -171z" />
    <glyph glyph-name="Ydieresis" unicode="&#x178;" horiz-adv-x="1360" 
d="M59 1375l5.00195 40.001h369l-4 -40c-0.666992 -4.66699 -2 -8.83398 -4 -12.501s-4.16699 -6.83398 -6.5 -9.50098s-5.66602 -4.83398 -9.99902 -6.50098s-8 -3 -11 -4s-7.83301 -1.83301 -14.5 -2.5s-11.667 -1 -15 -1s-9 -0.166992 -17 -0.5s-13.667 -0.5 -17 -0.5
c-16 -0.666992 -34 -1.33398 -54 -2.00098l298 -596c13.333 -27.333 23.666 -56.666 30.999 -87.999c15.333 31.333 33 60.666 53 87.999l444 596c-8 0.666992 -24.333 1.33398 -49 2.00098s-43 1.33398 -55 2.00098c-26.667 1.33301 -38.667 13 -36 35l5 40h306h64l-5 -40
c-2.66699 -22 -17.334 -33.667 -44.001 -35c-33.333 -2 -58 -3.33301 -74 -4l-566 -752l-62 -505c12 0 32.833 -0.5 62.5 -1.5s51.5 -1.83301 65.5 -2.5c26 -1.33301 37.667 -13 35 -35l-5 -40h-439l5 40c0.666992 6 2.16699 11.167 4.5 15.5s5.83301 7.83301 10.5 10.5
s9.16699 4.66699 13.5 6s10.166 2.33301 17.499 3s13.5 1.16699 18.5 1.5s12.167 0.5 21.5 0.5h21c20 0.666992 42 1.33398 66 2.00098l62 505l-381 752c-14.667 0.666992 -39 2 -73 4c-26.667 1.33301 -38.667 13 -36 35zM455.002 1696c18.667 34 45.332 51 79.999 51
c27.333 0 48 -12.5 62 -37.5s13.667 -50.167 -1 -75.5c-19.333 -32 -46.333 -48 -81 -48c-28 0 -48.667 11.833 -62 35.5s-12.666 48.5 2.00098 74.5zM892 1722c18 16.667 38 24.999 60 24.999c23.333 0 41.333 -8.5 54 -25.5s17.5 -36.5 14.5 -58.5s-12.833 -40 -29.5 -54
c-18.667 -15.333 -38.334 -23 -59.001 -23c-18.667 0 -34 5 -46 15s-19.5 22.167 -22.5 36.5s-2.16699 29.333 2.5 45s13.334 28.834 26.001 39.501z" />
    <glyph glyph-name="circumflex" unicode="&#x2c6;" horiz-adv-x="730" 
d="M110 1169l248.001 245.999h85l187 -246h-65c-10.667 0 -19.334 4 -26.001 12l-136 163c-3.33301 2.66699 -6.33301 6.33398 -9 11.001c-0.666992 -1.33301 -4.66699 -5 -12 -11l-177 -163c-8.66699 -8 -18 -12 -28 -12h-67z" />
    <glyph glyph-name="tilde" unicode="&#x2dc;" horiz-adv-x="775" 
d="M132 1214c2.66699 23.333 8.16602 45.001 16.499 65.001s19.333 38 33 54s30.5 28.667 50.5 38s42.333 14 67 14c15.333 0 30.666 -3.16699 45.999 -9.5s27 -12.333 35 -18s18.667 -14.167 32 -25.5c0.666992 -0.666992 5.66699 -4.83398 15 -12.501
s15.833 -12.667 19.5 -15l17.5 -11c8 -5 15.667 -8.5 23 -10.5s14.666 -3 21.999 -3c20 0 37.167 4.66699 51.5 14s25.333 21.333 33 36s13.167 32 16.5 52h59c-6 -49.333 -23.167 -90.166 -51.5 -122.499s-66.166 -48.5 -113.499 -48.5
c-15.333 0 -30.666 3.33301 -45.999 10s-26.833 12.667 -34.5 18s-18.5 13.333 -32.5 24c-2 2 -7.16699 6.5 -15.5 13.5s-14.666 12 -18.999 15s-10.333 6.83301 -18 11.5s-15.167 8 -22.5 10s-14.666 3 -21.999 3c-19.333 0 -36.333 -4.83301 -51 -14.5
s-25.834 -21.834 -33.501 -36.501s-13.167 -31.667 -16.5 -51h-61z" />
    <glyph glyph-name="uni2000" unicode="&#x2000;" horiz-adv-x="894" 
 />
    <glyph glyph-name="uni2001" unicode="&#x2001;" horiz-adv-x="1789" 
 />
    <glyph glyph-name="uni2002" unicode="&#x2002;" horiz-adv-x="894" 
 />
    <glyph glyph-name="uni2003" unicode="&#x2003;" horiz-adv-x="1789" 
 />
    <glyph glyph-name="uni2004" unicode="&#x2004;" horiz-adv-x="596" 
 />
    <glyph glyph-name="uni2005" unicode="&#x2005;" horiz-adv-x="447" 
 />
    <glyph glyph-name="uni2006" unicode="&#x2006;" horiz-adv-x="298" 
 />
    <glyph glyph-name="uni2007" unicode="&#x2007;" horiz-adv-x="298" 
 />
    <glyph glyph-name="uni2008" unicode="&#x2008;" horiz-adv-x="223" 
 />
    <glyph glyph-name="uni2009" unicode="&#x2009;" horiz-adv-x="357" 
 />
    <glyph glyph-name="uni200A" unicode="&#x200a;" horiz-adv-x="99" 
 />
    <glyph glyph-name="uni2010" unicode="&#x2010;" horiz-adv-x="726" 
d="M128 553l10 81h465l-10 -81h-465z" />
    <glyph glyph-name="uni2011" unicode="&#x2011;" horiz-adv-x="726" 
d="M128 553l10 81h465l-10 -81h-465z" />
    <glyph glyph-name="figuredash" unicode="&#x2012;" horiz-adv-x="726" 
d="M128 553l10 81h465l-10 -81h-465z" />
    <glyph glyph-name="endash" unicode="&#x2013;" horiz-adv-x="1042" 
d="M126 543l9 71h787l-9 -71h-787z" />
    <glyph glyph-name="emdash" unicode="&#x2014;" horiz-adv-x="1552" 
d="M126 543l9 71h1297l-9 -71h-1297z" />
    <glyph glyph-name="quoteleft" unicode="&#x2018;" horiz-adv-x="412" 
d="M152 1057c-12.667 28.667 -20.502 58.002 -23.502 88.002s-1.33301 58.333 5 85s15 52.5 26 77.5s24.667 48.667 41 71s32.666 42.5 48.999 60.5s33.5 34.667 51.5 50l24 -18c10.667 -8 10.334 -17 -0.999023 -27c-17.333 -20 -31.666 -37.333 -42.999 -52
s-23.666 -33.667 -36.999 -57s-22.5 -45.333 -27.5 -66s-6.83301 -44.334 -5.5 -71.001s8 -53 20 -79c4 -8 4.66699 -15.333 2 -22s-8 -11.334 -16 -14.001z" />
    <glyph glyph-name="quoteright" unicode="&#x2019;" horiz-adv-x="407" 
d="M109 1063c-4 4.66699 -5.66699 9.49902 -5 14.499s3.33398 9.5 8.00098 13.5c17.333 19.333 31.666 36.5 42.999 51.5s23.666 34 36.999 57s22.5 44.833 27.5 65.5s6.66699 44.334 5 71.001s-8.16699 53 -19.5 79c-4 8 -4.66699 15.333 -2 22s8 11.334 16 14.001l64 26
c16 -34 24.5 -69 25.5 -105s-3.33301 -69 -13 -99s-23.667 -60 -42 -90s-37.166 -55.833 -56.499 -77.5s-40 -41.834 -62 -60.501z" />
    <glyph glyph-name="quotesinglbase" unicode="&#x201a;" horiz-adv-x="442" 
d="M102 -238c-4 4.66699 -5.66699 9.49902 -5 14.499s3.33398 9.5 8.00098 13.5c17.333 19.333 31.666 36.5 42.999 51.5s23.666 34 36.999 57s22.5 44.833 27.5 65.5s6.66699 44.334 5 71.001s-8.16699 53 -19.5 79c-4 8 -4.66699 15.333 -2 22s8 11.334 16 14.001l64 26
c11.333 -24.667 18.833 -49.834 22.5 -75.501s4.16699 -50 1.5 -73s-8.16699 -46 -16.5 -69s-18.166 -44.333 -29.499 -64s-24.333 -39 -39 -58s-29 -35.833 -43 -50.5s-28.667 -28.667 -44 -42z" />
    <glyph glyph-name="quotedblleft" unicode="&#x201c;" horiz-adv-x="681" 
d="M152 1057c-10.667 24.667 -17.834 50 -21.501 76s-4 50.5 -1 73.5s8.66699 46 17 69s18 44.333 29 64s23.667 38.834 38 57.501s28.666 35.334 42.999 50.001s29.166 28.667 44.499 42l24 -18c10.667 -8 10.334 -17 -0.999023 -27
c-17.333 -20 -31.666 -37.333 -42.999 -52s-23.666 -33.667 -36.999 -57s-22.5 -45.333 -27.5 -66s-6.83301 -44.334 -5.5 -71.001s8 -53 20 -79c4 -8 4.66699 -15.333 2 -22s-8 -11.334 -16 -14.001zM421 1057c-15.333 34.667 -23.3359 70.0029 -24.0029 106.003
s3.83301 69 13.5 99s23.5 59.833 41.5 89.5s36.667 55.167 56 76.5s40 41.666 62 60.999l24 -18c10.667 -8 10.334 -17 -0.999023 -27c-17.333 -20 -31.666 -37.333 -42.999 -52s-23.666 -33.667 -36.999 -57s-22.5 -45.333 -27.5 -66s-6.83301 -44.334 -5.5 -71.001
s8 -53 20 -79c4 -8 4.66699 -15.333 2 -22s-8 -11.334 -16 -14.001z" />
    <glyph glyph-name="quotedblright" unicode="&#x201d;" horiz-adv-x="676" 
d="M109 1063c-4 4.66699 -5.66699 9.49902 -5 14.499s3.33398 9.5 8.00098 13.5c17.333 19.333 31.666 36.5 42.999 51.5s23.666 34 36.999 57s22.5 44.833 27.5 65.5s6.66699 44.334 5 71.001s-8.16699 53 -19.5 79c-4 8 -4.66699 15.333 -2 22s8 11.334 16 14.001l64 26
c16 -34 24.5 -69 25.5 -105s-3.33301 -69 -13 -99s-23.667 -60 -42 -90s-37.166 -55.833 -56.499 -77.5s-40 -41.834 -62 -60.501zM378 1063c-4 4.66699 -5.66992 9.5 -5.00293 14.5s3.33398 9.5 8.00098 13.5c14 16 25.833 30.167 35.5 42.5s20.667 27.666 33 45.999
s21.5 36 27.5 53s11 35.333 15 55s4.33301 40.334 1 62.001s-9.66602 43.5 -18.999 65.5c-4 8 -4.66699 15.333 -2 22s8 11.334 16 14.001l64 26c16 -34 24.5 -69 25.5 -105s-3.33301 -69 -13 -99s-23.667 -60 -42 -90s-37.166 -55.833 -56.499 -77.5
s-40 -41.834 -62 -60.501z" />
    <glyph glyph-name="quotedblbase" unicode="&#x201e;" horiz-adv-x="711" 
d="M102 -238c-4 4.66699 -5.66699 9.49902 -5 14.499s3.33398 9.5 8.00098 13.5c17.333 19.333 31.666 36.5 42.999 51.5s23.666 34 36.999 57s22.5 44.833 27.5 65.5s6.66699 44.334 5 71.001s-8.16699 53 -19.5 79c-4 8 -4.66699 15.333 -2 22s8 11.334 16 14.001l64 26
c11.333 -24.667 18.833 -49.834 22.5 -75.501s4.16699 -50 1.5 -73s-8.16699 -46 -16.5 -69s-18.166 -44.333 -29.499 -64s-24.333 -39 -39 -58s-29 -35.833 -43 -50.5s-28.667 -28.667 -44 -42zM371 -238.001c-4 4.66699 -5.66797 9.5 -5.00098 14.5
s3.33398 9.5 8.00098 13.5c17.333 19.333 31.666 36.5 42.999 51.5s23.666 34 36.999 57s22.5 44.833 27.5 65.5s6.66699 44.334 5 71.001s-8.16699 53 -19.5 79c-4 8 -4.66699 15.333 -2 22s8 11.334 16 14.001l64 26c13.333 -28.667 21.5 -57.834 24.5 -87.501
s1.5 -58 -4.5 -85s-14.667 -53 -26 -78s-25.166 -48.833 -41.499 -71.5s-32.666 -42.834 -48.999 -60.501s-33.5 -34.167 -51.5 -49.5z" />
    <glyph glyph-name="bullet" unicode="&#x2022;" horiz-adv-x="813" 
d="M122 484c-9.33301 34 -13.1631 66.334 -11.4961 97.001s8.5 60.5 20.5 89.5s25.833 54.5 41.5 76.5s33.167 41.333 52.5 58c64 58 136.333 87 217 87c25.333 0 49.666 -3 72.999 -9s44.166 -14.333 62.499 -25s35.166 -23.667 50.499 -39s28.166 -32 38.499 -50
s18.5 -37.333 24.5 -58c9.33301 -34.667 13.333 -67.334 12 -98.001s-8 -60.167 -20 -88.5s-25.833 -53.333 -41.5 -75s-33.167 -41.167 -52.5 -58.5c-64 -57.333 -137 -86 -219 -86c-62.667 0 -115.5 16.667 -158.5 50s-72.833 76.333 -89.5 129z" />
    <glyph glyph-name="ellipsis" unicode="&#x2026;" horiz-adv-x="1421" 
d="M149 142c20.667 18.667 43.6641 28 68.9971 28c32.667 0 56.834 -14 72.501 -42s14.834 -57.333 -2.49902 -88c-21.333 -36.667 -52 -55 -92 -55c-27.333 0 -48.166 9.5 -62.499 28.5s-20 41 -17 66s13.833 45.833 32.5 62.5zM638.997 142
c20.667 18.667 43.6641 28 68.9971 28c32.667 0 56.834 -14 72.501 -42s14.834 -57.333 -2.49902 -88c-21.333 -36.667 -52 -55 -92 -55c-27.333 0 -48.166 9.5 -62.499 28.5s-20 41 -17 66s13.833 45.833 32.5 62.5zM1129.99 142c20.667 18.667 43.6641 28 68.9971 28
c32.667 0 56.834 -14 72.501 -42s14.834 -57.333 -2.49902 -88c-21.333 -36.667 -52 -55 -92 -55c-27.333 0 -48.166 9.5 -62.499 28.5s-20 41 -17 66s13.833 45.833 32.5 62.5z" />
    <glyph glyph-name="uni202F" unicode="&#x202f;" horiz-adv-x="357" 
 />
    <glyph glyph-name="guilsinglleft" unicode="&#x2039;" horiz-adv-x="497" 
d="M86 513l2 12.999l287 378l28 -15c17.333 -12 18.333 -28 3 -48l-219 -293c-10 -13.333 -18.333 -23 -25 -29c6 -5.33301 12 -14.666 18 -27.999l147 -294c10.667 -20 5.66699 -36 -15 -48l-32 -15z" />
    <glyph glyph-name="guilsinglright" unicode="&#x203a;" horiz-adv-x="498" 
d="M88 197l219.001 294.001c8 12 16.333 21.333 25 28c-7.33301 9.33301 -13.333 19 -18 29l-147 293c-5.33301 10.667 -6.33301 20.167 -3 28.5s9.66602 14.833 18.999 19.5l32 15l194 -378l-1 -13l-288 -379l-28 15c-9.33301 5.33301 -14 12.666 -14 21.999
s3.33301 18 10 26z" />
    <glyph glyph-name="uni205F" unicode="&#x205f;" horiz-adv-x="447" 
 />
    <glyph glyph-name="Euro" unicode="&#x20ac;" horiz-adv-x="1276" 
d="M59 569l6.99805 58.9971h157c4.66699 59.333 12.334 118.333 23.001 177h-158l7 58h164c30.667 126.667 79.5 235.834 146.5 327.501s151.5 158.167 253.5 199.5c64 26 132.667 39 206 39c85.333 0 156.666 -15 213.999 -45s106.666 -73.333 147.999 -130l-35 -35
c-7.33301 -8 -15.333 -12 -24 -12c-3.33301 0 -7.16602 1.33301 -11.499 4s-8 5.66699 -11 9s-6.5 7.5 -10.5 12.5s-7 8.5 -9 10.5c-69.333 68.667 -158.666 103 -267.999 103c-184.667 0 -325.667 -91.667 -423 -275c-32 -60 -58 -129.333 -78 -208h602l-4 -30
c-0.666992 -8.66699 -4.16699 -15.5 -10.5 -20.5s-14.5 -7.5 -24.5 -7.5h-576c-10.667 -58 -18.334 -117 -23.001 -177h517l-3 -30c-1.33301 -8.66699 -5.16602 -15.667 -11.499 -21s-14.166 -8 -23.499 -8h-481c-2 -118 14.5 -217.333 49.5 -298s89.833 -138 164.5 -172
c47.333 -21.333 101 -32 161 -32c68 0 126.833 10.833 176.5 32.5s95.5 51.834 137.5 90.501l35 30c9.33301 8 17 12 23 12c6.66699 0 12.667 -3 18 -9l32 -35c-26.667 -30 -54 -56.333 -82 -79s-59.667 -43.834 -95 -63.501s-75 -34.667 -119 -45s-91 -15.5 -141 -15.5
c-64.667 0 -123 9.5 -175 28.5s-95.833 45.5 -131.5 79.5s-65.167 75.333 -88.5 124s-40 102.334 -50 161.001s-14.333 122.334 -13 191.001h-162z" />
    <glyph glyph-name="trademark" unicode="&#x2122;" horiz-adv-x="1405" 
d="M96 1356l7 59h471l-7 -59h-199l-63 -516h-71l63 516h-201zM629 840l70 574.999h57c7.33301 0 12.333 -0.666992 15 -2s6 -4.66602 10 -9.99902l172 -364l8 -29c4 10.667 9.33301 20.334 16 29.001l258 364c4 5.33301 7.33301 8.66602 10 9.99902s7.66699 2 15 2h57
l-70 -575h-62l54 443l10 44l-265 -380c-6.66699 -10.667 -15.667 -16 -27 -16h-11c-11.333 0 -19 5.33301 -23 16l-177 378v-42l-54 -443h-63z" />
    <glyph glyph-name="uni25FC" unicode="&#x25fc;" horiz-adv-x="995" 
d="M0 0v995h995v-995h-995z" />
    <glyph glyph-name="glyph1" horiz-adv-x="0" 
 />
    </font>
</defs>
</svg>
